<svg width="32" height="32" viewBox="0 0 32 32" fill="none" xmlns="http://www.w3.org/2000/svg">
<circle cx="16" cy="16" r="15.5" stroke="#354A60"/>
<path fill-rule="evenodd" clip-rule="evenodd" d="M8 9.33673C8 8.98221 8.14083 8.64221 8.39152 8.39152C8.6422 8.14084 8.98221 8 9.33673 8H22.6618C22.8375 7.99971 23.0115 8.03408 23.1739 8.10114C23.3363 8.1682 23.4839 8.26663 23.6082 8.39079C23.7325 8.51496 23.8311 8.66242 23.8983 8.82474C23.9655 8.98705 24.0001 9.16104 24 9.33673V22.6618C24.0002 22.8375 23.9657 23.0116 23.8986 23.174C23.8315 23.3364 23.733 23.4839 23.6087 23.6082C23.4845 23.7325 23.337 23.8311 23.1746 23.8983C23.0123 23.9655 22.8383 24.0001 22.6625 24H9.33673C9.16112 24 8.98724 23.9654 8.82502 23.8982C8.66279 23.831 8.5154 23.7324 8.39126 23.6082C8.26713 23.484 8.16868 23.3366 8.10154 23.1743C8.03441 23.0121 7.9999 22.8382 8 22.6625V9.33673ZM14.3331 14.1004H16.4996V15.1884C16.8124 14.5629 17.6124 14 18.8145 14C21.1193 14 21.6655 15.2458 21.6655 17.5316V21.7658H19.3331V18.0524C19.3331 16.7505 19.0204 16.016 18.2262 16.016C17.1244 16.016 16.6662 16.808 16.6662 18.0524V21.7658H14.3331V14.1004ZM10.3331 21.6662H12.6662V14H10.3331V21.6655V21.6662ZM13 11.4996C13.0044 11.6994 12.9689 11.898 12.8954 12.0839C12.822 12.2697 12.7123 12.439 12.5725 12.5818C12.4328 12.7247 12.266 12.8382 12.0818 12.9156C11.8976 12.9931 11.6998 13.033 11.5 13.033C11.3002 13.033 11.1024 12.9931 10.9182 12.9156C10.734 12.8382 10.5672 12.7247 10.4275 12.5818C10.2877 12.439 10.178 12.2697 10.1046 12.0839C10.0311 11.898 9.9956 11.6994 10 11.4996C10.0086 11.1075 10.1705 10.7344 10.4508 10.4601C10.7312 10.1859 11.1078 10.0323 11.5 10.0323C11.8922 10.0323 12.2688 10.1859 12.5492 10.4601C12.8295 10.7344 12.9914 11.1075 13 11.4996Z" fill="#354A60"/>
</svg>
