<svg width="32" height="32" viewBox="0 0 32 32" fill="none" xmlns="http://www.w3.org/2000/svg">
<circle cx="16" cy="16" r="15.5" stroke="#354A60"/>
<g clip-path="url(#clip0_2511_5459)">
<path d="M24.3648 12.0066C24.266 11.654 24.0734 11.3348 23.8077 11.0829C23.5345 10.8233 23.1996 10.6376 22.8346 10.5433C21.4688 10.1833 15.9968 10.1833 15.9968 10.1833C13.7156 10.1573 11.4349 10.2715 9.1677 10.5251C8.80275 10.6264 8.46848 10.8162 8.19461 11.0778C7.92552 11.3367 7.73061 11.656 7.6288 12.0058C7.38421 13.3235 7.26537 14.6614 7.27389 16.0015C7.26516 17.3404 7.3837 18.6778 7.6288 19.9971C7.72843 20.3455 7.92261 20.6633 8.19243 20.92C8.46225 21.1767 8.79825 21.3622 9.1677 21.4604C10.5517 21.8197 15.9968 21.8197 15.9968 21.8197C18.2809 21.8456 20.5645 21.7315 22.8346 21.4778C23.1996 21.3836 23.5345 21.1978 23.8077 20.9382C24.0768 20.6815 24.2681 20.3622 24.3641 20.0146C24.615 18.6974 24.7371 17.359 24.7284 16.0182C24.7473 14.6717 24.6254 13.327 24.3648 12.0058V12.0066ZM14.2572 18.4917V13.512L18.8099 16.0022L14.2572 18.4917Z" fill="#354A60"/>
</g>
<defs>
<clipPath id="clip0_2511_5459">
<rect width="17.4545" height="17.4545" fill="white" transform="translate(7.27344 7.27344)"/>
</clipPath>
</defs>
</svg>
