<svg width="24" height="24" viewBox="0 0 24 24" fill="none" xmlns="http://www.w3.org/2000/svg">
<path d="M22.3839 7.16574C22.3839 7.50327 22.2589 7.79018 22.0089 8.02646L12.3125 17.1906L10.4911 18.9121C10.2411 19.1483 9.93748 19.2665 9.58034 19.2665C9.2232 19.2665 8.91963 19.1483 8.66963 18.9121L6.8482 17.1906L2 12.6085C1.75 12.3723 1.625 12.0854 1.625 11.7478C1.625 11.4103 1.75 11.1234 2 10.8871L3.82142 9.16565C4.07142 8.92937 4.37499 8.81123 4.73214 8.81123C5.08928 8.81123 5.39285 8.92937 5.64285 9.16565L9.58034 12.8997L18.366 4.58357C18.616 4.34729 18.9196 4.22916 19.2768 4.22916C19.6339 4.22916 19.9375 4.34729 20.1875 4.58357L22.0089 6.30501C22.2589 6.54129 22.3839 6.8282 22.3839 7.16574Z" fill="#12B76A"/>
</svg>
