<svg width="25" height="24" viewBox="0 0 25 24" fill="none" xmlns="http://www.w3.org/2000/svg">
<path fill-rule="evenodd" clip-rule="evenodd" d="M16.75 6.99976C16.75 7.41376 16.414 7.74976 16 7.74976C15.586 7.74976 15.25 7.41376 15.25 6.99976V5.49976C15.25 3.98076 14.019 2.74976 12.5 2.74976C10.981 2.74976 9.75 3.98076 9.75 5.49976V6.99976C9.75 7.41376 9.414 7.74976 9 7.74976C8.586 7.74976 8.25 7.41376 8.25 6.99976V5.49976C8.25 3.15276 10.153 1.24976 12.5 1.24976C14.847 1.24976 16.75 3.15276 16.75 5.49976V6.99976Z" fill="white"/>
<path fill-rule="evenodd" clip-rule="evenodd" d="M19.8424 8.34976L20.6424 20.3498C20.6834 20.9718 20.4654 21.5818 20.0404 22.0368C19.6144 22.4918 19.0194 22.7498 18.3974 22.7498H6.60341C5.98141 22.7498 5.38641 22.4918 4.96041 22.0368C4.53541 21.5818 4.31741 20.9718 4.35841 20.3498L5.15841 8.34976C5.23741 7.16776 6.21941 6.24976 7.40341 6.24976H17.5974C18.7814 6.24976 19.7634 7.16776 19.8424 8.34976ZM14.9864 10.6778C14.5444 11.6068 13.5974 12.2498 12.5004 12.2498C11.4034 12.2498 10.4564 11.6068 10.0144 10.6778C9.83741 10.3038 9.38941 10.1448 9.01541 10.3228C8.64141 10.4998 8.48241 10.9478 8.65941 11.3218C9.34141 12.7578 10.8054 13.7498 12.5004 13.7498C14.1954 13.7498 15.6594 12.7578 16.3414 11.3218C16.5184 10.9478 16.3594 10.4998 15.9854 10.3228C15.6114 10.1448 15.1634 10.3038 14.9864 10.6778Z" fill="white"/>
</svg>
