<svg width="1438" height="1223" viewBox="0 0 1438 1223" fill="none" xmlns="http://www.w3.org/2000/svg">
<path d="M1244.3 425.51H1240.68C1236.56 418.43 1228.93 411.75 1217.77 406.17L1078.88 336.71C1043.5 319.02 986.141 319.02 950.761 336.71L378.241 621.45C367.081 627.03 359.441 633.71 355.331 640.79H351.711V1222.86H1244.3V425.51Z" fill="url(#paint0_linear_671_23893)"/>
<path d="M1217.77 457.55L645.25 742.29C609.87 759.98 552.51 759.98 517.13 742.29L378.24 672.83C342.86 655.14 342.86 626.45 378.24 608.76L950.76 324.02C986.14 306.33 1043.5 306.33 1078.88 324.02L1217.77 393.48C1253.15 411.17 1253.15 439.86 1217.77 457.55Z" fill="url(#paint1_linear_671_23893)"/>
<path d="M1217.77 477.55L645.249 762.29C609.869 779.98 552.509 779.98 517.129 762.29L378.239 692.83C360.559 683.99 351.709 672.4 351.709 660.81V670.81C351.709 682.4 360.559 693.99 378.239 702.83L517.129 772.29C552.509 789.98 609.869 789.98 645.249 772.29L1217.77 487.55C1235.46 478.7 1244.3 467.11 1244.3 455.52V445.52C1244.3 457.11 1235.46 468.71 1217.77 477.55Z" fill="#8CD9FF"/>
<path d="M992.068 1222.81V716.95C992.048 688.42 1013.81 659.88 1057.34 638.11C1144.36 594.59 1285.46 594.59 1372.48 638.11C1416.01 659.88 1437.77 688.42 1437.75 716.95V1222.84L992.068 1222.81Z" fill="url(#paint2_linear_671_23893)"/>
<path d="M1372.48 638.11C1459.5 681.63 1459.5 752.19 1372.48 795.72C1285.46 839.24 1144.36 839.24 1057.34 795.72C970.319 752.2 970.319 681.64 1057.34 638.11C1144.36 594.59 1285.46 594.59 1372.48 638.11Z" fill="url(#paint3_linear_671_23893)"/>
<path d="M1437.75 736.95C1437.73 765.46 1415.98 793.96 1372.48 815.72C1285.46 859.24 1144.36 859.24 1057.34 815.72C1013.85 793.97 992.088 765.46 992.068 736.95V746.95C992.088 775.46 1013.84 803.97 1057.34 825.72C1144.36 869.24 1285.46 869.24 1372.48 825.72C1415.97 803.97 1437.73 775.46 1437.75 746.95V736.95Z" fill="#8CD9FF"/>
<path d="M1437.75 747.02C1437.73 775.53 1415.98 804.03 1372.48 825.79C1285.46 869.31 1144.36 869.31 1057.34 825.79C1013.85 804.04 992.088 775.53 992.068 747.02V757.02C992.088 785.53 1013.84 814.04 1057.34 835.79C1144.36 879.31 1285.46 879.31 1372.48 835.79C1415.97 814.04 1437.73 785.53 1437.75 757.02V747.02Z" fill="url(#paint4_linear_671_23893)"/>
<path d="M486.669 920.78C486.669 916.9 483.709 913.02 477.789 910.06L346.679 844.49C334.839 838.57 315.639 838.57 303.789 844.49L172.679 910.06C166.759 913.02 163.799 916.9 163.799 920.78V1221.9H486.659V920.78H486.669Z" fill="url(#paint5_linear_671_23893)"/>
<path d="M172.689 931.5L303.799 997.07C315.639 1002.99 334.839 1002.99 346.689 997.07L477.799 931.5C489.639 925.58 489.639 915.98 477.799 910.05L346.689 844.48C334.849 838.56 315.649 838.56 303.799 844.48L172.689 910.05C160.849 915.97 160.849 925.57 172.689 931.5Z" fill="url(#paint6_linear_671_23893)"/>
<path d="M477.789 951.5L346.679 1017.07C334.839 1022.99 315.639 1022.99 303.789 1017.07L172.679 951.5C166.759 948.54 163.799 944.66 163.799 940.78V950.78C163.799 954.66 166.759 958.54 172.679 961.5L303.789 1027.07C315.629 1032.99 334.829 1032.99 346.679 1027.07L477.789 961.5C483.709 958.54 486.669 954.66 486.669 950.78V940.78C486.669 944.66 483.709 948.54 477.789 951.5Z" fill="#8CD9FF"/>
<path d="M477.789 961.5L346.679 1027.07C334.839 1032.99 315.639 1032.99 303.789 1027.07L172.679 961.5C166.759 958.54 163.799 954.66 163.799 950.78V960.78C163.799 964.66 166.759 968.54 172.679 971.5L303.789 1037.07C315.629 1042.99 334.829 1042.99 346.679 1037.07L477.789 971.5C483.709 968.54 486.669 964.66 486.669 960.78V950.78C486.669 954.66 483.709 958.54 477.789 961.5Z" fill="url(#paint7_linear_671_23893)"/>
<path d="M1148.19 1070.64C1148.19 1065.2 1144.04 1059.76 1135.74 1055.61L836.559 906C819.959 897.7 793.039 897.7 776.439 906L592.639 997.92C584.339 1002.07 580.189 1007.51 580.189 1012.95V1222.82H1148.2V1070.64H1148.19Z" fill="url(#paint8_linear_671_23893)"/>
<path d="M592.63 1027.98L891.81 1177.59C908.41 1185.89 935.33 1185.89 951.93 1177.59L1135.73 1085.67C1152.33 1077.37 1152.33 1063.91 1135.73 1055.6L836.55 905.99C819.95 897.69 793.03 897.69 776.43 905.99L592.63 997.91C576.03 1006.21 576.03 1019.67 592.63 1027.98Z" fill="url(#paint9_linear_671_23893)"/>
<g style="mix-blend-mode:multiply">
<path opacity="0.09" d="M603.859 1052.58L862.489 1178.77C869.309 1182.18 880.359 1182.18 887.169 1178.77L925.859 1159.42C932.679 1156.01 932.679 1150.49 925.859 1147.08L667.229 1020.89C660.409 1017.48 649.359 1017.48 642.549 1020.89L603.859 1040.24C597.039 1043.65 597.039 1049.17 603.859 1052.58Z" fill="#B4C1F3"/>
<path opacity="0.18" d="M608.99 1050.02L867.62 1176.21C874.44 1179.62 885.49 1179.62 892.3 1176.21L930.99 1156.86C937.81 1153.45 937.81 1147.93 930.99 1144.52L672.36 1018.33C665.54 1014.92 654.49 1014.92 647.68 1018.33L608.99 1037.68C602.17 1041.09 602.17 1046.61 608.99 1050.02Z" fill="#B4C1F3"/>
<path opacity="0.27" d="M614.121 1047.46L872.751 1173.65C879.571 1177.06 890.621 1177.06 897.431 1173.65L936.121 1154.3C942.941 1150.89 942.941 1145.37 936.121 1141.96L677.491 1015.77C670.671 1012.36 659.621 1012.36 652.811 1015.77L614.121 1035.12C607.301 1038.53 607.301 1044.05 614.121 1047.46Z" fill="#B4C1F3"/>
<path opacity="0.36" d="M619.25 1044.89L877.88 1171.08C884.7 1174.49 895.75 1174.49 902.56 1171.08L941.25 1151.73C948.07 1148.32 948.07 1142.8 941.25 1139.39L682.62 1013.2C675.8 1009.79 664.75 1009.79 657.94 1013.2L619.25 1032.55C612.43 1035.96 612.43 1041.48 619.25 1044.89Z" fill="#B4C1F3"/>
<path opacity="0.45" d="M624.381 1042.33L883.011 1168.52C889.831 1171.93 900.881 1171.93 907.691 1168.52L946.381 1149.17C953.201 1145.76 953.201 1140.24 946.381 1136.83L687.751 1010.64C680.931 1007.23 669.881 1007.23 663.071 1010.64L624.381 1029.99C617.561 1033.4 617.561 1038.92 624.381 1042.33Z" fill="#B4C1F3"/>
<path opacity="0.55" d="M629.51 1039.76L888.14 1165.95C894.96 1169.36 906.01 1169.36 912.82 1165.95L951.51 1146.6C958.33 1143.19 958.33 1137.67 951.51 1134.26L692.88 1008.07C686.06 1004.66 675.01 1004.66 668.2 1008.07L629.51 1027.42C622.69 1030.83 622.69 1036.35 629.51 1039.76Z" fill="#B4C1F3"/>
<path opacity="0.64" d="M634.631 1037.2L893.261 1163.39C900.081 1166.8 911.131 1166.8 917.941 1163.39L956.631 1144.04C963.451 1140.63 963.451 1135.11 956.631 1131.7L698.001 1005.51C691.181 1002.1 680.131 1002.1 673.321 1005.51L634.631 1024.86C627.811 1028.27 627.811 1033.79 634.631 1037.2Z" fill="#B4C1F3"/>
<path opacity="0.73" d="M639.76 1034.63L898.39 1160.82C905.21 1164.23 916.26 1164.23 923.07 1160.82L961.76 1141.47C968.58 1138.06 968.58 1132.54 961.76 1129.13L703.13 1002.94C696.31 999.53 685.26 999.53 678.45 1002.94L639.76 1022.29C632.94 1025.7 632.94 1031.22 639.76 1034.63Z" fill="#B4C1F3"/>
<path opacity="0.82" d="M644.89 1032.07L903.52 1158.26C910.34 1161.67 921.39 1161.67 928.2 1158.26L966.89 1138.91C973.71 1135.5 973.71 1129.98 966.89 1126.57L708.26 1000.38C701.44 996.97 690.39 996.97 683.58 1000.38L644.89 1019.73C638.07 1023.14 638.07 1028.66 644.89 1032.07Z" fill="#B4C1F3"/>
<path opacity="0.91" d="M650.019 1029.5L908.649 1155.69C915.469 1159.1 926.519 1159.1 933.329 1155.69L972.019 1136.34C978.839 1132.93 978.839 1127.41 972.019 1124L713.389 997.81C706.569 994.4 695.519 994.4 688.709 997.81L650.019 1017.16C643.199 1020.57 643.199 1026.09 650.019 1029.5Z" fill="#B4C1F3"/>
<path d="M655.15 1026.94L913.78 1153.13C920.6 1156.54 931.65 1156.54 938.46 1153.13L977.15 1133.78C983.97 1130.37 983.97 1124.85 977.15 1121.44L718.52 995.25C711.7 991.84 700.65 991.84 693.84 995.25L655.15 1014.6C648.33 1018.01 648.33 1023.53 655.15 1026.94Z" fill="#B4C1F3"/>
</g>
<path d="M1097.8 857.9L830.771 724.36C827.801 722.87 825.081 722.63 823.021 723.43L811.971 727.77L813.741 914.23L1098.43 1061.7C1101.88 1060.35 1109.48 1054.92 1109.48 1051.22V875.44C1109.48 868.98 1104.25 861.13 1097.79 857.9H1097.8Z" fill="url(#paint10_linear_671_23893)"/>
<path d="M1098.43 1061.69L808.02 916.46V734.55C808.02 728.09 813.25 725.48 819.71 728.71L1086.74 862.25C1093.2 865.48 1098.43 873.33 1098.43 879.79V1061.7V1061.69Z" fill="url(#paint11_linear_671_23893)"/>
<path d="M819.461 910.74V740.01L1087 873.8V1044.54L819.461 910.74Z" fill="url(#paint12_linear_671_23893)"/>
<path d="M645.141 1021.05L912.171 1154.59C918.601 1157.81 929.121 1157.81 935.551 1154.59L1088.21 1078.24C1094.48 1075.11 1098.44 1068.7 1098.44 1061.69L808.031 927.89L640.301 1003.91L640.321 1015.2C640.321 1017.32 641.931 1019.44 645.141 1021.05Z" fill="url(#paint13_linear_671_23893)"/>
<path d="M645.14 1009.61L912.17 1143.15C918.63 1146.38 929.09 1146.38 935.55 1143.15L1098.44 1061.69L808.03 916.46L645.14 997.92C638.68 1001.15 638.68 1006.38 645.14 1009.61Z" fill="url(#paint14_linear_671_23893)"/>
<path d="M882.521 1010.72L868.3 1017.83L882.521 1024.94L896.74 1017.83L882.521 1010.72ZM845.32 986.43L859.54 993.54L873.76 986.43L859.54 979.32L845.32 986.43ZM825.42 996.39L839.641 1003.5L853.86 996.39L839.641 989.28L825.42 996.39ZM875.3 1007.11L861.081 1000L846.86 1007.11L861.081 1014.22L875.3 1007.11ZM802.43 964.98L816.651 972.09L830.87 964.98L816.651 957.87L802.43 964.98ZM818.19 992.77L832.41 985.66L818.19 978.55L803.97 985.66L818.19 992.77ZM898.281 1038.51L884.06 1031.4L869.841 1038.51L884.06 1045.62L898.281 1038.51ZM823.88 975.71L838.1 982.82L852.32 975.71L838.1 968.6L823.88 975.71ZM762.63 984.89L776.85 992L791.07 984.89L776.85 977.78L762.63 984.89ZM895.211 997.15L880.99 990.04L866.771 997.15L880.99 1004.26L895.211 997.15ZM997.281 1068.11L983.06 1061L968.841 1068.11L983.06 1075.22L997.281 1068.11ZM876.841 1027.79L798.29 988.51L784.07 995.62L862.62 1034.9L876.841 1027.79ZM947.391 1057.39L961.61 1064.5L975.831 1057.39L961.61 1050.28L947.391 1057.39ZM1037.08 1048.2L1022.86 1041.09L1015.75 1044.65L1029.97 1051.76L1037.08 1048.2ZM1017.18 1058.15L1002.96 1051.04L988.74 1058.15L1002.96 1065.26L1017.18 1058.15ZM1015.64 1037.48L1001.42 1030.37L994.31 1033.93L1008.53 1041.04L1015.64 1037.48ZM979.44 1019.37L965.22 1012.26L958.11 1015.82L972.331 1022.93L979.44 1019.37ZM958 1008.65L943.781 1001.54L936.67 1005.1L950.891 1012.21L958 1008.65ZM981.51 1054.54L995.73 1047.43L981.51 1040.32L967.29 1047.43L981.51 1054.54ZM1044.3 1051.81L1037.19 1055.37L1051.41 1062.48L1058.52 1058.92L1044.3 1051.81ZM891.281 1049.24L905.5 1056.35L919.72 1049.24L905.5 1042.13L891.281 1049.24ZM810.97 974.94L775.31 957.1L761.091 964.21L796.75 982.05L810.97 974.94ZM945.31 1022.21L925.41 1032.16L903.97 1021.44L889.75 1028.55L925.41 1046.39L959.54 1029.32L945.32 1022.21H945.31ZM769.63 974.17L755.41 967.06L741.19 974.17L755.41 981.28L769.63 974.17ZM941.711 1060.23L927.49 1067.34L941.711 1074.45L955.93 1067.34L941.711 1060.23ZM990.271 1078.83L1004.49 1085.94L1018.71 1078.83L1004.49 1071.72L990.271 1078.83ZM1010.18 1068.88L1024.4 1075.99L1038.62 1068.88L1024.4 1061.77L1010.18 1068.88ZM963.151 1070.95L948.93 1078.06L963.151 1085.17L977.37 1078.06L963.151 1070.95ZM970.37 1088.79L984.591 1095.9L998.81 1088.79L984.591 1081.68L970.37 1088.79ZM809.43 954.26L795.211 947.15L780.99 954.26L795.211 961.37L809.43 954.26ZM916.651 1007.88L902.43 1000.77L888.211 1007.88L902.43 1014.99L916.651 1007.88ZM936.55 997.92L922.331 990.81L915.22 994.37L929.44 1001.48L936.55 997.92ZM915.11 987.2L900.891 980.09L893.781 983.65L908 990.76L915.11 987.2ZM938.091 1018.6L923.87 1011.49L909.651 1018.6L923.87 1025.71L938.091 1018.6ZM893.67 976.48L879.451 969.37L872.341 972.93L886.56 980.04L893.67 976.48ZM829.341 944.31L815.12 937.2L808.01 940.76L822.23 947.87L829.341 944.31ZM872.22 965.75L858 958.64L850.891 962.2L865.11 969.31L872.22 965.75ZM850.781 955.03L836.56 947.92L829.451 951.48L843.67 958.59L850.781 955.03ZM738.48 1041.95L826.201 1085.82L884.68 1056.57L796.961 1012.7L738.48 1041.95Z" fill="url(#paint15_linear_671_23893)"/>
<path d="M1016.26 684.94V717.44C1016.26 742.87 1035.65 768.29 1074.44 787.69C1152.02 826.49 1277.8 826.49 1355.38 787.69C1394.17 768.29 1413.56 742.87 1413.56 717.44V684.94H1016.26Z" fill="url(#paint16_linear_671_23893)"/>
<path d="M1355.38 614.69C1432.96 653.49 1432.96 716.39 1355.38 755.19C1277.8 793.99 1152.02 793.99 1074.44 755.19C996.859 716.39 996.859 653.49 1074.44 614.69C1152.02 575.89 1277.8 575.89 1355.38 614.69Z" fill="url(#paint17_linear_671_23893)"/>
<g style="mix-blend-mode:multiply">
<path opacity="0.05" d="M1303.77 628.44C1363.85 658.49 1363.85 707.21 1303.77 737.25C1243.69 767.3 1146.27 767.3 1086.19 737.25C1026.11 707.2 1026.11 658.48 1086.19 628.44C1146.27 598.39 1243.69 598.39 1303.77 628.44Z" fill="#A7B1F2"/>
<path opacity="0.1" d="M1304.75 627.95C1364.83 658 1364.83 706.72 1304.75 736.76C1244.67 766.81 1147.25 766.81 1087.17 736.76C1027.09 706.71 1027.09 657.99 1087.17 627.95C1147.25 597.9 1244.67 597.9 1304.75 627.95Z" fill="#A7B1F2"/>
<path opacity="0.14" d="M1305.74 627.46C1365.82 657.51 1365.82 706.23 1305.74 736.27C1245.66 766.32 1148.24 766.32 1088.16 736.27C1028.08 706.22 1028.08 657.5 1088.16 627.46C1148.24 597.41 1245.66 597.41 1305.74 627.46Z" fill="#A7B1F2"/>
<path opacity="0.19" d="M1306.73 626.96C1366.81 657.01 1366.81 705.73 1306.73 735.77C1246.65 765.82 1149.23 765.82 1089.15 735.77C1029.07 705.72 1029.07 657 1089.15 626.96C1149.23 596.91 1246.65 596.91 1306.73 626.96Z" fill="#A7B1F2"/>
<path opacity="0.24" d="M1307.71 626.47C1367.79 656.52 1367.79 705.24 1307.71 735.28C1247.63 765.33 1150.21 765.33 1090.13 735.28C1030.05 705.23 1030.05 656.51 1090.13 626.47C1150.21 596.42 1247.63 596.42 1307.71 626.47Z" fill="#A7B1F2"/>
<path opacity="0.29" d="M1308.7 625.98C1368.78 656.03 1368.78 704.75 1308.7 734.79C1248.62 764.84 1151.2 764.84 1091.12 734.79C1031.04 704.74 1031.04 656.02 1091.12 625.98C1151.2 595.93 1248.62 595.93 1308.7 625.98Z" fill="#A7B1F2"/>
<path opacity="0.33" d="M1309.68 625.48C1369.76 655.53 1369.76 704.25 1309.68 734.29C1249.6 764.34 1152.18 764.34 1092.1 734.29C1032.02 704.24 1032.02 655.52 1092.1 625.48C1152.18 595.43 1249.6 595.43 1309.68 625.48Z" fill="#A7B1F2"/>
<path opacity="0.38" d="M1310.67 624.99C1370.75 655.04 1370.75 703.76 1310.67 733.8C1250.59 763.85 1153.17 763.85 1093.09 733.8C1033.01 703.75 1033.01 655.03 1093.09 624.99C1153.17 594.94 1250.59 594.94 1310.67 624.99Z" fill="#A7B1F2"/>
<path opacity="0.43" d="M1311.66 624.5C1371.74 654.55 1371.74 703.27 1311.66 733.31C1251.58 763.36 1154.16 763.36 1094.08 733.31C1034 703.26 1034 654.54 1094.08 624.5C1154.16 594.45 1251.58 594.45 1311.66 624.5Z" fill="#A7B1F2"/>
<path opacity="0.48" d="M1312.64 624.01C1372.72 654.06 1372.72 702.78 1312.64 732.82C1252.56 762.87 1155.14 762.87 1095.06 732.82C1034.98 702.77 1034.98 654.05 1095.06 624.01C1155.14 593.96 1252.56 593.96 1312.64 624.01Z" fill="#A7B1F2"/>
<path opacity="0.52" d="M1313.63 623.51C1373.71 653.56 1373.71 702.28 1313.63 732.32C1253.55 762.37 1156.13 762.37 1096.05 732.32C1035.97 702.27 1035.97 653.55 1096.05 623.51C1156.13 593.46 1253.55 593.46 1313.63 623.51Z" fill="#A7B1F2"/>
<path opacity="0.57" d="M1314.61 623.02C1374.69 653.07 1374.69 701.79 1314.61 731.83C1254.53 761.88 1157.11 761.88 1097.03 731.83C1036.95 701.78 1036.95 653.06 1097.03 623.02C1157.11 592.97 1254.53 592.97 1314.61 623.02Z" fill="#A7B1F2"/>
<path opacity="0.62" d="M1315.6 622.53C1375.68 652.58 1375.68 701.3 1315.6 731.34C1255.52 761.39 1158.1 761.39 1098.02 731.34C1037.94 701.29 1037.94 652.57 1098.02 622.53C1158.1 592.48 1255.52 592.48 1315.6 622.53Z" fill="#A7B1F2"/>
<path opacity="0.67" d="M1316.59 622.03C1376.67 652.08 1376.67 700.8 1316.59 730.84C1256.51 760.89 1159.09 760.89 1099.01 730.84C1038.93 700.79 1038.93 652.07 1099.01 622.03C1159.09 591.98 1256.51 591.98 1316.59 622.03Z" fill="#A7B1F2"/>
<path opacity="0.71" d="M1317.57 621.54C1377.65 651.59 1377.65 700.31 1317.57 730.35C1257.49 760.4 1160.07 760.4 1099.99 730.35C1039.91 700.3 1039.91 651.58 1099.99 621.54C1160.07 591.49 1257.49 591.49 1317.57 621.54Z" fill="#A7B1F2"/>
<path opacity="0.76" d="M1318.56 621.05C1378.64 651.1 1378.64 699.82 1318.56 729.86C1258.48 759.91 1161.06 759.91 1100.98 729.86C1040.9 699.81 1040.9 651.09 1100.98 621.05C1161.06 591 1258.48 591 1318.56 621.05Z" fill="#A7B1F2"/>
<path opacity="0.81" d="M1319.54 620.55C1379.62 650.6 1379.62 699.32 1319.54 729.36C1259.46 759.41 1162.04 759.41 1101.96 729.36C1041.88 699.31 1041.88 650.59 1101.96 620.55C1162.04 590.5 1259.46 590.5 1319.54 620.55Z" fill="#A7B1F2"/>
<path opacity="0.86" d="M1320.53 620.06C1380.61 650.11 1380.61 698.83 1320.53 728.87C1260.45 758.92 1163.03 758.92 1102.95 728.87C1042.87 698.82 1042.87 650.1 1102.95 620.06C1163.03 590.01 1260.45 590.01 1320.53 620.06Z" fill="#A7B1F2"/>
<path opacity="0.9" d="M1321.51 619.57C1381.59 649.62 1381.59 698.34 1321.51 728.38C1261.43 758.43 1164.01 758.43 1103.93 728.38C1043.85 698.33 1043.85 649.61 1103.93 619.57C1164.01 589.52 1261.43 589.52 1321.51 619.57Z" fill="#A7B1F2"/>
<path opacity="0.95" d="M1322.5 619.07C1382.58 649.12 1382.58 697.84 1322.5 727.88C1262.42 757.93 1165 757.93 1104.92 727.88C1044.84 697.83 1044.84 649.11 1104.92 619.07C1165 589.02 1262.42 589.02 1322.5 619.07Z" fill="#A7B1F2"/>
<path d="M1323.49 618.58C1383.57 648.63 1383.57 697.35 1323.49 727.39C1263.41 757.44 1165.99 757.44 1105.91 727.39C1045.83 697.34 1045.83 648.62 1105.91 618.58C1165.99 588.53 1263.41 588.53 1323.49 618.58Z" fill="#A7B1F2"/>
</g>
<path d="M1323.55 586.06C1383.55 616.07 1383.55 664.72 1323.55 694.72C1263.55 724.73 1166.27 724.73 1106.27 694.72C1046.27 664.71 1046.27 616.06 1106.27 586.06C1166.27 556.05 1263.55 556.05 1323.55 586.06Z" fill="url(#paint18_linear_671_23893)"/>
<path d="M1323.55 694.72C1263.55 724.73 1166.27 724.73 1106.27 694.72C1076.27 679.72 1061.27 660.05 1061.27 640.39V673.71C1061.27 693.37 1076.27 713.04 1106.27 728.04C1166.27 758.05 1263.55 758.05 1323.55 728.04C1353.55 713.04 1368.55 693.37 1368.55 673.71V640.39C1368.55 660.05 1353.55 679.72 1323.55 694.72Z" fill="url(#paint19_linear_671_23893)"/>
<path d="M1301.81 596.93C1349.8 620.93 1349.8 659.85 1301.81 683.85C1253.82 707.85 1176 707.85 1128.01 683.85C1080.02 659.85 1080.02 620.93 1128.01 596.93C1176 572.93 1253.82 572.93 1301.81 596.93Z" fill="url(#paint20_linear_671_23893)"/>
<path d="M1128.01 616.89C1176 592.89 1253.82 592.89 1301.81 616.89C1320.71 626.34 1332.14 638.11 1336.15 650.37C1342.33 631.5 1330.9 611.48 1301.81 596.93C1253.82 572.93 1176 572.93 1128.01 596.93C1098.92 611.48 1087.49 631.5 1093.67 650.37C1097.68 638.11 1109.11 626.34 1128.01 616.89Z" fill="#B4C1F3"/>
<path style="mix-blend-mode:multiply" d="M1368.52 232.03H1061.31V638.59C1060.47 658.79 1075.45 679.12 1106.27 694.53C1166.27 724.54 1263.55 724.54 1323.55 694.53C1354.37 679.11 1369.36 658.78 1368.51 638.58V232.03H1368.52Z" fill="url(#paint21_linear_671_23893)"/>
<path style="mix-blend-mode:multiply" d="M1338.25 132.63H1091.57V638.47C1090.89 654.69 1102.93 671.02 1127.67 683.39C1175.85 707.48 1253.96 707.48 1302.14 683.39C1326.89 671.01 1338.92 654.68 1338.24 638.46V132.63H1338.25Z" fill="url(#paint22_linear_671_23893)"/>
<path d="M1289.57 615.22L1318.02 600.99V568.06L1289.57 582.29V615.22Z" fill="#E3E5F9"/>
<path d="M1261.13 600.99L1289.57 615.22V582.29L1261.13 568.06V600.99Z" fill="#BCC9F8"/>
<path d="M1261.13 568.06L1289.57 582.29L1318.02 568.06L1289.57 553.84L1261.13 568.06Z" fill="url(#paint23_linear_671_23893)"/>
<path d="M1170.12 474.92L1189.59 465.19V442.64L1170.12 452.38V474.92Z" fill="#E3E5F9"/>
<path d="M1150.64 465.19L1170.12 474.92V452.38L1150.64 442.64V465.19Z" fill="#BCC9F8"/>
<path d="M1150.64 442.64L1170.12 452.38L1189.59 442.64L1170.12 432.9L1150.64 442.64Z" fill="url(#paint24_linear_671_23893)"/>
<path d="M1283.1 246.86L1286.61 236.34L1278.49 228.22L1274.98 238.74L1283.1 246.86Z" fill="#E3E5F9"/>
<path d="M1272.58 250.37L1283.1 246.86L1274.98 238.74L1264.46 242.25L1272.58 250.37Z" fill="#BCC9F8"/>
<path d="M1264.46 242.25L1274.98 238.74L1278.49 228.22L1267.96 231.72L1264.46 242.25Z" fill="url(#paint25_linear_671_23893)"/>
<path d="M1267.53 513.39L1274.41 492.73L1258.47 476.79L1251.59 497.44L1267.53 513.39Z" fill="url(#paint26_linear_671_23893)"/>
<path d="M1246.88 520.27L1267.53 513.39L1251.59 497.44L1230.93 504.33L1246.88 520.27Z" fill="url(#paint27_linear_671_23893)"/>
<path d="M1230.93 504.33L1251.59 497.44L1258.47 476.79L1237.82 483.67L1230.93 504.33Z" fill="url(#paint28_linear_671_23893)"/>
<path d="M1216.72 273.56L1231.82 266.01V248.53L1216.72 256.08V273.56Z" fill="url(#paint29_linear_671_23893)"/>
<path d="M1201.62 266.01L1216.72 273.56V256.08L1201.62 248.53V266.01Z" fill="url(#paint30_linear_671_23893)"/>
<path d="M1201.62 248.53L1216.72 256.08L1231.82 248.53L1216.72 240.98L1201.62 248.53Z" fill="url(#paint31_linear_671_23893)"/>
<path d="M1154.1 324.48L1170.12 329.82L1182.48 317.46L1166.46 312.12L1154.1 324.48Z" fill="url(#paint32_linear_671_23893)"/>
<path d="M1148.76 308.47L1154.1 324.48L1166.46 312.12L1161.12 296.11L1148.76 308.47Z" fill="url(#paint33_linear_671_23893)"/>
<path d="M1161.12 296.11L1166.46 312.12L1182.48 317.46L1177.14 301.44L1161.12 296.11Z" fill="url(#paint34_linear_671_23893)"/>
<path d="M1160.28 651.87L1176.3 657.21L1188.65 644.85L1172.64 639.51L1160.28 651.87Z" fill="url(#paint35_linear_671_23893)"/>
<path d="M1154.94 635.86L1160.28 651.87L1172.64 639.51L1167.3 623.5L1154.94 635.86Z" fill="url(#paint36_linear_671_23893)"/>
<path d="M1167.3 623.5L1172.64 639.51L1188.65 644.85L1183.32 628.83L1167.3 623.5Z" fill="url(#paint37_linear_671_23893)"/>
<path d="M1111.73 553.84L1127.74 559.18L1140.1 546.82L1124.09 541.479L1111.73 553.84Z" fill="url(#paint38_linear_671_23893)"/>
<path d="M1106.39 537.82L1111.73 553.84L1124.09 541.48L1118.75 525.47L1106.39 537.82Z" fill="url(#paint39_linear_671_23893)"/>
<path d="M1118.75 525.47L1124.09 541.48L1140.1 546.82L1134.77 530.8L1118.75 525.47Z" fill="url(#paint40_linear_671_23893)"/>
<g style="mix-blend-mode:screen">
<path d="M1300.27 347.39H1298.98V472.45H1300.27V347.39Z" fill="url(#paint41_linear_671_23893)"/>
</g>
<path d="M1292.43 472.45C1292.43 476.42 1295.65 479.64 1299.62 479.64C1303.59 479.64 1306.81 476.42 1306.81 472.45C1306.81 468.48 1303.59 465.26 1299.62 465.26C1295.65 465.26 1292.43 468.48 1292.43 472.45Z" fill="url(#paint42_linear_671_23893)"/>
<g style="mix-blend-mode:screen">
<path d="M1283.03 376.53H1281.74V442.52H1283.03V376.53Z" fill="url(#paint43_linear_671_23893)"/>
</g>
<path d="M1275.2 442.52C1275.2 446.49 1278.42 449.71 1282.39 449.71C1286.36 449.71 1289.58 446.49 1289.58 442.52C1289.58 438.55 1286.36 435.33 1282.39 435.33C1278.42 435.33 1275.2 438.55 1275.2 442.52Z" fill="url(#paint44_linear_671_23893)"/>
<g style="mix-blend-mode:screen">
<path d="M1126.56 217.46H1125.27V283.45H1126.56V217.46Z" fill="url(#paint45_linear_671_23893)"/>
</g>
<path d="M1125.92 224.65C1129.89 224.65 1133.11 221.431 1133.11 217.46C1133.11 213.489 1129.89 210.27 1125.92 210.27C1121.95 210.27 1118.73 213.489 1118.73 217.46C1118.73 221.431 1121.95 224.65 1125.92 224.65Z" fill="url(#paint46_linear_671_23893)"/>
<g style="mix-blend-mode:screen">
<path d="M1190.23 115.47H1188.94V181.46H1190.23V115.47Z" fill="url(#paint47_linear_671_23893)"/>
</g>
<path d="M1182.4 115.47C1182.4 111.5 1185.62 108.28 1189.59 108.28C1193.56 108.28 1196.78 111.5 1196.78 115.47C1196.78 119.44 1193.56 122.66 1189.59 122.66C1185.62 122.66 1182.4 119.44 1182.4 115.47Z" fill="url(#paint48_linear_671_23893)"/>
<g style="mix-blend-mode:screen">
<path d="M1202.99 544.51H1201.7V610.5H1202.99V544.51Z" fill="url(#paint49_linear_671_23893)"/>
</g>
<path d="M1195.16 610.5C1195.16 614.47 1198.38 617.69 1202.35 617.69C1206.32 617.69 1209.54 614.47 1209.54 610.5C1209.54 606.53 1206.32 603.31 1202.35 603.31C1198.38 603.31 1195.16 606.53 1195.16 610.5Z" fill="url(#paint50_linear_671_23893)"/>
<g style="mix-blend-mode:screen">
<path d="M1224.55 570.11H1223.26V636.1H1224.55V570.11Z" fill="url(#paint51_linear_671_23893)"/>
</g>
<path d="M1216.72 636.09C1216.72 640.06 1219.94 643.28 1223.91 643.28C1227.88 643.28 1231.1 640.06 1231.1 636.09C1231.1 632.12 1227.88 628.9 1223.91 628.9C1219.94 628.9 1216.72 632.12 1216.72 636.09Z" fill="url(#paint52_linear_671_23893)"/>
<g style="mix-blend-mode:screen">
<path d="M1131.92 339.94H1130.63V405.93H1131.92V339.94Z" fill="url(#paint53_linear_671_23893)"/>
</g>
<path d="M1124.09 405.93C1124.09 409.9 1127.31 413.12 1131.28 413.12C1135.25 413.12 1138.47 409.9 1138.47 405.93C1138.47 401.96 1135.25 398.74 1131.28 398.74C1127.31 398.74 1124.09 401.96 1124.09 405.93Z" fill="url(#paint54_linear_671_23893)"/>
<g style="mix-blend-mode:screen">
<path d="M1172.45 148.46H1171.16V214.45H1172.45V148.46Z" fill="url(#paint55_linear_671_23893)"/>
</g>
<path d="M1164.61 214.45C1164.61 218.42 1167.83 221.64 1171.8 221.64C1175.77 221.64 1178.99 218.42 1178.99 214.45C1178.99 210.48 1175.77 207.26 1171.8 207.26C1167.83 207.26 1164.61 210.48 1164.61 214.45Z" fill="url(#paint56_linear_671_23893)"/>
<g style="mix-blend-mode:screen">
<path d="M1217.37 301.85H1216.08V426.91H1217.37V301.85Z" fill="url(#paint57_linear_671_23893)"/>
</g>
<path d="M1209.53 301.85C1209.53 297.88 1212.75 294.66 1216.72 294.66C1220.69 294.66 1223.91 297.88 1223.91 301.85C1223.91 305.82 1220.69 309.04 1216.72 309.04C1212.75 309.04 1209.53 305.82 1209.53 301.85Z" fill="url(#paint58_linear_671_23893)"/>
<g style="mix-blend-mode:multiply" opacity="0.3">
<path opacity="0.09" d="M965.59 468.39C937.02 454.18 903.3 454.18 874.74 468.39C874.6 468.46 874.46 468.53 874.32 468.6C866.76 472.38 859.86 476.37 853.61 480.53C845.75 485.76 845.75 497.3 853.61 502.54C859.86 506.7 866.76 510.68 874.32 514.47C874.46 514.54 874.6 514.61 874.74 514.68C903.31 528.89 937.03 528.89 965.59 514.68C965.73 514.61 965.87 514.54 966.01 514.47C973.57 510.69 980.47 506.7 986.72 502.54C994.58 497.31 994.58 485.77 986.72 480.53C980.47 476.37 973.57 472.39 966.01 468.6C965.87 468.53 965.73 468.46 965.59 468.39Z" fill="#A7B1F2"/>
<path opacity="0.18" d="M969.1 466.64C940.53 452.43 906.81 452.43 878.25 466.64C878.11 466.71 877.97 466.78 877.83 466.85C870.27 470.63 863.37 474.62 857.12 478.78C849.26 484.01 849.26 495.55 857.12 500.79C863.37 504.95 870.27 508.93 877.83 512.72C877.97 512.79 878.11 512.86 878.25 512.93C906.82 527.14 940.54 527.14 969.1 512.93C969.24 512.86 969.38 512.79 969.52 512.72C977.08 508.94 983.98 504.95 990.23 500.79C998.09 495.56 998.09 484.02 990.23 478.78C983.98 474.62 977.08 470.64 969.52 466.85C969.38 466.78 969.24 466.71 969.1 466.64Z" fill="#A7B1F2"/>
<path opacity="0.27" d="M972.609 464.88C944.039 450.67 910.319 450.67 881.759 464.88C881.619 464.95 881.479 465.02 881.339 465.09C873.779 468.87 866.879 472.86 860.629 477.02C852.769 482.25 852.769 493.79 860.629 499.03C866.879 503.19 873.779 507.17 881.339 510.96C881.479 511.03 881.619 511.1 881.759 511.17C910.329 525.38 944.049 525.38 972.609 511.17C972.749 511.1 972.889 511.03 973.029 510.96C980.589 507.18 987.489 503.19 993.739 499.03C1001.6 493.8 1001.6 482.26 993.739 477.02C987.489 472.86 980.589 468.88 973.029 465.09C972.889 465.02 972.749 464.95 972.609 464.88Z" fill="#A7B1F2"/>
<path opacity="0.36" d="M976.109 463.13C947.539 448.92 913.819 448.92 885.259 463.13C885.119 463.2 884.979 463.27 884.839 463.34C877.279 467.12 870.379 471.11 864.129 475.27C856.269 480.5 856.269 492.04 864.129 497.28C870.379 501.44 877.279 505.42 884.839 509.21C884.979 509.28 885.119 509.35 885.259 509.42C913.829 523.63 947.549 523.63 976.109 509.42C976.249 509.35 976.389 509.28 976.529 509.21C984.089 505.43 990.989 501.44 997.239 497.28C1005.1 492.05 1005.1 480.51 997.239 475.27C990.989 471.11 984.089 467.13 976.529 463.34C976.389 463.27 976.249 463.2 976.109 463.13Z" fill="#A7B1F2"/>
<path opacity="0.45" d="M979.619 461.38C951.049 447.17 917.329 447.17 888.769 461.38C888.629 461.45 888.489 461.52 888.349 461.59C880.789 465.37 873.889 469.36 867.639 473.52C859.779 478.75 859.779 490.29 867.639 495.53C873.889 499.69 880.789 503.67 888.349 507.46C888.489 507.53 888.629 507.6 888.769 507.67C917.339 521.88 951.059 521.88 979.619 507.67C979.759 507.6 979.899 507.53 980.039 507.46C987.599 503.68 994.499 499.69 1000.75 495.53C1008.61 490.3 1008.61 478.76 1000.75 473.52C994.499 469.36 987.599 465.38 980.039 461.59C979.899 461.52 979.759 461.45 979.619 461.38Z" fill="#A7B1F2"/>
<path opacity="0.55" d="M983.129 459.62C954.559 445.41 920.839 445.41 892.279 459.62C892.139 459.69 891.999 459.76 891.859 459.83C884.299 463.61 877.399 467.6 871.149 471.76C863.289 476.99 863.289 488.53 871.149 493.77C877.399 497.93 884.299 501.91 891.859 505.7C891.999 505.77 892.139 505.84 892.279 505.91C920.849 520.12 954.569 520.12 983.129 505.91C983.269 505.84 983.409 505.77 983.549 505.7C991.109 501.92 998.009 497.93 1004.26 493.77C1012.12 488.54 1012.12 477 1004.26 471.76C998.009 467.6 991.109 463.62 983.549 459.83C983.409 459.76 983.269 459.69 983.129 459.62Z" fill="#A7B1F2"/>
<path opacity="0.64" d="M986.629 457.87C958.059 443.66 924.339 443.66 895.779 457.87C895.639 457.94 895.499 458.01 895.359 458.08C887.799 461.86 880.899 465.85 874.649 470.01C866.789 475.24 866.789 486.78 874.649 492.02C880.899 496.18 887.799 500.16 895.359 503.95C895.499 504.02 895.639 504.09 895.779 504.16C924.349 518.37 958.069 518.37 986.629 504.16C986.769 504.09 986.909 504.02 987.049 503.95C994.609 500.17 1001.51 496.18 1007.76 492.02C1015.62 486.79 1015.62 475.25 1007.76 470.01C1001.51 465.85 994.609 461.87 987.049 458.08C986.909 458.01 986.769 457.94 986.629 457.87Z" fill="#A7B1F2"/>
<path opacity="0.73" d="M990.141 456.12C961.571 441.91 927.851 441.91 899.291 456.12C899.151 456.19 899.011 456.26 898.871 456.33C891.311 460.11 884.411 464.1 878.161 468.26C870.301 473.49 870.301 485.03 878.161 490.27C884.411 494.43 891.311 498.41 898.871 502.2C899.011 502.27 899.151 502.34 899.291 502.41C927.861 516.62 961.581 516.62 990.141 502.41C990.281 502.34 990.421 502.27 990.561 502.2C998.121 498.42 1005.02 494.43 1011.27 490.27C1019.13 485.04 1019.13 473.5 1011.27 468.26C1005.02 464.1 998.121 460.12 990.561 456.33C990.421 456.26 990.281 456.19 990.141 456.12Z" fill="#A7B1F2"/>
<path opacity="0.82" d="M993.641 454.36C965.071 440.15 931.351 440.15 902.791 454.36C902.651 454.43 902.511 454.5 902.371 454.57C894.811 458.35 887.911 462.34 881.661 466.5C873.801 471.73 873.801 483.27 881.661 488.51C887.911 492.67 894.811 496.65 902.371 500.44C902.511 500.51 902.651 500.58 902.791 500.65C931.361 514.86 965.081 514.86 993.641 500.65C993.781 500.58 993.921 500.51 994.061 500.44C1001.62 496.66 1008.52 492.67 1014.77 488.51C1022.63 483.28 1022.63 471.74 1014.77 466.5C1008.52 462.34 1001.62 458.36 994.061 454.57C993.921 454.5 993.781 454.43 993.641 454.36Z" fill="#A7B1F2"/>
<path opacity="0.91" d="M997.15 452.61C968.58 438.4 934.86 438.4 906.3 452.61C906.16 452.68 906.02 452.75 905.88 452.82C898.32 456.6 891.42 460.59 885.17 464.75C877.31 469.98 877.31 481.52 885.17 486.76C891.42 490.92 898.32 494.9 905.88 498.69C906.02 498.76 906.16 498.83 906.3 498.9C934.87 513.11 968.59 513.11 997.15 498.9C997.29 498.83 997.43 498.76 997.57 498.69C1005.13 494.91 1012.03 490.92 1018.28 486.76C1026.14 481.53 1026.14 469.99 1018.28 464.75C1012.03 460.59 1005.13 456.61 997.57 452.82C997.43 452.75 997.29 452.68 997.15 452.61Z" fill="#A7B1F2"/>
<path d="M1000.66 450.86C972.09 436.65 938.37 436.65 909.81 450.86C909.67 450.93 909.53 451 909.39 451.07C901.83 454.85 894.93 458.84 888.68 463C880.82 468.23 880.82 479.77 888.68 485.01C894.93 489.17 901.83 493.15 909.39 496.94C909.53 497.01 909.67 497.08 909.81 497.15C938.38 511.36 972.1 511.36 1000.66 497.15C1000.8 497.08 1000.94 497.01 1001.08 496.94C1008.64 493.16 1015.54 489.17 1021.79 485.01C1029.65 479.78 1029.65 468.24 1021.79 463C1015.54 458.84 1008.64 454.86 1001.08 451.07C1000.94 451 1000.8 450.93 1000.66 450.86Z" fill="#A7B1F2"/>
</g>
<path d="M972.321 452.24L973.591 440.19L1011.05 449.41C1016.46 450.78 1016.4 460.46 1009.78 460.46H978.731C974.171 460.46 971.961 455.55 972.321 452.23V452.24Z" fill="#1E4ABF"/>
<path d="M942.381 458.11C945.401 459.52 946.631 463.4 944.251 467.3L932.331 493.13C931.071 496.08 928.131 497.84 924.801 496.81C921.461 495.78 920.221 491.87 920.961 487.75L925.411 461.47C925.651 456.91 928.861 454.41 932.151 454.94L942.381 458.11Z" fill="#1E4ABF"/>
<path d="M981.741 451.69C981.491 451.69 981.251 451.69 981.001 451.67C974.861 451.27 970.211 445.97 970.621 439.83L978.381 321.42C978.781 315.28 984.071 310.62 990.221 311.04C996.361 311.44 1001.01 316.74 1000.6 322.88L992.841 441.29C992.451 447.18 987.561 451.7 981.741 451.7V451.69Z" fill="#3176FF"/>
<path d="M935.56 470.67C934.79 470.67 934.01 470.59 933.23 470.42C927.21 469.14 923.37 463.22 924.65 457.21L950.64 335.09C951.92 329.07 957.84 325.24 963.85 326.51C969.87 327.79 973.71 333.71 972.43 339.72L946.44 461.84C945.33 467.07 940.7 470.66 935.56 470.66V470.67Z" fill="#3176FF"/>
<path d="M1002.22 306.26L999.491 335.57L950.871 353.15L951.011 315.1L1002.22 306.26Z" fill="#3176FF"/>
<path d="M1010.02 299.24C1009.34 299.24 1008.64 299.17 1007.94 299.02C999.131 297.14 993.541 284.22 992.631 263.58C992.491 260.51 994.871 257.91 997.951 257.77C1001.04 257.62 1003.62 260.01 1003.76 263.09C1004.46 278.82 1007.86 285.46 1009.62 287.49C1011.1 285 1014.27 284.05 1016.9 285.37C1019.65 286.75 1020.76 290.1 1019.37 292.85C1017.32 296.93 1013.85 299.25 1010.01 299.25L1010.02 299.24Z" fill="#42C8FF"/>
<path d="M998.33 257.59C984.24 257.44 969.92 259.57 955.3 264.63C950.66 266.24 946.68 272.66 947.32 276.93C949 288.04 950.95 306.62 950.95 321.58C950.95 330.73 977.07 327.13 1002.22 309.97C1002.22 290.94 1001.75 271.12 998.33 257.59Z" fill="#42C8FF"/>
<path d="M981.331 253.23L979.891 267.37L969.471 261.54L971.241 248.84L981.331 253.23Z" fill="#F3ABC7"/>
<path d="M985.88 251.44C985.67 253.07 983.06 255.21 980.16 253.6C979.18 253.05 971.21 249.02 971.21 249.02C971.21 249.02 968.71 240.42 972.32 236.9C973.97 235.29 982.71 236.36 984.35 237.99C986.74 240.35 986.33 247.81 985.87 251.45L985.88 251.44Z" fill="#F3ABC7"/>
<path d="M992.04 233.91C989.13 235.43 983.34 231.57 980.52 230.64C973.82 228.44 968.34 231.98 968.34 238.94C968.34 242.1 971.22 249.02 971.22 249.02C971.22 249.02 971.82 244.12 972.18 243.72C972.52 243.33 974.2 245.14 974.2 245.14C974.37 242.08 975.44 239.96 973.98 238.36C973.98 238.36 982.69 240.9 986.51 240.9C990.33 240.9 993.24 237.4 992.04 233.91Z" fill="#1E4ABF"/>
<path d="M1010.09 302.54L992.581 310.91C991.071 311.63 990.051 311.02 990.321 309.54L995.741 279.16C996.001 277.68 997.451 275.89 998.961 275.16L1016.47 266.79C1017.98 266.07 1019 266.68 1018.73 268.16L1013.31 298.54C1013.05 300.02 1011.6 301.81 1010.09 302.54Z" fill="url(#paint59_linear_671_23893)"/>
<path d="M1019.43 288.59C1019.73 292.03 1016.72 294.08 1014.14 294.62L1014.6 289.02C1013.86 287.85 1013.55 286.45 1013.72 285.07L1014.4 279.82L1017.23 281.19C1020.02 282.79 1020.55 284.99 1019.43 288.58V288.59Z" fill="#F3ABC7"/>
<path d="M962.761 322.79C956.671 322.79 952.541 320.39 950.651 318.99C938.431 309.94 938.011 289.04 949.651 269.3C951.211 266.65 954.631 265.77 957.281 267.33C959.931 268.89 960.811 272.31 959.251 274.96C949.981 290.66 951.011 305.39 957.281 310.04C963.431 314.59 974.771 309.48 986.171 297.03C988.251 294.76 991.771 294.61 994.041 296.69C996.311 298.77 996.461 302.29 994.381 304.56C981.161 318.99 970.421 322.8 962.761 322.8V322.79Z" fill="#42C8FF"/>
<path d="M992.8 288.43C993.06 287.95 993.62 287.74 994.13 287.93C994.67 288.13 994.95 288.72 994.78 289.27L993.72 292.59L995.67 290.37L999.5 287.9C999.97 287.6 1000.6 287.73 1000.91 288.2C1001.2 288.64 1001.11 289.24 1000.69 289.57L997.6 292.02L997.15 292.7L999.38 291.79L1000.34 298.55L999.04 299.96C999.04 299.96 996.73 302.34 994.72 304.11C993.56 305.13 991.79 305.02 990.74 303.88L987.74 300.6C986.88 299.66 986.75 298.26 987.42 297.17L992.81 288.44L992.8 288.43Z" fill="#F3ABC7"/>
<g style="mix-blend-mode:multiply">
<path opacity="0.09" d="M755.189 612.4L604.929 687.55C571.979 704.03 518.569 704.03 485.619 687.55C452.669 671.07 452.669 644.36 485.619 627.88L635.879 552.73C668.829 536.25 722.239 536.25 755.189 552.73C788.139 569.21 788.139 595.92 755.189 612.4Z" fill="#A7B1F2"/>
<path opacity="0.18" d="M762.79 608.6L612.53 683.75C579.58 700.23 526.17 700.23 493.22 683.75C460.27 667.27 460.27 640.56 493.22 624.08L643.48 548.93C676.43 532.45 729.84 532.45 762.79 548.93C795.74 565.41 795.74 592.12 762.79 608.6Z" fill="#A7B1F2"/>
<path opacity="0.27" d="M770.4 604.8L620.14 679.95C587.19 696.43 533.78 696.43 500.83 679.95C467.88 663.47 467.88 636.76 500.83 620.28L651.09 545.13C684.04 528.65 737.45 528.65 770.4 545.13C803.35 561.61 803.35 588.32 770.4 604.8Z" fill="#A7B1F2"/>
<path opacity="0.36" d="M777.999 600.99L627.739 676.14C594.789 692.62 541.379 692.62 508.429 676.14C475.479 659.66 475.479 632.95 508.429 616.47L658.689 541.32C691.639 524.84 745.049 524.84 777.999 541.32C810.949 557.8 810.949 584.51 777.999 600.99Z" fill="#A7B1F2"/>
<path opacity="0.45" d="M785.609 597.19L635.349 672.34C602.399 688.82 548.989 688.82 516.039 672.34C483.089 655.86 483.089 629.15 516.039 612.67L666.299 537.52C699.249 521.04 752.659 521.04 785.609 537.52C818.559 554 818.559 580.71 785.609 597.19Z" fill="#A7B1F2"/>
<path opacity="0.55" d="M793.21 593.39L642.95 668.54C610 685.02 556.59 685.02 523.64 668.54C490.69 652.06 490.69 625.35 523.64 608.87L673.9 533.72C706.85 517.24 760.26 517.24 793.21 533.72C826.16 550.2 826.16 576.91 793.21 593.39Z" fill="#A7B1F2"/>
<path opacity="0.64" d="M800.82 589.58L650.56 664.73C617.61 681.21 564.2 681.21 531.25 664.73C498.3 648.25 498.3 621.54 531.25 605.06L681.51 529.91C714.46 513.43 767.87 513.43 800.82 529.91C833.77 546.39 833.77 573.1 800.82 589.58Z" fill="#A7B1F2"/>
<path opacity="0.73" d="M808.419 585.78L658.159 660.93C625.209 677.41 571.799 677.41 538.849 660.93C505.899 644.45 505.899 617.74 538.849 601.26L689.109 526.11C722.059 509.63 775.469 509.63 808.419 526.11C841.369 542.59 841.369 569.3 808.419 585.78Z" fill="#A7B1F2"/>
<path opacity="0.82" d="M816.029 581.98L665.769 657.13C632.819 673.61 579.409 673.61 546.459 657.13C513.509 640.65 513.509 613.94 546.459 597.46L696.719 522.31C729.669 505.83 783.079 505.83 816.029 522.31C848.979 538.79 848.979 565.5 816.029 581.98Z" fill="#A7B1F2"/>
<path opacity="0.91" d="M823.63 578.17L673.37 653.32C640.42 669.8 587.01 669.8 554.06 653.32C521.11 636.84 521.11 610.13 554.06 593.65L704.32 518.5C737.27 502.02 790.68 502.02 823.63 518.5C856.58 534.98 856.58 561.69 823.63 578.17Z" fill="#A7B1F2"/>
<path d="M831.24 574.37L680.98 649.52C648.03 666 594.62 666 561.67 649.52C528.72 633.04 528.72 606.33 561.67 589.85L711.93 514.7C744.88 498.22 798.29 498.22 831.24 514.7C864.19 531.18 864.19 557.89 831.24 574.37Z" fill="#A7B1F2"/>
</g>
<path d="M540.628 606.6C540.408 606.68 540.188 606.82 539.968 606.93C507.318 623.26 480.848 610.03 480.848 577.38C480.848 544.73 507.318 505.02 539.968 488.69C541.898 487.72 543.798 486.88 545.688 486.11C542.418 478.17 540.618 468.82 540.618 458.13C540.618 405.89 582.958 342.38 635.188 316.26C687.428 290.14 729.758 311.3 729.758 363.54C729.758 366.2 729.628 368.91 729.408 371.62C735.358 367.05 741.568 363.02 748.008 359.8C787.518 340.04 819.548 356.05 819.548 395.57C819.548 435.09 787.518 483.13 748.008 502.89L540.628 606.6Z" fill="url(#paint60_linear_671_23893)"/>
<path d="M729.009 351.89C729.509 355.58 729.769 359.47 729.769 363.55C729.769 366.21 729.639 368.92 729.419 371.63C735.369 367.06 741.579 363.03 748.019 359.81C767.689 349.97 785.509 349.01 798.439 355.39L778.639 345.55C765.559 340.32 743.139 344.34 729.009 351.9V351.89ZM498.479 610.66C498.479 610.66 498.679 610.76 498.689 610.76C498.619 610.73 498.549 610.7 498.479 610.66ZM459.809 566.87C459.809 582.64 465.999 593.86 476.069 599.43L497.879 610.35C487.359 604.94 480.859 593.54 480.859 577.37C480.859 544.72 507.339 505.01 539.979 488.68C541.909 487.71 543.809 486.87 545.699 486.1C542.429 478.16 540.629 468.81 540.629 458.12C540.629 405.88 582.969 342.37 635.199 316.25C660.979 303.36 684.339 301.99 701.389 310.17C701.389 310.17 678.479 298.74 675.509 297.69C675.509 297.69 675.219 297.56 675.189 297.57C658.719 291.87 637.429 294.1 614.149 305.74C561.919 331.86 519.579 395.37 519.579 447.61C519.579 458.29 521.379 467.65 524.649 475.59C522.759 476.36 520.859 477.2 518.929 478.17C486.279 494.5 459.809 534.21 459.809 566.86V566.87Z" fill="url(#paint61_linear_671_23893)"/>
<path d="M583.778 628.18C583.558 628.26 583.338 628.4 583.118 628.51C550.468 644.84 523.998 631.61 523.998 598.96C523.998 566.31 550.468 526.6 583.118 510.27C585.048 509.3 586.948 508.46 588.838 507.69C585.568 499.75 583.768 490.4 583.768 479.71C583.768 427.47 626.108 363.96 678.338 337.84C730.578 311.72 772.908 332.88 772.908 385.12C772.908 387.78 772.778 390.49 772.558 393.2C778.508 388.63 784.718 384.6 791.158 381.38C830.668 361.62 862.698 377.63 862.698 417.15C862.698 456.67 830.668 504.71 791.158 524.47L583.778 628.18Z" fill="url(#paint62_linear_671_23893)"/>
<path d="M772.159 373.47C772.659 377.16 772.919 381.05 772.919 385.13C772.919 387.79 772.789 390.5 772.569 393.21C778.519 388.64 784.729 384.61 791.169 381.39C810.839 371.55 828.659 370.59 841.589 376.97L821.789 367.13C808.709 361.9 786.289 365.92 772.159 373.48V373.47ZM541.629 632.23C541.629 632.23 541.829 632.33 541.839 632.33C541.769 632.3 541.699 632.27 541.629 632.23ZM502.959 588.45C502.959 604.22 509.149 615.44 519.219 621.01L541.029 631.93C530.509 626.52 524.009 615.12 524.009 598.95C524.009 566.3 550.489 526.59 583.129 510.26C585.059 509.29 586.959 508.45 588.849 507.68C585.579 499.74 583.779 490.39 583.779 479.7C583.779 427.46 626.119 363.95 678.349 337.83C704.129 324.94 727.489 323.57 744.539 331.75C744.539 331.75 721.629 320.32 718.659 319.27C718.659 319.27 718.369 319.14 718.339 319.15C701.869 313.45 680.579 315.68 657.299 327.32C605.069 353.44 562.729 416.95 562.729 469.19C562.729 479.87 564.529 489.23 567.799 497.17C565.909 497.94 564.009 498.78 562.079 499.75C529.429 516.08 502.959 555.79 502.959 588.44V588.45Z" fill="url(#paint63_linear_671_23893)"/>
<path style="mix-blend-mode:hard-light" d="M626.921 649.75C626.701 649.83 626.481 649.97 626.261 650.08C593.611 666.41 567.141 653.18 567.141 620.53C567.141 587.88 593.611 548.17 626.261 531.84C628.191 530.87 630.091 530.03 631.981 529.26C628.711 521.32 626.911 511.97 626.911 501.28C626.911 449.04 669.251 385.53 721.481 359.41C773.721 333.29 816.051 354.45 816.051 406.69C816.051 409.35 815.921 412.06 815.701 414.77C821.651 410.2 827.861 406.17 834.301 402.95C873.811 383.19 905.841 399.2 905.841 438.72C905.841 478.24 873.811 526.28 834.301 546.04L626.921 649.75Z" fill="url(#paint64_linear_671_23893)"/>
<path d="M815.3 395.04C815.8 398.73 816.06 402.62 816.06 406.7C816.06 409.36 815.93 412.07 815.71 414.78C821.66 410.21 827.87 406.18 834.31 402.96C853.98 393.12 871.8 392.16 884.73 398.54L864.93 388.7C851.85 383.47 829.43 387.49 815.3 395.05V395.04ZM584.77 653.81C584.77 653.81 584.97 653.91 584.98 653.91C584.91 653.88 584.84 653.85 584.77 653.81ZM546.1 610.03C546.1 625.8 552.29 637.02 562.36 642.59L584.17 653.51C573.65 648.1 567.15 636.7 567.15 620.53C567.15 587.88 593.63 548.17 626.27 531.84C628.2 530.87 630.1 530.03 631.99 529.26C628.72 521.32 626.92 511.97 626.92 501.28C626.92 449.04 669.26 385.53 721.49 359.41C747.27 346.52 770.63 345.15 787.68 353.33C787.68 353.33 764.77 341.9 761.8 340.85C761.8 340.85 761.51 340.72 761.48 340.73C745.01 335.03 723.72 337.26 700.44 348.9C648.21 375.02 605.87 438.53 605.87 490.77C605.87 501.45 607.67 510.81 610.94 518.75C609.05 519.52 607.15 520.36 605.22 521.33C572.57 537.66 546.1 577.37 546.1 610.02V610.03Z" fill="url(#paint65_linear_671_23893)"/>
<g style="mix-blend-mode:multiply" opacity="0.3">
<path opacity="0.09" d="M761.68 990.87C733.11 976.66 699.39 976.66 670.83 990.87C670.69 990.94 670.55 991.01 670.41 991.08C662.85 994.86 655.95 998.85 649.7 1003.01C641.84 1008.24 641.84 1019.78 649.7 1025.02C655.95 1029.18 662.85 1033.16 670.41 1036.95C670.55 1037.02 670.69 1037.09 670.83 1037.16C699.4 1051.37 733.12 1051.37 761.68 1037.16C761.82 1037.09 761.96 1037.02 762.1 1036.95C769.66 1033.17 776.56 1029.18 782.81 1025.02C790.67 1019.79 790.67 1008.25 782.81 1003.01C776.56 998.85 769.66 994.87 762.1 991.08C761.96 991.01 761.82 990.94 761.68 990.87Z" fill="#A7B1F2"/>
<path opacity="0.18" d="M765.189 989.12C736.619 974.91 702.899 974.91 674.339 989.12C674.199 989.19 674.059 989.26 673.919 989.33C666.359 993.11 659.459 997.1 653.209 1001.26C645.349 1006.49 645.349 1018.03 653.209 1023.27C659.459 1027.43 666.359 1031.41 673.919 1035.2C674.059 1035.27 674.199 1035.34 674.339 1035.41C702.909 1049.62 736.629 1049.62 765.189 1035.41C765.329 1035.34 765.469 1035.27 765.609 1035.2C773.169 1031.42 780.069 1027.43 786.319 1023.27C794.179 1018.04 794.179 1006.5 786.319 1001.26C780.069 997.1 773.169 993.12 765.609 989.33C765.469 989.26 765.329 989.19 765.189 989.12Z" fill="#A7B1F2"/>
<path opacity="0.27" d="M768.699 987.37C740.129 973.16 706.409 973.16 677.849 987.37C677.709 987.44 677.569 987.51 677.429 987.58C669.869 991.36 662.969 995.35 656.719 999.51C648.859 1004.74 648.859 1016.28 656.719 1021.52C662.969 1025.68 669.869 1029.66 677.429 1033.45C677.569 1033.52 677.709 1033.59 677.849 1033.66C706.419 1047.87 740.139 1047.87 768.699 1033.66C768.839 1033.59 768.979 1033.52 769.119 1033.45C776.679 1029.67 783.579 1025.68 789.829 1021.52C797.689 1016.29 797.689 1004.75 789.829 999.51C783.579 995.35 776.679 991.37 769.119 987.58C768.979 987.51 768.839 987.44 768.699 987.37Z" fill="#A7B1F2"/>
<path opacity="0.36" d="M772.199 985.61C743.629 971.4 709.909 971.4 681.349 985.61C681.209 985.68 681.069 985.75 680.929 985.82C673.369 989.6 666.469 993.59 660.219 997.75C652.359 1002.98 652.359 1014.52 660.219 1019.76C666.469 1023.92 673.369 1027.9 680.929 1031.69C681.069 1031.76 681.209 1031.83 681.349 1031.9C709.919 1046.11 743.639 1046.11 772.199 1031.9C772.339 1031.83 772.479 1031.76 772.619 1031.69C780.179 1027.91 787.079 1023.92 793.329 1019.76C801.189 1014.53 801.189 1002.99 793.329 997.75C787.079 993.59 780.189 989.61 772.619 985.82C772.479 985.75 772.339 985.68 772.199 985.61Z" fill="#A7B1F2"/>
<path opacity="0.45" d="M775.709 983.86C747.139 969.65 713.419 969.65 684.859 983.86C684.719 983.93 684.579 984 684.439 984.07C676.879 987.85 669.979 991.84 663.729 996C655.869 1001.23 655.869 1012.77 663.729 1018.01C669.979 1022.17 676.879 1026.15 684.439 1029.94C684.579 1030.01 684.719 1030.08 684.859 1030.15C713.429 1044.36 747.149 1044.36 775.709 1030.15C775.849 1030.08 775.989 1030.01 776.129 1029.94C783.689 1026.16 790.589 1022.17 796.839 1018.01C804.699 1012.78 804.699 1001.24 796.839 996C790.589 991.84 783.689 987.86 776.129 984.07C775.989 984 775.849 983.93 775.709 983.86Z" fill="#A7B1F2"/>
<path opacity="0.55" d="M779.219 982.11C750.649 967.9 716.929 967.9 688.369 982.11C688.229 982.18 688.089 982.25 687.949 982.32C680.389 986.1 673.489 990.09 667.239 994.25C659.379 999.48 659.379 1011.02 667.239 1016.26C673.489 1020.42 680.389 1024.4 687.949 1028.19C688.089 1028.26 688.229 1028.33 688.369 1028.4C716.939 1042.61 750.659 1042.61 779.219 1028.4C779.359 1028.33 779.499 1028.26 779.639 1028.19C787.199 1024.41 794.099 1020.42 800.349 1016.26C808.209 1011.03 808.209 999.49 800.349 994.25C794.099 990.09 787.199 986.11 779.639 982.32C779.499 982.25 779.359 982.18 779.219 982.11Z" fill="#A7B1F2"/>
<path opacity="0.64" d="M782.719 980.35C754.149 966.14 720.429 966.14 691.869 980.35C691.729 980.42 691.589 980.49 691.449 980.56C683.889 984.34 676.989 988.33 670.739 992.49C662.879 997.72 662.879 1009.26 670.739 1014.5C676.989 1018.66 683.889 1022.64 691.449 1026.43C691.589 1026.5 691.729 1026.57 691.869 1026.64C720.439 1040.85 754.159 1040.85 782.719 1026.64C782.859 1026.57 782.999 1026.5 783.139 1026.43C790.699 1022.65 797.599 1018.66 803.849 1014.5C811.709 1009.27 811.709 997.73 803.849 992.49C797.599 988.33 790.699 984.35 783.139 980.56C782.999 980.49 782.859 980.42 782.719 980.35Z" fill="#A7B1F2"/>
<path opacity="0.73" d="M786.23 978.6C757.66 964.39 723.94 964.39 695.38 978.6C695.24 978.67 695.1 978.74 694.96 978.81C687.4 982.59 680.5 986.58 674.25 990.74C666.39 995.97 666.39 1007.51 674.25 1012.75C680.5 1016.91 687.4 1020.89 694.96 1024.68C695.1 1024.75 695.24 1024.82 695.38 1024.89C723.95 1039.1 757.67 1039.1 786.23 1024.89C786.37 1024.82 786.51 1024.75 786.65 1024.68C794.21 1020.9 801.11 1016.91 807.36 1012.75C815.22 1007.52 815.22 995.98 807.36 990.74C801.11 986.58 794.22 982.6 786.65 978.81C786.51 978.74 786.37 978.67 786.23 978.6Z" fill="#A7B1F2"/>
<path opacity="0.82" d="M789.73 976.84C761.16 962.63 727.44 962.63 698.88 976.84C698.74 976.91 698.6 976.98 698.46 977.05C690.9 980.83 684 984.82 677.75 988.98C669.89 994.21 669.89 1005.75 677.75 1010.99C684 1015.15 690.9 1019.13 698.46 1022.92C698.6 1022.99 698.74 1023.06 698.88 1023.13C727.45 1037.34 761.17 1037.34 789.73 1023.13C789.87 1023.06 790.01 1022.99 790.15 1022.92C797.71 1019.14 804.61 1015.15 810.86 1010.99C818.72 1005.76 818.72 994.22 810.86 988.98C804.61 984.82 797.72 980.84 790.15 977.05C790.01 976.98 789.87 976.91 789.73 976.84Z" fill="#A7B1F2"/>
<path opacity="0.91" d="M793.24 975.09C764.67 960.88 730.95 960.88 702.39 975.09C702.25 975.16 702.11 975.23 701.97 975.3C694.41 979.08 687.51 983.07 681.26 987.23C673.4 992.46 673.4 1004 681.26 1009.24C687.51 1013.4 694.41 1017.38 701.97 1021.17C702.11 1021.24 702.25 1021.31 702.39 1021.38C730.96 1035.59 764.68 1035.59 793.24 1021.38C793.38 1021.31 793.52 1021.24 793.66 1021.17C801.22 1017.39 808.12 1013.4 814.37 1009.24C822.23 1004.01 822.23 992.47 814.37 987.23C808.12 983.07 801.23 979.09 793.66 975.3C793.52 975.23 793.38 975.16 793.24 975.09Z" fill="#A7B1F2"/>
<path d="M796.75 973.34C768.18 959.13 734.46 959.13 705.9 973.34C705.76 973.41 705.62 973.48 705.48 973.55C697.92 977.33 691.02 981.32 684.77 985.48C676.91 990.71 676.91 1002.25 684.77 1007.49C691.02 1011.65 697.92 1015.63 705.48 1019.42C705.62 1019.49 705.76 1019.56 705.9 1019.63C734.47 1033.84 768.19 1033.84 796.75 1019.63C796.89 1019.56 797.03 1019.49 797.17 1019.42C804.73 1015.64 811.63 1011.65 817.88 1007.49C825.74 1002.26 825.74 990.72 817.88 985.48C811.63 981.32 804.74 977.34 797.17 973.55C797.03 973.48 796.89 973.41 796.75 973.34Z" fill="#A7B1F2"/>
</g>
<path d="M755.589 1003.15C754.329 1000.26 750.699 999 746.949 1001.14L722.209 1011.74C719.389 1012.85 717.649 1015.59 718.539 1018.77C719.429 1021.96 723.089 1023.23 727.009 1022.64L751.979 1019.11C756.299 1019 758.749 1016.03 758.329 1012.91L755.599 1003.15H755.589Z" fill="#1E4ABF"/>
<path d="M752.83 1018.83C747.89 1018.83 743.49 1015.34 742.5 1010.32C741.38 1004.61 745.1 999.07 750.81 997.95C758.43 996.46 765.58 995.16 771.89 994.02C782.36 992.13 793.81 990.05 800.83 988C792.64 983.55 777.96 977.46 763.51 972.74C757.98 970.93 754.96 964.98 756.77 959.45C758.58 953.92 764.53 950.9 770.06 952.71C770.58 952.88 783.03 956.96 795.69 962.3C818.47 971.91 826.94 978.98 826.94 988.38C826.94 1001.71 812.93 1006.23 808.33 1007.71C800.34 1010.29 789.45 1012.26 775.65 1014.76C769.41 1015.89 762.34 1017.17 754.87 1018.63C754.19 1018.76 753.5 1018.83 752.83 1018.83Z" fill="#3176FF"/>
<path d="M755.079 986.66C755.569 983.54 758.779 981.41 762.939 982.55L789.549 986.62C792.559 986.99 794.929 989.2 794.859 992.5C794.799 995.81 791.569 997.96 787.629 998.36L762.569 1001.2C758.359 1002.17 755.239 999.92 754.869 996.79L755.069 986.66H755.079Z" fill="#1E4ABF"/>
<path d="M714.349 1006.12C701.989 1006.12 694.039 1004.4 688.979 999.83C685.689 996.85 683.869 992.79 683.869 988.39C683.869 978.99 692.339 971.92 715.119 962.31C727.779 956.97 740.229 952.89 740.749 952.72C746.279 950.92 752.229 953.93 754.039 959.46C755.849 964.99 752.829 970.94 747.299 972.75C735.849 976.49 724.259 981.09 715.869 985.05C727.369 984.84 743.719 983.19 756.919 981.87C762.709 981.28 767.879 985.51 768.459 991.3C769.039 997.09 764.819 1002.26 759.029 1002.84C739.909 1004.76 725.379 1006.13 714.359 1006.13L714.349 1006.12Z" fill="#3176FF"/>
<path d="M738.979 935.66L732.279 948.07C730.909 950.6 730.189 953.44 730.189 956.32V966.28C730.189 970.25 733.399 973.46 737.369 973.46H773.439C777.409 973.46 780.619 970.25 780.619 966.28V956.68C780.619 953.57 779.789 950.53 778.209 947.85L771.009 935.67H738.989L738.979 935.66Z" fill="#3176FF"/>
<path d="M771 935.66L773.109 899.47C773.109 893.94 766.85 890.34 755.58 890.34C744.3 890.34 738.02 893.93 738.02 899.47L738.979 935.66H771Z" fill="#42C8FF"/>
<path d="M778.429 953.89C776.149 953.89 774.049 952.4 773.379 950.1C772.559 947.31 774.169 944.38 776.959 943.56C787.739 940.41 793.999 936.34 794.579 932.1C795.009 929.01 793.089 920 766.189 903.2C763.719 901.66 762.969 898.41 764.509 895.94C766.049 893.47 769.299 892.72 771.769 894.26C795.719 909.21 806.589 922.06 805.009 933.53C803.769 942.5 795.559 949.08 779.899 953.66C779.409 953.8 778.909 953.87 778.419 953.87L778.429 953.89Z" fill="#42C8FF"/>
<path d="M765.999 951.56C766.219 952.02 766.769 952.22 767.229 952.03L770.059 950.88L768.269 952.73L766.419 956.25C766.189 956.68 766.359 957.22 766.799 957.46C767.219 957.69 773.569 958.62 773.569 958.62C773.949 958.71 774.339 958.55 774.539 958.22L775.539 956.58L779.799 951.72C780.629 950.74 780.489 949.26 779.479 948.42L777.529 946.79L776.999 946.35C775.639 945.21 774.279 945.2 772.399 946.48L766.329 950.37C765.929 950.63 765.789 951.14 765.999 951.57V951.56Z" fill="#F3ABC7"/>
<path d="M732.689 953.89C732.199 953.89 731.699 953.82 731.209 953.68C715.549 949.1 707.339 942.52 706.099 933.55C704.519 922.08 715.389 909.23 739.339 894.28C741.799 892.74 745.059 893.49 746.599 895.96C748.139 898.43 747.389 901.68 744.919 903.22C718.019 920.01 716.109 929.02 716.529 932.12C717.109 936.36 723.369 940.42 734.149 943.58C736.939 944.4 738.549 947.32 737.729 950.12C737.059 952.42 734.959 953.91 732.679 953.91L732.689 953.89Z" fill="#42C8FF"/>
<path d="M745.13 951.56C744.91 952.02 744.36 952.22 743.9 952.03L741.07 950.88L742.86 952.73L744.71 956.25C744.94 956.68 744.77 957.22 744.33 957.46C743.91 957.69 737.56 958.62 737.56 958.62C737.18 958.71 736.79 958.55 736.59 958.22L735.59 956.58L731.33 951.72C730.5 950.74 730.64 949.26 731.65 948.42L733.6 946.79L734.13 946.35C735.49 945.21 736.85 945.2 738.73 946.48L744.8 950.37C745.2 950.63 745.34 951.14 745.13 951.57V951.56Z" fill="#F3ABC7"/>
<path d="M778.079 888.95L759.769 870.64L743.219 869.78V883.95C743.219 886.06 744.059 888.09 745.549 889.58C747.039 891.07 749.069 891.91 751.179 891.91H759.879C762.909 895.31 762.799 900.52 759.539 903.78L757.639 905.68H770.339C772.909 905.68 775.349 904.54 776.989 902.57L778.599 900.64C781.469 897.2 781.239 892.14 778.069 888.97L778.079 888.95Z" fill="#1E4ABF"/>
<path d="M758.35 879.07H751.93L751.26 893.88C751.26 895.94 759.41 895.94 759.41 893.88L758.34 879.07H758.35Z" fill="#F3ABC7"/>
<path d="M755.209 868.21C751.509 868.21 747.359 870.66 747.359 878.13C747.359 881.55 751.429 888.51 755.209 888.51C758.989 888.51 763.059 881.54 763.059 878.13C763.059 870.66 758.899 868.21 755.209 868.21Z" fill="#F3ABC7"/>
<path d="M751.768 866.43C751.768 870.08 748.808 873.03 745.168 873.03C741.528 873.03 738.568 870.07 738.568 866.43C738.568 862.79 741.528 859.83 745.168 859.83C748.808 859.83 751.768 862.79 751.768 866.43Z" fill="#1E4ABF"/>
<path d="M764.08 868.78C762.75 865.62 759.95 862.57 752.72 863.79C748.61 864.48 745.17 867.17 745.17 871.34C745.17 875.09 747.36 878.2 747.36 878.2C747.36 878.2 747.59 875.15 749.01 873.57C753.27 868.83 754.72 877.68 764.48 879.77C764.48 879.77 765.4 871.93 764.08 868.78Z" fill="#1E4ABF"/>
<path d="M783.549 933.61H727.569C724.249 933.61 721.759 936.64 722.389 939.89L727.119 964.26C727.599 966.74 729.769 968.53 732.299 968.53H778.819C781.349 968.53 783.519 966.74 783.999 964.26L788.729 939.89C789.359 936.63 786.869 933.61 783.549 933.61Z" fill="#E3E5F9"/>
<path d="M762.149 951.08C762.149 953.99 759.199 956.34 755.559 956.34C751.919 956.34 748.969 953.98 748.969 951.08C748.969 948.18 751.919 945.82 755.559 945.82C759.199 945.82 762.149 948.18 762.149 951.08Z" fill="white"/>
<path d="M778.76 186.02C778.76 171.22 790.8 153.16 805.6 145.76C820.4 138.36 832.44 144.38 832.44 159.18C832.44 173.98 820.4 192.04 805.6 199.44C790.8 206.84 778.76 200.82 778.76 186.02ZM782.38 184.2C782.38 197 792.8 202.21 805.6 195.81C818.4 189.41 828.82 173.78 828.82 160.98C828.82 148.18 818.4 142.97 805.6 149.37C792.8 155.77 782.38 171.4 782.38 184.2Z" fill="#E3E5F9"/>
<path d="M805.601 203.05C822.401 194.65 836.061 174.15 836.061 157.36C836.061 140.57 822.401 133.73 805.601 142.13V152.99C816.411 147.59 825.201 151.98 825.201 162.79C825.201 173.6 816.411 186.78 805.601 192.19C794.791 197.59 786.001 193.2 786.001 182.39L775.141 187.82C775.141 204.62 788.801 211.45 805.601 203.05Z" fill="#BCC9F8"/>
<path d="M819.762 165.51L841.492 154.64C841.492 134.85 825.392 126.8 805.602 136.7V158.43C813.412 154.52 819.762 157.7 819.762 165.51Z" fill="#42C8FF"/>
<path d="M772.42 289.39C772.42 269.6 788.52 245.44 808.31 235.55C828.1 225.65 844.2 233.7 844.2 253.49C844.2 273.28 828.1 297.44 808.31 307.33C788.52 317.23 772.42 309.18 772.42 289.39ZM794.15 278.53C794.15 286.34 800.5 289.52 808.31 285.61C816.12 281.7 822.47 272.17 822.47 264.36C822.47 256.55 816.12 253.37 808.31 257.28C800.5 261.19 794.15 270.72 794.15 278.53Z" fill="#42C8FF"/>
<path d="M808.31 301.9C825.11 293.5 838.77 273 838.77 256.21C838.77 239.42 825.11 232.58 808.31 240.98V251.84C819.12 246.44 827.91 250.83 827.91 261.64C827.91 272.45 819.12 285.63 808.31 291.04C797.5 296.44 788.71 292.05 788.71 281.24L777.85 286.67C777.85 303.47 791.51 310.3 808.31 301.9Z" fill="#E3E5F9"/>
<path d="M831.531 259.83L835.151 258.02C835.151 243.22 823.111 237.2 808.311 244.6V248.22C821.111 241.82 831.531 247.02 831.531 259.83Z" fill="#3176FF"/>
<path d="M781.471 76.2202C781.471 61.4202 793.511 43.3602 808.311 35.9602C823.111 28.5602 835.151 34.5802 835.151 49.3802C835.151 64.1802 823.111 82.2402 808.311 89.6402C793.511 97.0402 781.471 91.0202 781.471 76.2202ZM785.091 74.4102C785.091 87.2102 795.511 92.4202 808.311 86.0202C821.111 79.6202 831.531 63.9902 831.531 51.1902C831.531 38.3902 821.111 33.1802 808.311 39.5802C795.511 45.9802 785.091 61.6102 785.091 74.4102Z" fill="#E3E5F9"/>
<path d="M808.31 98.6901C828.1 88.7901 844.2 64.6401 844.2 44.8501L822.47 55.7201C822.47 63.5301 816.12 73.0601 808.31 76.9701C800.5 80.8801 794.15 77.7001 794.15 69.8901L772.42 80.7601C772.42 100.55 788.52 108.6 808.31 98.7001V98.6901Z" fill="#42C8FF"/>
<path d="M827.911 52.9901L838.771 47.5601C838.771 30.7601 825.111 23.9301 808.311 32.3301V43.1901C819.121 37.7901 827.911 42.1801 827.911 52.9901Z" fill="#BCC9F8"/>
<path d="M910.818 206.084L852.725 235.838L854.092 238.508L912.186 208.754L910.818 206.084Z" fill="#B4C1F3"/>
<path d="M910.809 215.705L852.715 245.459L854.082 248.129L912.176 218.375L910.809 215.705Z" fill="#B4C1F3"/>
<path d="M910.813 225.345L852.719 255.099L854.086 257.769L912.18 228.016L910.813 225.345Z" fill="#B4C1F3"/>
<path d="M910.818 234.995L852.725 264.749L854.092 267.419L912.186 237.666L910.818 234.995Z" fill="#B4C1F3"/>
<path d="M889.048 255.787L853.535 273.976L854.903 276.646L890.416 258.458L889.048 255.787Z" fill="#B4C1F3"/>
<path d="M910.809 103.017L852.715 132.771L854.082 135.441L912.176 105.687L910.809 103.017Z" fill="#B4C1F3"/>
<path d="M910.803 112.657L852.709 142.411L854.077 145.081L912.17 115.328L910.803 112.657Z" fill="#B4C1F3"/>
<path d="M910.807 122.287L852.713 152.041L854.08 154.711L912.174 124.958L910.807 122.287Z" fill="#B4C1F3"/>
<path d="M910.813 131.917L852.719 161.671L854.086 164.341L912.18 134.587L910.813 131.917Z" fill="#B4C1F3"/>
<path d="M889.031 152.719L853.518 170.908L854.885 173.578L890.398 155.389L889.031 152.719Z" fill="#B4C1F3"/>
<path d="M910.805 -0.0505516L852.711 29.7031L854.079 32.3733L912.172 2.61961L910.805 -0.0505516Z" fill="#B4C1F3"/>
<path d="M910.799 9.5891L852.705 39.3428L854.073 42.0129L912.166 12.2593L910.799 9.5891Z" fill="#B4C1F3"/>
<path d="M910.803 19.2292L852.709 48.9829L854.077 51.6531L912.17 21.8994L910.803 19.2292Z" fill="#B4C1F3"/>
<path d="M910.809 28.8596L852.715 58.6133L854.082 61.2834L912.176 31.5298L910.809 28.8596Z" fill="#B4C1F3"/>
<path d="M889.027 49.6415L853.514 67.8301L854.881 70.5002L890.394 52.3116L889.027 49.6415Z" fill="#B4C1F3"/>
<g style="mix-blend-mode:multiply">
<path opacity="0.09" d="M204.14 950.78L285.44 991.44C288.96 993.2 294.66 993.2 298.17 991.44L318.13 981.46C321.65 979.7 321.65 976.85 318.13 975.09L236.83 934.43C233.31 932.67 227.61 932.67 224.1 934.43L204.14 944.41C200.62 946.17 200.62 949.02 204.14 950.78Z" fill="#B4C1F3"/>
<path opacity="0.18" d="M206.779 949.46L288.079 990.12C291.599 991.88 297.299 991.88 300.809 990.12L320.769 980.14C324.289 978.38 324.289 975.53 320.769 973.77L239.469 933.11C235.949 931.35 230.249 931.35 226.739 933.11L206.779 943.09C203.259 944.85 203.259 947.7 206.779 949.46Z" fill="#B4C1F3"/>
<path opacity="0.27" d="M209.429 948.14L290.729 988.8C294.249 990.56 299.949 990.56 303.459 988.8L323.419 978.82C326.939 977.06 326.939 974.21 323.419 972.45L242.119 931.79C238.599 930.03 232.899 930.03 229.389 931.79L209.429 941.77C205.909 943.53 205.909 946.38 209.429 948.14Z" fill="#B4C1F3"/>
<path opacity="0.36" d="M212.07 946.81L293.37 987.47C296.89 989.23 302.59 989.23 306.1 987.47L326.06 977.49C329.58 975.73 329.58 972.88 326.06 971.12L244.76 930.46C241.24 928.7 235.54 928.7 232.03 930.46L212.07 940.44C208.55 942.2 208.55 945.05 212.07 946.81Z" fill="#B4C1F3"/>
<path opacity="0.45" d="M214.72 945.49L296.02 986.15C299.54 987.91 305.24 987.91 308.75 986.15L328.71 976.17C332.23 974.41 332.23 971.56 328.71 969.8L247.41 929.14C243.89 927.38 238.19 927.38 234.68 929.14L214.72 939.12C211.2 940.88 211.2 943.73 214.72 945.49Z" fill="#B4C1F3"/>
<path opacity="0.55" d="M217.359 944.17L298.659 984.83C302.179 986.59 307.879 986.59 311.389 984.83L331.349 974.85C334.869 973.09 334.869 970.24 331.349 968.48L250.049 927.82C246.529 926.06 240.829 926.06 237.319 927.82L217.359 937.8C213.839 939.56 213.839 942.41 217.359 944.17Z" fill="#B4C1F3"/>
<path opacity="0.64" d="M220.009 942.84L301.309 983.5C304.829 985.26 310.529 985.26 314.039 983.5L333.999 973.52C337.519 971.76 337.519 968.91 333.999 967.15L252.699 926.49C249.179 924.73 243.479 924.73 239.969 926.49L220.009 936.47C216.489 938.23 216.489 941.08 220.009 942.84Z" fill="#B4C1F3"/>
<path opacity="0.73" d="M222.66 941.52L303.96 982.18C307.48 983.94 313.18 983.94 316.69 982.18L336.65 972.2C340.17 970.44 340.17 967.59 336.65 965.83L255.35 925.17C251.83 923.41 246.13 923.41 242.62 925.17L222.66 935.15C219.14 936.91 219.14 939.76 222.66 941.52Z" fill="#B4C1F3"/>
<path opacity="0.82" d="M225.3 940.2L306.6 980.86C310.12 982.62 315.82 982.62 319.33 980.86L339.29 970.88C342.81 969.12 342.81 966.27 339.29 964.51L257.99 923.85C254.47 922.09 248.77 922.09 245.26 923.85L225.3 933.83C221.78 935.59 221.78 938.44 225.3 940.2Z" fill="#B4C1F3"/>
<path opacity="0.91" d="M227.951 938.87L309.251 979.53C312.771 981.29 318.471 981.29 321.981 979.53L341.941 969.55C345.461 967.79 345.461 964.94 341.941 963.18L260.641 922.52C257.121 920.76 251.421 920.76 247.911 922.52L227.951 932.5C224.431 934.26 224.431 937.11 227.951 938.87Z" fill="#B4C1F3"/>
<path d="M230.589 937.55L311.889 978.21C315.409 979.97 321.109 979.97 324.619 978.21L344.579 968.23C348.099 966.47 348.099 963.62 344.579 961.86L263.279 921.2C259.759 919.44 254.059 919.44 250.549 921.2L230.589 931.18C227.069 932.94 227.069 935.79 230.589 937.55Z" fill="#B4C1F3"/>
</g>
<path d="M219.84 903.84V917.91C219.84 925.31 225.84 934.3 233.23 938L313.6 978.19C317.52 980.15 321.04 980.23 323.49 978.77L429.79 925.61C430.09 925.49 430.37 925.34 430.65 925.18C432.83 923.89 434.15 921.38 434.15 917.9V903.83H219.84V903.84Z" fill="url(#paint66_linear_671_23893)"/>
<path d="M430.119 878.87L341.719 834.66C337.539 832.57 333.759 832.43 331.079 833.89L213.669 892.61C213.519 892.68 213.369 892.75 213.219 892.83C210.689 894.21 209.129 897.02 209.129 900.97C209.129 909.11 215.729 919 223.859 923.07L312.259 967.28C316.569 969.44 320.449 969.52 323.139 967.92L440.059 909.45C440.389 909.31 440.699 909.16 440.999 908.98C443.389 907.56 444.849 904.8 444.849 900.97C444.849 892.83 438.249 882.94 430.119 878.87Z" fill="url(#paint67_linear_671_23893)"/>
<path d="M312.259 967.27L223.859 923.06C215.719 918.99 209.129 909.1 209.129 900.96C209.129 892.82 215.729 889.53 223.859 893.6L312.259 937.81C320.399 941.88 326.989 951.77 326.989 959.91C326.989 968.05 320.389 971.34 312.259 967.27Z" fill="#BBC9F8"/>
<path d="M261.369 922.83C258.369 921.33 255.939 922.55 255.939 925.55C255.939 928.55 258.369 932.2 261.369 933.7C264.369 935.2 266.799 933.98 266.799 930.98C266.799 927.98 264.369 924.33 261.369 922.83ZM242.509 913.4C239.509 911.9 237.079 913.12 237.079 916.12C237.079 919.12 239.509 922.77 242.509 924.27C245.509 925.77 247.939 924.55 247.939 921.55C247.939 918.55 245.509 914.9 242.509 913.4ZM223.659 903.97C220.659 902.47 218.229 903.69 218.229 906.69C218.229 909.69 220.659 913.34 223.659 914.84C226.659 916.34 229.089 915.12 229.089 912.12C229.089 909.12 226.659 905.47 223.659 903.97Z" fill="#75A4FF"/>
<path d="M219.84 854.97V869.04C219.84 876.44 225.84 885.43 233.23 889.13L313.6 929.32C317.52 931.28 321.04 931.36 323.49 929.9L429.79 876.74C430.09 876.62 430.37 876.47 430.65 876.31C432.83 875.02 434.15 872.51 434.15 869.03V854.96H219.84V854.97Z" fill="url(#paint68_linear_671_23893)"/>
<path d="M430.119 830L341.719 785.79C337.539 783.7 333.759 783.56 331.079 785.02L213.669 843.74C213.519 843.81 213.369 843.88 213.219 843.96C210.689 845.34 209.129 848.15 209.129 852.1C209.129 860.24 215.729 870.13 223.859 874.2L312.259 918.41C316.569 920.57 320.449 920.65 323.139 919.05L440.059 860.58C440.389 860.44 440.699 860.29 440.999 860.11C443.389 858.69 444.849 855.93 444.849 852.1C444.849 843.96 438.249 834.07 430.119 830Z" fill="url(#paint69_linear_671_23893)"/>
<path d="M312.259 918.41L223.859 874.2C215.719 870.13 209.129 860.24 209.129 852.1C209.129 843.96 215.729 840.67 223.859 844.74L312.259 888.95C320.399 893.02 326.989 902.91 326.989 911.05C326.989 919.19 320.389 922.48 312.259 918.41Z" fill="#BBC9F8"/>
<path d="M261.369 873.961C258.369 872.461 255.939 873.681 255.939 876.681C255.939 879.681 258.369 883.331 261.369 884.831C264.369 886.331 266.799 885.111 266.799 882.111C266.799 879.111 264.369 875.461 261.369 873.961ZM242.509 864.531C239.509 863.031 237.079 864.251 237.079 867.251C237.079 870.251 239.509 873.901 242.509 875.401C245.509 876.901 247.939 875.681 247.939 872.681C247.939 869.681 245.509 866.031 242.509 864.531ZM223.659 855.101C220.659 853.601 218.229 854.821 218.229 857.821C218.229 860.821 220.659 864.471 223.659 865.971C226.659 867.471 229.089 866.251 229.089 863.251C229.089 860.251 226.659 856.601 223.659 855.101Z" fill="#75A4FF"/>
<path d="M219.84 806.1V820.17C219.84 827.57 225.84 836.56 233.23 840.26L313.6 880.45C317.52 882.41 321.04 882.49 323.49 881.03L429.79 827.87C430.09 827.75 430.37 827.6 430.65 827.44C432.83 826.15 434.15 823.64 434.15 820.16V806.09H219.84V806.1Z" fill="url(#paint70_linear_671_23893)"/>
<path d="M430.119 781.13L341.719 736.92C337.539 734.83 333.759 734.69 331.079 736.15L213.669 794.87C213.519 794.94 213.369 795.01 213.219 795.09C210.689 796.47 209.129 799.28 209.129 803.23C209.129 811.37 215.729 821.26 223.859 825.33L312.259 869.54C316.569 871.7 320.449 871.78 323.139 870.18L440.059 811.71C440.389 811.57 440.699 811.42 440.999 811.24C443.389 809.82 444.849 807.06 444.849 803.23C444.849 795.09 438.249 785.2 430.119 781.13Z" fill="url(#paint71_linear_671_23893)"/>
<path d="M312.259 869.54L223.859 825.33C215.719 821.26 209.129 811.37 209.129 803.23C209.129 795.09 215.729 791.8 223.859 795.87L312.259 840.08C320.399 844.15 326.989 854.04 326.989 862.18C326.989 870.32 320.389 873.61 312.259 869.54Z" fill="#BBC9F8"/>
<path d="M261.369 825.091C258.369 823.591 255.939 824.811 255.939 827.811C255.939 830.811 258.369 834.461 261.369 835.961C264.369 837.461 266.799 836.241 266.799 833.241C266.799 830.241 264.369 826.591 261.369 825.091ZM242.509 815.661C239.509 814.161 237.079 815.381 237.079 818.381C237.079 821.381 239.509 825.031 242.509 826.531C245.509 828.031 247.939 826.811 247.939 823.811C247.939 820.811 245.509 817.161 242.509 815.661ZM223.659 806.231C220.659 804.731 218.229 805.951 218.229 808.951C218.229 811.951 220.659 815.601 223.659 817.101C226.659 818.601 229.089 817.381 229.089 814.381C229.089 811.381 226.659 807.731 223.659 806.231Z" fill="#75A4FF"/>
<path d="M374.39 789.51L334.9 809.26C330.58 811.42 323.57 811.42 319.25 809.26L279.76 789.51C275.44 787.35 275.44 783.84 279.76 781.68L319.25 761.93C323.57 759.77 330.58 759.77 334.9 761.93L374.39 781.68C378.71 783.84 378.71 787.35 374.39 789.51Z" fill="#D3DAF3"/>
<path style="mix-blend-mode:multiply" d="M276.5 642.12V785.59C276.5 787.01 277.58 788.42 279.74 789.5L319.23 809.25C323.55 811.41 330.56 811.41 334.88 809.25L374.37 789.5C376.53 788.42 377.61 787 377.61 785.59V642.12H276.48H276.5Z" fill="url(#paint72_linear_671_23893)"/>
<g style="mix-blend-mode:multiply">
<path opacity="0.05" d="M852.789 878.18C852.789 904.8 874.369 937.17 900.989 950.48C927.609 963.79 949.189 953.01 949.189 926.39C949.189 899.77 927.609 867.4 900.989 854.09C874.369 840.78 852.789 851.56 852.789 878.18Z" fill="#A7B1F2"/>
<path opacity="0.1" d="M852.789 875.9C852.789 902.52 874.369 934.89 900.989 948.2C927.609 961.51 949.189 950.73 949.189 924.11C949.189 897.49 927.609 865.12 900.989 851.81C874.369 838.5 852.789 849.28 852.789 875.9Z" fill="#A7B1F2"/>
<path opacity="0.14" d="M852.789 873.62C852.789 900.24 874.369 932.61 900.989 945.92C927.609 959.23 949.189 948.45 949.189 921.83C949.189 895.21 927.609 862.84 900.989 849.53C874.369 836.22 852.789 847 852.789 873.62Z" fill="#A7B1F2"/>
<path opacity="0.19" d="M852.789 871.35C852.789 897.97 874.369 930.34 900.989 943.65C927.609 956.96 949.189 946.18 949.189 919.56C949.189 892.94 927.609 860.57 900.989 847.26C874.369 833.95 852.789 844.73 852.789 871.35Z" fill="#A7B1F2"/>
<path opacity="0.24" d="M852.789 869.07C852.789 895.69 874.369 928.06 900.989 941.37C927.609 954.68 949.189 943.9 949.189 917.28C949.189 890.66 927.609 858.29 900.989 844.98C874.369 831.67 852.789 842.45 852.789 869.07Z" fill="#A7B1F2"/>
<path opacity="0.29" d="M852.789 866.79C852.789 893.41 874.369 925.78 900.989 939.09C927.609 952.4 949.189 941.62 949.189 915C949.189 888.38 927.609 856.01 900.989 842.7C874.369 829.39 852.789 840.17 852.789 866.79Z" fill="#A7B1F2"/>
<path opacity="0.33" d="M852.789 864.51C852.789 891.13 874.369 923.5 900.989 936.81C927.609 950.12 949.189 939.34 949.189 912.72C949.189 886.1 927.609 853.73 900.989 840.42C874.369 827.11 852.789 837.89 852.789 864.51Z" fill="#A7B1F2"/>
<path opacity="0.38" d="M852.789 862.24C852.789 888.86 874.369 921.23 900.989 934.54C927.609 947.85 949.189 937.07 949.189 910.45C949.189 883.83 927.609 851.46 900.989 838.15C874.369 824.84 852.789 835.62 852.789 862.24Z" fill="#A7B1F2"/>
<path opacity="0.43" d="M852.789 859.96C852.789 886.58 874.369 918.95 900.989 932.26C927.609 945.57 949.189 934.79 949.189 908.17C949.189 881.55 927.609 849.18 900.989 835.87C874.369 822.56 852.789 833.34 852.789 859.96Z" fill="#A7B1F2"/>
<path opacity="0.48" d="M852.789 857.68C852.789 884.3 874.369 916.67 900.989 929.98C927.609 943.29 949.189 932.51 949.189 905.89C949.189 879.27 927.609 846.9 900.989 833.59C874.369 820.28 852.789 831.06 852.789 857.68Z" fill="#A7B1F2"/>
<path opacity="0.52" d="M852.789 855.41C852.789 882.03 874.369 914.4 900.989 927.71C927.609 941.02 949.189 930.24 949.189 903.62C949.189 877 927.609 844.63 900.989 831.32C874.369 818.01 852.789 828.79 852.789 855.41Z" fill="#A7B1F2"/>
<path opacity="0.57" d="M852.789 853.13C852.789 879.75 874.369 912.12 900.989 925.43C927.609 938.74 949.189 927.96 949.189 901.34C949.189 874.72 927.609 842.35 900.989 829.04C874.369 815.73 852.789 826.51 852.789 853.13Z" fill="#A7B1F2"/>
<path opacity="0.62" d="M852.789 850.85C852.789 877.47 874.369 909.84 900.989 923.15C927.609 936.46 949.189 925.68 949.189 899.06C949.189 872.44 927.609 840.07 900.989 826.76C874.369 813.45 852.789 824.23 852.789 850.85Z" fill="#A7B1F2"/>
<path opacity="0.67" d="M852.789 848.58C852.789 875.2 874.369 907.57 900.989 920.88C927.609 934.19 949.189 923.41 949.189 896.79C949.189 870.17 927.609 837.8 900.989 824.49C874.369 811.18 852.789 821.96 852.789 848.58Z" fill="#A7B1F2"/>
<path opacity="0.71" d="M852.789 846.3C852.789 872.92 874.369 905.29 900.989 918.6C927.609 931.91 949.189 921.13 949.189 894.51C949.189 867.89 927.609 835.52 900.989 822.21C874.369 808.9 852.789 819.68 852.789 846.3Z" fill="#A7B1F2"/>
<path opacity="0.76" d="M852.789 844.02C852.789 870.64 874.369 903.01 900.989 916.32C927.609 929.63 949.189 918.85 949.189 892.23C949.189 865.61 927.609 833.24 900.989 819.93C874.369 806.62 852.789 817.4 852.789 844.02Z" fill="#A7B1F2"/>
<path opacity="0.81" d="M852.789 841.75C852.789 868.37 874.369 900.74 900.989 914.05C927.609 927.36 949.189 916.58 949.189 889.96C949.189 863.34 927.609 830.97 900.989 817.66C874.369 804.35 852.789 815.13 852.789 841.75Z" fill="#A7B1F2"/>
<path opacity="0.86" d="M852.789 839.47C852.789 866.09 874.369 898.46 900.989 911.77C927.609 925.08 949.189 914.3 949.189 887.68C949.189 861.06 927.609 828.69 900.989 815.38C874.369 802.07 852.789 812.85 852.789 839.47Z" fill="#A7B1F2"/>
<path opacity="0.9" d="M852.789 837.19C852.789 863.81 874.369 896.18 900.989 909.49C927.609 922.8 949.189 912.02 949.189 885.4C949.189 858.78 927.609 826.41 900.989 813.1C874.369 799.79 852.789 810.57 852.789 837.19Z" fill="#A7B1F2"/>
<path opacity="0.95" d="M852.789 834.91C852.789 861.53 874.369 893.9 900.989 907.21C927.609 920.52 949.189 909.74 949.189 883.12C949.189 856.5 927.609 824.13 900.989 810.82C874.369 797.51 852.789 808.29 852.789 834.91Z" fill="#A7B1F2"/>
<path d="M852.789 832.64C852.789 859.26 874.369 891.63 900.989 904.94C927.609 918.25 949.189 907.47 949.189 880.85C949.189 854.23 927.609 821.86 900.989 808.55C874.369 795.24 852.789 806.02 852.789 832.64Z" fill="#A7B1F2"/>
</g>
<path d="M938.409 868.21C937.509 863.05 935.669 857.75 933.069 852.62L939.989 846.86L933.019 836.4L923.789 838.71C919.959 834.2 915.579 830.17 910.869 826.91L909.239 814.66L899.379 809.73L883.559 817.64L875.599 807.69L868.629 811.18L854.509 818.24L847.539 821.73L853.509 832.67L837.689 840.58V850.44L849.119 857.79C850.019 862.95 851.859 868.25 854.459 873.38L847.539 879.14L854.509 889.6L863.739 887.29C867.569 891.8 871.949 895.83 876.659 899.09L878.289 911.34L888.149 916.27L903.969 908.36L911.929 918.31L918.899 914.82L939.989 904.27L934.019 893.33L949.839 885.42V875.56L938.409 868.21Z" fill="url(#paint73_linear_671_23893)"/>
<path d="M849.139 857.781C850.039 862.941 851.879 868.24 854.479 873.37L847.559 879.13L854.529 889.591L863.759 887.281C867.589 891.791 871.969 895.821 876.679 899.081L878.309 911.331L888.169 916.26L889.799 905.641C894.509 907.09 898.889 907.451 902.719 906.76L911.949 918.3L918.919 914.81L911.999 902.12C914.599 899.59 916.439 896.13 917.339 891.87L928.769 895.961V886.1L917.339 878.75C916.439 873.59 914.599 868.29 911.999 863.16L918.919 857.401L911.949 846.94L902.719 849.25C898.889 844.74 894.509 840.711 889.799 837.451L888.169 825.201L878.309 820.271L876.679 830.891C871.969 829.441 867.589 829.081 863.759 829.771L854.529 818.23L847.559 821.72L854.479 834.41C851.879 836.94 850.039 840.4 849.139 844.66L837.709 840.57V850.43L849.139 857.781ZM870.549 861.93C870.549 854.93 876.229 852.091 883.229 855.591C890.229 859.091 895.909 867.61 895.909 874.61C895.909 881.61 890.229 884.451 883.229 880.951C876.229 877.451 870.549 868.93 870.549 861.93Z" fill="url(#paint74_linear_671_23893)"/>
<path d="M964.401 874.935L963.072 877.625L1061.96 926.5L1063.29 923.81L964.401 874.935Z" fill="#B4C1F3"/>
<path d="M964.403 884.576L963.074 887.266L1061.97 936.141L1063.29 933.451L964.403 884.576Z" fill="#B4C1F3"/>
<path d="M964.398 894.213L963.068 896.902L1061.96 945.778L1063.29 943.088L964.398 894.213Z" fill="#B4C1F3"/>
<path d="M964.4 903.844L963.07 906.534L1061.96 955.409L1063.29 952.719L964.4 903.844Z" fill="#B4C1F3"/>
<path d="M966.067 914.309L964.738 916.998L1016.48 942.572L1017.81 939.883L966.067 914.309Z" fill="#B4C1F3"/>
<path d="M5.98 1145.41L34.42 1131.19C42.4 1127.2 55.33 1127.2 63.3 1131.19L93.66 1146.38C97.65 1148.37 99.64 1150.99 99.64 1153.6V1178.43C99.64 1181.04 97.65 1183.66 93.66 1185.65L65.22 1199.87C57.24 1203.86 44.31 1203.86 36.34 1199.87L5.98 1184.68C1.99 1182.69 0 1180.07 0 1177.46V1152.63C0 1150.02 1.99 1147.4 5.98 1145.41Z" fill="url(#paint75_linear_671_23893)"/>
<path d="M5.97914 1159.85L36.3391 1175.04C44.3191 1179.03 57.2491 1179.03 65.2191 1175.04L93.6591 1160.82C101.639 1156.83 101.639 1150.36 93.6591 1146.38L63.2991 1131.19C55.3191 1127.2 42.3891 1127.2 34.4191 1131.19L5.97914 1145.41C-2.00086 1149.4 -2.00086 1155.87 5.97914 1159.86V1159.85Z" fill="url(#paint76_linear_671_23893)"/>
<path d="M80.1304 1085.17L108.57 1070.95C116.55 1066.96 129.48 1066.96 137.45 1070.95L167.81 1086.14C171.8 1088.13 173.79 1090.75 173.79 1093.36V1118.19C173.79 1120.8 171.8 1123.42 167.81 1125.41L139.37 1139.63C131.39 1143.62 118.46 1143.62 110.49 1139.63L80.1304 1124.44C76.1404 1122.45 74.1504 1119.83 74.1504 1117.22V1092.39C74.1504 1089.78 76.1404 1087.16 80.1304 1085.17Z" fill="url(#paint77_linear_671_23893)"/>
<path d="M80.1295 1099.62L110.49 1114.81C118.47 1118.8 131.4 1118.8 139.37 1114.81L167.81 1100.59C175.79 1096.6 175.79 1090.13 167.81 1086.14L137.45 1070.95C129.47 1066.96 116.54 1066.96 108.57 1070.95L80.1295 1085.17C72.1495 1089.16 72.1495 1095.63 80.1295 1099.62Z" fill="url(#paint78_linear_671_23893)"/>
<path d="M154.281 1024.94L182.721 1010.72C190.701 1006.73 203.631 1006.73 211.601 1010.72L241.961 1025.91C245.951 1027.9 247.941 1030.52 247.941 1033.13V1057.96C247.941 1060.57 245.951 1063.19 241.961 1065.18L213.521 1079.4C205.541 1083.39 192.611 1083.39 184.641 1079.4L154.281 1064.21C150.291 1062.22 148.301 1059.6 148.301 1056.99V1032.16C148.301 1029.55 150.291 1026.93 154.281 1024.94Z" fill="url(#paint79_linear_671_23893)"/>
<path d="M154.28 1039.38L184.64 1054.57C192.62 1058.56 205.55 1058.56 213.52 1054.57L241.96 1040.35C249.94 1036.36 249.94 1029.89 241.96 1025.9L211.6 1010.71C203.62 1006.72 190.69 1006.72 182.72 1010.71L154.28 1024.93C146.3 1028.92 146.3 1035.39 154.28 1039.37V1039.38Z" fill="url(#paint80_linear_671_23893)"/>
<defs>
<linearGradient id="paint0_linear_671_23893" x1="798.001" y1="661.17" x2="798.001" y2="1126.94" gradientUnits="userSpaceOnUse">
<stop stop-color="#CCD6FF"/>
<stop offset="1" stop-color="white"/>
</linearGradient>
<linearGradient id="paint1_linear_671_23893" x1="351.71" y1="533.15" x2="1244.31" y2="533.15" gradientUnits="userSpaceOnUse">
<stop stop-color="#E8EAFB"/>
<stop offset="1" stop-color="white"/>
</linearGradient>
<linearGradient id="paint2_linear_671_23893" x1="1214.91" y1="767.49" x2="1214.91" y2="1127.08" gradientUnits="userSpaceOnUse">
<stop stop-color="#CCD6FF"/>
<stop offset="1" stop-color="white"/>
</linearGradient>
<linearGradient id="paint3_linear_671_23893" x1="1437.75" y1="716.91" x2="992.069" y2="716.91" gradientUnits="userSpaceOnUse">
<stop stop-color="white"/>
<stop offset="1" stop-color="#E8EAFB"/>
</linearGradient>
<linearGradient id="paint4_linear_671_23893" x1="1214.91" y1="778.88" x2="1214.91" y2="849.59" gradientUnits="userSpaceOnUse">
<stop stop-color="#CCD6FF"/>
<stop offset="1" stop-color="white"/>
</linearGradient>
<linearGradient id="paint5_linear_671_23893" x1="325.239" y1="1020.08" x2="325.239" y2="1223.4" gradientUnits="userSpaceOnUse">
<stop stop-color="#CCD6FF"/>
<stop offset="1" stop-color="white"/>
</linearGradient>
<linearGradient id="paint6_linear_671_23893" x1="486.669" y1="920.78" x2="163.809" y2="920.78" gradientUnits="userSpaceOnUse">
<stop stop-color="white"/>
<stop offset="1" stop-color="#E8EAFB"/>
</linearGradient>
<linearGradient id="paint7_linear_671_23893" x1="325.239" y1="974.59" x2="325.239" y2="1027.44" gradientUnits="userSpaceOnUse">
<stop stop-color="#CCD6FF"/>
<stop offset="1" stop-color="white"/>
</linearGradient>
<linearGradient id="paint8_linear_671_23893" x1="864.189" y1="1052.07" x2="864.189" y2="1224.09" gradientUnits="userSpaceOnUse">
<stop stop-color="#CCD6FF"/>
<stop offset="1" stop-color="white"/>
</linearGradient>
<linearGradient id="paint9_linear_671_23893" x1="1148.19" y1="1041.79" x2="580.18" y2="1041.79" gradientUnits="userSpaceOnUse">
<stop stop-color="white"/>
<stop offset="1" stop-color="#E8EAFB"/>
</linearGradient>
<linearGradient id="paint10_linear_671_23893" x1="874.481" y1="699.63" x2="1047.69" y2="1084.54" gradientUnits="userSpaceOnUse">
<stop stop-color="white"/>
<stop offset="0.56" stop-color="#D3D7F2"/>
<stop offset="0.61" stop-color="#8397E8"/>
</linearGradient>
<linearGradient id="paint11_linear_671_23893" x1="1101.79" y1="1064.57" x2="813.7" y2="735.59" gradientUnits="userSpaceOnUse">
<stop stop-color="#CED5F7"/>
<stop offset="1" stop-color="#92A6F3"/>
</linearGradient>
<linearGradient id="paint12_linear_671_23893" x1="953.231" y1="1031.27" x2="953.231" y2="782.59" gradientUnits="userSpaceOnUse">
<stop stop-color="#7023FF"/>
<stop offset="0.63" stop-color="#174DBA"/>
<stop offset="1" stop-color="#8A6EFF"/>
</linearGradient>
<linearGradient id="paint13_linear_671_23893" x1="639.461" y1="1042.45" x2="1099.34" y2="1042.45" gradientUnits="userSpaceOnUse">
<stop stop-color="#CED5F7"/>
<stop offset="1" stop-color="#92A6F3"/>
</linearGradient>
<linearGradient id="paint14_linear_671_23893" x1="869.36" y1="1153.09" x2="869.36" y2="940.73" gradientUnits="userSpaceOnUse">
<stop stop-color="#E3E4F8"/>
<stop offset="1" stop-color="white"/>
</linearGradient>
<linearGradient id="paint15_linear_671_23893" x1="973.95" y1="1136.6" x2="795.44" y2="932.74" gradientUnits="userSpaceOnUse">
<stop stop-color="#CED5F7"/>
<stop offset="1" stop-color="#E2E8FF"/>
</linearGradient>
<linearGradient id="paint16_linear_671_23893" x1="1018.3" y1="750.87" x2="1411.53" y2="750.87" gradientUnits="userSpaceOnUse">
<stop stop-color="#D3D7F2"/>
<stop offset="0.35" stop-color="#BBC9F8"/>
<stop offset="0.65" stop-color="#D3D7F2"/>
<stop offset="1" stop-color="#F2F3FF"/>
</linearGradient>
<linearGradient id="paint17_linear_671_23893" x1="-410.218" y1="1485.08" x2="-128.796" y2="1344.34" gradientUnits="userSpaceOnUse">
<stop stop-color="#E8EAFB"/>
<stop offset="1" stop-color="white"/>
</linearGradient>
<linearGradient id="paint18_linear_671_23893" x1="-351.447" y1="1411.37" x2="-133.795" y2="1302.52" gradientUnits="userSpaceOnUse">
<stop stop-color="#E8EAFB"/>
<stop offset="1" stop-color="white"/>
</linearGradient>
<linearGradient id="paint19_linear_671_23893" x1="1062.85" y1="695.47" x2="1366.98" y2="695.47" gradientUnits="userSpaceOnUse">
<stop stop-color="#D3D7F2"/>
<stop offset="0.35" stop-color="#BBC9F8"/>
<stop offset="0.65" stop-color="#D3D7F2"/>
<stop offset="1" stop-color="#F2F3FF"/>
</linearGradient>
<linearGradient id="paint20_linear_671_23893" x1="1092.01" y1="640.39" x2="1337.81" y2="640.39" gradientUnits="userSpaceOnUse">
<stop stop-color="#E8EAFB"/>
<stop offset="1" stop-color="white"/>
</linearGradient>
<linearGradient id="paint21_linear_671_23893" x1="1214.91" y1="228.41" x2="1214.91" y2="715.54" gradientUnits="userSpaceOnUse">
<stop stop-color="white"/>
<stop offset="1" stop-color="#22D2FD"/>
</linearGradient>
<linearGradient id="paint22_linear_671_23893" x1="1214.91" y1="128.38" x2="1214.91" y2="699.7" gradientUnits="userSpaceOnUse">
<stop stop-color="white"/>
<stop offset="1" stop-color="#22D2FD"/>
</linearGradient>
<linearGradient id="paint23_linear_671_23893" x1="1318.02" y1="568.06" x2="1261.13" y2="568.06" gradientUnits="userSpaceOnUse">
<stop stop-color="#E8EAFB"/>
<stop offset="1" stop-color="white"/>
</linearGradient>
<linearGradient id="paint24_linear_671_23893" x1="1189.59" y1="442.64" x2="1150.64" y2="442.64" gradientUnits="userSpaceOnUse">
<stop stop-color="#E8EAFB"/>
<stop offset="1" stop-color="white"/>
</linearGradient>
<linearGradient id="paint25_linear_671_23893" x1="1278.49" y1="235.23" x2="1264.46" y2="235.23" gradientUnits="userSpaceOnUse">
<stop stop-color="#E8EAFB"/>
<stop offset="1" stop-color="white"/>
</linearGradient>
<linearGradient id="paint26_linear_671_23893" x1="1273.9" y1="495.09" x2="1252.03" y2="495.09" gradientUnits="userSpaceOnUse">
<stop stop-color="#1E69FF"/>
<stop offset="1" stop-color="#6697FF"/>
</linearGradient>
<linearGradient id="paint27_linear_671_23893" x1="1234.06" y1="501.19" x2="1264.82" y2="516.73" gradientUnits="userSpaceOnUse">
<stop stop-color="#174DBA"/>
<stop offset="1" stop-color="#7023FF"/>
</linearGradient>
<linearGradient id="paint28_linear_671_23893" x1="1227.08" y1="498.79" x2="1260.21" y2="483.31" gradientUnits="userSpaceOnUse">
<stop stop-color="#7023FF"/>
<stop offset="1" stop-color="#3377FF"/>
</linearGradient>
<linearGradient id="paint29_linear_671_23893" x1="1231.48" y1="261.04" x2="1217.01" y2="261.04" gradientUnits="userSpaceOnUse">
<stop stop-color="#1E69FF"/>
<stop offset="1" stop-color="#6697FF"/>
</linearGradient>
<linearGradient id="paint30_linear_671_23893" x1="1198.95" y1="255.88" x2="1219.67" y2="266.35" gradientUnits="userSpaceOnUse">
<stop stop-color="#174DBA"/>
<stop offset="1" stop-color="#7023FF"/>
</linearGradient>
<linearGradient id="paint31_linear_671_23893" x1="1203.55" y1="254.68" x2="1228.31" y2="243.11" gradientUnits="userSpaceOnUse">
<stop stop-color="#7023FF"/>
<stop offset="1" stop-color="#3377FF"/>
</linearGradient>
<linearGradient id="paint32_linear_671_23893" x1="1181.84" y1="320.97" x2="1154.65" y2="320.97" gradientUnits="userSpaceOnUse">
<stop stop-color="#1E69FF"/>
<stop offset="1" stop-color="#6697FF"/>
</linearGradient>
<linearGradient id="paint33_linear_671_23893" x1="1150.41" y1="306.66" x2="1165.01" y2="314.03" gradientUnits="userSpaceOnUse">
<stop stop-color="#174DBA"/>
<stop offset="1" stop-color="#7023FF"/>
</linearGradient>
<linearGradient id="paint34_linear_671_23893" x1="1164.97" y1="309.98" x2="1177.81" y2="303.97" gradientUnits="userSpaceOnUse">
<stop stop-color="#7023FF"/>
<stop offset="1" stop-color="#3377FF"/>
</linearGradient>
<linearGradient id="paint35_linear_671_23893" x1="1188.02" y1="648.36" x2="1160.83" y2="648.36" gradientUnits="userSpaceOnUse">
<stop stop-color="#1E69FF"/>
<stop offset="1" stop-color="#6697FF"/>
</linearGradient>
<linearGradient id="paint36_linear_671_23893" x1="1156.59" y1="634.05" x2="1171.19" y2="641.42" gradientUnits="userSpaceOnUse">
<stop stop-color="#174DBA"/>
<stop offset="1" stop-color="#7023FF"/>
</linearGradient>
<linearGradient id="paint37_linear_671_23893" x1="1171.15" y1="637.37" x2="1183.99" y2="631.36" gradientUnits="userSpaceOnUse">
<stop stop-color="#7023FF"/>
<stop offset="1" stop-color="#3377FF"/>
</linearGradient>
<linearGradient id="paint38_linear_671_23893" x1="1139.47" y1="550.329" x2="1112.27" y2="550.329" gradientUnits="userSpaceOnUse">
<stop stop-color="#1E69FF"/>
<stop offset="1" stop-color="#6697FF"/>
</linearGradient>
<linearGradient id="paint39_linear_671_23893" x1="1108.04" y1="536.01" x2="1122.64" y2="543.39" gradientUnits="userSpaceOnUse">
<stop stop-color="#174DBA"/>
<stop offset="1" stop-color="#7023FF"/>
</linearGradient>
<linearGradient id="paint40_linear_671_23893" x1="1122.6" y1="539.33" x2="1135.44" y2="533.33" gradientUnits="userSpaceOnUse">
<stop stop-color="#7023FF"/>
<stop offset="1" stop-color="#3377FF"/>
</linearGradient>
<linearGradient id="paint41_linear_671_23893" x1="1299.62" y1="472.45" x2="1299.62" y2="347.39" gradientUnits="userSpaceOnUse">
<stop stop-color="#6689F0"/>
<stop offset="1"/>
</linearGradient>
<linearGradient id="paint42_linear_671_23893" x1="1306.81" y1="472.45" x2="1292.43" y2="472.45" gradientUnits="userSpaceOnUse">
<stop stop-color="#E8EAFB"/>
<stop offset="1" stop-color="white"/>
</linearGradient>
<linearGradient id="paint43_linear_671_23893" x1="1282.39" y1="442.52" x2="1282.39" y2="376.53" gradientUnits="userSpaceOnUse">
<stop stop-color="#6689F0"/>
<stop offset="1"/>
</linearGradient>
<linearGradient id="paint44_linear_671_23893" x1="1275.47" y1="445.75" x2="1288.48" y2="439.67" gradientUnits="userSpaceOnUse">
<stop stop-color="#7023FF"/>
<stop offset="1" stop-color="#3377FF"/>
</linearGradient>
<linearGradient id="paint45_linear_671_23893" x1="1125.92" y1="217.46" x2="1125.92" y2="283.45" gradientUnits="userSpaceOnUse">
<stop stop-color="#6689F0"/>
<stop offset="1"/>
</linearGradient>
<linearGradient id="paint46_linear_671_23893" x1="1119" y1="214.23" x2="1132.01" y2="220.31" gradientUnits="userSpaceOnUse">
<stop stop-color="#7023FF"/>
<stop offset="1" stop-color="#3377FF"/>
</linearGradient>
<linearGradient id="paint47_linear_671_23893" x1="1189.59" y1="115.47" x2="1189.59" y2="181.46" gradientUnits="userSpaceOnUse">
<stop stop-color="#6689F0"/>
<stop offset="1"/>
</linearGradient>
<linearGradient id="paint48_linear_671_23893" x1="1182.67" y1="112.24" x2="1195.68" y2="118.32" gradientUnits="userSpaceOnUse">
<stop stop-color="#7023FF"/>
<stop offset="1" stop-color="#3377FF"/>
</linearGradient>
<linearGradient id="paint49_linear_671_23893" x1="1202.35" y1="610.49" x2="1202.35" y2="544.51" gradientUnits="userSpaceOnUse">
<stop stop-color="#6689F0"/>
<stop offset="1"/>
</linearGradient>
<linearGradient id="paint50_linear_671_23893" x1="1195.42" y1="613.73" x2="1208.43" y2="607.65" gradientUnits="userSpaceOnUse">
<stop stop-color="#7023FF"/>
<stop offset="1" stop-color="#3377FF"/>
</linearGradient>
<linearGradient id="paint51_linear_671_23893" x1="1223.91" y1="636.09" x2="1223.91" y2="570.1" gradientUnits="userSpaceOnUse">
<stop stop-color="#6689F0"/>
<stop offset="1"/>
</linearGradient>
<linearGradient id="paint52_linear_671_23893" x1="1231.09" y1="636.09" x2="1216.72" y2="636.09" gradientUnits="userSpaceOnUse">
<stop stop-color="#E8EAFB"/>
<stop offset="1" stop-color="white"/>
</linearGradient>
<linearGradient id="paint53_linear_671_23893" x1="1131.28" y1="405.93" x2="1131.28" y2="339.94" gradientUnits="userSpaceOnUse">
<stop stop-color="#6689F0"/>
<stop offset="1"/>
</linearGradient>
<linearGradient id="paint54_linear_671_23893" x1="1138.46" y1="405.93" x2="1124.09" y2="405.93" gradientUnits="userSpaceOnUse">
<stop stop-color="#E8EAFB"/>
<stop offset="1" stop-color="white"/>
</linearGradient>
<linearGradient id="paint55_linear_671_23893" x1="1171.8" y1="214.45" x2="1171.8" y2="148.46" gradientUnits="userSpaceOnUse">
<stop stop-color="#6689F0"/>
<stop offset="1"/>
</linearGradient>
<linearGradient id="paint56_linear_671_23893" x1="1178.99" y1="214.45" x2="1164.61" y2="214.45" gradientUnits="userSpaceOnUse">
<stop stop-color="#E8EAFB"/>
<stop offset="1" stop-color="white"/>
</linearGradient>
<linearGradient id="paint57_linear_671_23893" x1="1216.72" y1="301.85" x2="1216.72" y2="426.91" gradientUnits="userSpaceOnUse">
<stop stop-color="#6689F0"/>
<stop offset="1"/>
</linearGradient>
<linearGradient id="paint58_linear_671_23893" x1="1223.91" y1="301.85" x2="1209.53" y2="301.85" gradientUnits="userSpaceOnUse">
<stop stop-color="#E8EAFB"/>
<stop offset="1" stop-color="white"/>
</linearGradient>
<linearGradient id="paint59_linear_671_23893" x1="1018.77" y1="288.86" x2="990.281" y2="288.86" gradientUnits="userSpaceOnUse">
<stop stop-color="#D9DEFC"/>
<stop offset="1" stop-color="#CCD6FF"/>
</linearGradient>
<linearGradient id="paint60_linear_671_23893" x1="817.818" y1="459.5" x2="482.588" y2="459.5" gradientUnits="userSpaceOnUse">
<stop stop-color="#D3D7F2"/>
<stop offset="1" stop-color="#BBC9F8"/>
</linearGradient>
<linearGradient id="paint61_linear_671_23893" x1="695.129" y1="306.49" x2="548.189" y2="633.03" gradientUnits="userSpaceOnUse">
<stop stop-color="#E3E4F8"/>
<stop offset="0.11" stop-color="#F2F3FF"/>
<stop offset="0.6" stop-color="#D3D7F2"/>
<stop offset="0.65" stop-color="#E1E3F8"/>
<stop offset="0.74" stop-color="#F2F3FF"/>
<stop offset="0.92" stop-color="#E1E3F8"/>
<stop offset="1" stop-color="#E2E7FB"/>
</linearGradient>
<linearGradient id="paint62_linear_671_23893" x1="693.348" y1="622.04" x2="693.348" y2="369.84" gradientUnits="userSpaceOnUse">
<stop stop-color="#7023FF"/>
<stop offset="0.63" stop-color="#174DBA"/>
<stop offset="1" stop-color="#8A6EFF"/>
</linearGradient>
<linearGradient id="paint63_linear_671_23893" x1="730.459" y1="321.79" x2="604.539" y2="655.84" gradientUnits="userSpaceOnUse">
<stop stop-color="#56A1FF"/>
<stop offset="0.07" stop-color="#8FDAFF"/>
<stop offset="0.29" stop-color="#A675FF"/>
<stop offset="0.61" stop-color="#1E69FF"/>
<stop offset="0.63" stop-color="#8FB5FF"/>
<stop offset="0.9" stop-color="#7023FF"/>
<stop offset="1" stop-color="#1E69FF"/>
</linearGradient>
<linearGradient id="paint64_linear_671_23893" x1="791.501" y1="589.53" x2="644.261" y2="424.44" gradientUnits="userSpaceOnUse">
<stop stop-color="#31C9FB"/>
<stop offset="1" stop-color="#22D2FD"/>
</linearGradient>
<linearGradient id="paint65_linear_671_23893" x1="781.42" y1="349.64" x2="634.48" y2="676.18" gradientUnits="userSpaceOnUse">
<stop stop-color="#E3E4F8"/>
<stop offset="0.11" stop-color="#F2F3FF"/>
<stop offset="0.6" stop-color="#D3D7F2"/>
<stop offset="0.65" stop-color="#E1E3F8"/>
<stop offset="0.74" stop-color="#F2F3FF"/>
<stop offset="0.92" stop-color="#E1E3F8"/>
<stop offset="1" stop-color="#E2E7FB"/>
</linearGradient>
<linearGradient id="paint66_linear_671_23893" x1="434.15" y1="941.81" x2="219.27" y2="941.81" gradientUnits="userSpaceOnUse">
<stop stop-color="#1E69FF"/>
<stop offset="1" stop-color="#651FE6"/>
</linearGradient>
<linearGradient id="paint67_linear_671_23893" x1="298.149" y1="850.58" x2="356.159" y2="951.9" gradientUnits="userSpaceOnUse">
<stop stop-color="white"/>
<stop offset="0.82" stop-color="#F2F3FF"/>
<stop offset="1" stop-color="#D4D8F2"/>
</linearGradient>
<linearGradient id="paint68_linear_671_23893" x1="-0.000152588" y1="892.94" x2="0.999847" y2="892.94" gradientUnits="userSpaceOnUse">
<stop stop-color="#1E69FF"/>
<stop offset="1" stop-color="#651FE6"/>
</linearGradient>
<linearGradient id="paint69_linear_671_23893" x1="298.149" y1="801.71" x2="356.159" y2="903.03" gradientUnits="userSpaceOnUse">
<stop stop-color="white"/>
<stop offset="0.82" stop-color="#F2F3FF"/>
<stop offset="1" stop-color="#D4D8F2"/>
</linearGradient>
<linearGradient id="paint70_linear_671_23893" x1="-0.000152588" y1="844.07" x2="0.999847" y2="844.07" gradientUnits="userSpaceOnUse">
<stop stop-color="#1E69FF"/>
<stop offset="1" stop-color="#651FE6"/>
</linearGradient>
<linearGradient id="paint71_linear_671_23893" x1="298.149" y1="752.84" x2="356.159" y2="854.17" gradientUnits="userSpaceOnUse">
<stop stop-color="white"/>
<stop offset="0.82" stop-color="#F2F3FF"/>
<stop offset="1" stop-color="#D4D8F2"/>
</linearGradient>
<linearGradient id="paint72_linear_671_23893" x1="327.06" y1="640.86" x2="327.06" y2="810.36" gradientUnits="userSpaceOnUse">
<stop stop-color="white"/>
<stop offset="1" stop-color="#22D2FD"/>
</linearGradient>
<linearGradient id="paint73_linear_671_23893" x1="893.779" y1="916.25" x2="893.779" y2="820.69" gradientUnits="userSpaceOnUse">
<stop stop-color="#B4C1F3"/>
<stop offset="1" stop-color="#BBC9F8"/>
</linearGradient>
<linearGradient id="paint74_linear_671_23893" x1="883.229" y1="915.27" x2="883.229" y2="820.11" gradientUnits="userSpaceOnUse">
<stop stop-color="#C3CFF7"/>
<stop offset="1" stop-color="white"/>
</linearGradient>
<linearGradient id="paint75_linear_671_23893" x1="99.14" y1="1165.53" x2="0.509998" y2="1165.53" gradientUnits="userSpaceOnUse">
<stop stop-color="#F2F3FF"/>
<stop offset="0.45" stop-color="#D3D7F2"/>
<stop offset="0.55" stop-color="#BBC9F8"/>
<stop offset="1" stop-color="#D3D7F2"/>
</linearGradient>
<linearGradient id="paint76_linear_671_23893" x1="99.6491" y1="1153.11" x2="-0.000858229" y2="1153.11" gradientUnits="userSpaceOnUse">
<stop stop-color="white"/>
<stop offset="1" stop-color="#E8EAFB"/>
</linearGradient>
<linearGradient id="paint77_linear_671_23893" x1="173.28" y1="1105.29" x2="74.6504" y2="1105.29" gradientUnits="userSpaceOnUse">
<stop stop-color="#F2F3FF"/>
<stop offset="0.45" stop-color="#D3D7F2"/>
<stop offset="0.55" stop-color="#BBC9F8"/>
<stop offset="1" stop-color="#D3D7F2"/>
</linearGradient>
<linearGradient id="paint78_linear_671_23893" x1="173.79" y1="1092.88" x2="74.1495" y2="1092.88" gradientUnits="userSpaceOnUse">
<stop stop-color="white"/>
<stop offset="1" stop-color="#E8EAFB"/>
</linearGradient>
<linearGradient id="paint79_linear_671_23893" x1="247.431" y1="1045.06" x2="148.811" y2="1045.06" gradientUnits="userSpaceOnUse">
<stop stop-color="#F2F3FF"/>
<stop offset="0.45" stop-color="#D3D7F2"/>
<stop offset="0.55" stop-color="#BBC9F8"/>
<stop offset="1" stop-color="#D3D7F2"/>
</linearGradient>
<linearGradient id="paint80_linear_671_23893" x1="247.94" y1="1032.64" x2="148.3" y2="1032.64" gradientUnits="userSpaceOnUse">
<stop stop-color="white"/>
<stop offset="1" stop-color="#E8EAFB"/>
</linearGradient>
</defs>
</svg>
