<svg width="20" height="20" viewBox="0 0 20 20" fill="none" xmlns="http://www.w3.org/2000/svg">
<path fill-rule="evenodd" clip-rule="evenodd" d="M16.4032 12.6567C17.353 12.1531 18 11.1543 18 10.0044C18 8.85446 17.353 7.85565 16.4032 7.35211C16.7188 6.32442 16.47 5.16065 15.6569 4.34752C14.8437 3.53439 13.68 3.28561 12.6523 3.60118C12.1487 2.65138 11.1499 2.00439 10 2.00439C8.85007 2.00439 7.85125 2.65139 7.3477 3.60121C6.32002 3.28565 5.15627 3.53443 4.34315 4.34755C3.53003 5.16067 3.28125 6.32443 3.5968 7.35211C2.64699 7.85565 2 8.85447 2 10.0044C2 11.1543 2.64699 12.1531 3.59681 12.6567C3.28124 13.6844 3.53001 14.8481 4.34314 15.6613C5.15627 16.4744 6.32003 16.7232 7.34771 16.4076C7.85126 17.3574 8.85007 18.0044 10 18.0044C11.1499 18.0044 12.1488 17.3574 12.6523 16.4076C13.68 16.7231 14.8437 16.4744 15.6569 15.6612C16.47 14.8481 16.7188 13.6844 16.4032 12.6567ZM13.8566 8.19552C14.1002 7.86053 14.0261 7.39147 13.6911 7.14784C13.3561 6.90421 12.8871 6.97828 12.6434 7.31327L9.15969 12.1034L7.28033 10.2241C6.98744 9.93117 6.51256 9.93117 6.21967 10.2241C5.92678 10.517 5.92678 10.9918 6.21967 11.2847L8.71967 13.7847C8.87477 13.9398 9.08999 14.0193 9.30867 14.0021C9.52734 13.9849 9.72754 13.8729 9.85655 13.6955L13.8566 8.19552Z" fill="url(#paint0_linear_569_21620)"/>
<defs>
<linearGradient id="paint0_linear_569_21620" x1="10" y1="17.3072" x2="10" y2="4.24155" gradientUnits="userSpaceOnUse">
<stop stop-color="#0ECCFF"/>
<stop offset="0.505" stop-color="#1685FE"/>
<stop offset="1" stop-color="#24ADFF"/>
</linearGradient>
</defs>
</svg>
