<svg width="1114" height="684" viewBox="0 0 1114 684" fill="none" xmlns="http://www.w3.org/2000/svg">
<g clip-path="url(#clip0_2070_10902)">
<g opacity="0.05">
<path d="M191.293 -542.704L396.289 -365.778H498.787L650.399 -542.704L787.063 -459.57L992.059 -514.992L970.705 -208.038H1107.37L1147.94 -9.79578L1053.98 209.762L1244.03 290.764L1318.77 851.383H915.186L861.801 987.808H567.119L430.455 891.884L116.555 1034.7L14.0567 932.385V665.931L-88.4414 523.112L14.0567 290.764V58.4164L-156.773 -9.79578V-365.778L191.293 -542.704Z" stroke="url(#paint0_linear_2070_10902)" stroke-width="3"/>
<path d="M503.875 180.533L540.947 161.6H589.846L623.961 197.413L632.831 242.122L653.073 250.79L661.034 310.782H618.048L566.42 315.116L532.987 330.4L522.07 319.45V290.937V225.926L503.875 218.627V180.533Z" stroke="url(#paint1_linear_2070_10902)" stroke-width="3"/>
<path d="M216.765 -488.527L407.418 -325.939H505.793L647.054 -487.878L774.518 -409.761L964.086 -459.201L944.716 -174.138L1072.42 -173.472L1110.18 11.8281L1023.76 216.804L1197.54 291.575L1264.87 809.07L890.344 809.237L839.081 935.334L564.495 936.509L437.923 847.543L147.749 978.955L53.1358 883.411V636.357L-41.4778 499.523L52.436 284.767L51.7362 70.0117L-105.953 5.58139V-324.483L216.765 -488.527Z" stroke="url(#paint2_linear_2070_10902)" stroke-width="3"/>
<path d="M242.237 -434.349L418.547 -286.099H512.799L643.71 -433.051L761.973 -359.952L936.113 -403.409L918.727 -140.238L1037.48 -138.905L1072.42 33.4529L993.533 223.848L1151.04 292.388L1210.97 766.758L865.503 767.091L816.36 882.86L561.87 885.212L445.392 803.203L178.944 923.208L92.215 834.438V606.784L5.48582 475.935L90.8153 278.771L89.4157 81.6079L-55.1328 20.9596V-283.187L242.237 -434.349Z" stroke="url(#paint3_linear_2070_10902)" stroke-width="3"/>
<path d="M267.704 -380.172L429.671 -246.26H519.8L640.361 -378.224L749.424 -310.143L908.137 -347.617L892.734 -106.339L1002.53 -104.339L1034.66 55.0772L963.304 230.89L1104.53 293.199L1157.07 724.445L840.658 724.945L793.636 830.387L559.242 833.914L452.856 758.863L210.135 867.461L131.29 785.464V577.21L52.4455 452.346L129.191 272.775L127.091 93.2036L-4.31641 36.3372V-241.891L267.704 -380.172Z" stroke="url(#paint4_linear_2070_10902)" stroke-width="3"/>
<path d="M293.176 -325.995L440.8 -206.421H526.806L637.017 -323.398L736.879 -260.334L880.164 -291.825L866.745 -72.4399L967.587 -69.7728L996.9 76.701L933.078 237.932L1058.04 294.011L1103.17 682.131L815.817 682.798L770.916 777.913L556.618 782.615L460.325 714.522L241.33 811.713L170.369 736.49V547.635L99.4091 428.757L167.57 266.778L164.771 104.799L46.5039 51.7144V-200.596L293.176 -325.995Z" stroke="url(#paint5_linear_2070_10902)" stroke-width="3"/>
<path d="M318.644 -271.817L451.925 -166.581H533.808L633.668 -268.571L724.33 -210.524L852.187 -236.033L840.752 -38.5394L932.638 -35.2055L959.137 98.3264L902.848 244.976L1011.53 294.823L1049.26 639.82L790.972 640.653L748.191 725.44L553.99 731.318L467.789 670.183L272.52 755.966L209.445 687.518V518.063L146.369 405.17L205.946 260.783L202.447 116.396L97.3203 67.0931V-159.299L318.644 -271.817Z" stroke="url(#paint6_linear_2070_10902)" stroke-width="3"/>
<path d="M344.12 -217.64L463.058 -126.742H540.818L630.328 -213.745L711.789 -160.716L824.218 -180.241L814.767 -4.6404L897.698 -0.639725L921.381 119.95L872.626 252.018L965.04 295.635L995.364 597.506L766.134 598.507L725.475 672.966L551.369 680.02L475.261 625.842L303.719 700.218L248.528 638.543V488.488L193.336 381.581L244.329 254.786L240.13 127.991L148.145 82.4703V-118.003L344.12 -217.64Z" stroke="url(#paint7_linear_2070_10902)" stroke-width="3"/>
<path d="M369.588 -163.464L474.182 -86.9033H547.819L626.979 -158.919L699.24 -110.908L796.241 -124.45L788.774 29.2582L862.749 33.9256L883.618 141.574L842.396 259.06L918.538 296.445L941.46 555.193L741.289 556.36L702.75 620.492L548.741 628.721L482.726 581.501L334.91 644.47L287.603 589.569V458.914L240.296 357.991L282.704 248.788L277.806 139.586L198.961 97.847V-76.7086L369.588 -163.464Z" stroke="url(#paint8_linear_2070_10902)" stroke-width="3"/>
<path d="M395.056 -109.287L485.307 -47.0639H554.821L623.63 -104.093L686.691 -61.0989L768.265 -68.6586L762.781 63.1577L827.8 68.4919L845.854 163.198L812.167 266.103L872.036 297.257L887.555 512.88L716.444 514.213L680.026 568.018L546.113 577.423L490.19 537.16L366.1 588.722L326.678 540.595V429.34L287.256 334.402L321.08 242.792L315.481 151.181L249.777 113.225V-35.4129L395.056 -109.287Z" stroke="url(#paint9_linear_2070_10902)" stroke-width="3"/>
<path d="M420.528 -55.1084L496.436 -7.22353H561.827L620.286 -49.2653L674.146 -11.2889L740.292 -12.8657L736.792 97.0582L792.856 103.059L808.095 184.823L781.941 273.146L825.538 298.07L833.654 470.568L691.603 472.068L657.306 515.545L543.488 526.126L497.659 492.821L397.295 532.975L365.757 491.623V399.767L334.219 310.815L359.459 236.797L353.161 162.778L300.598 128.603V5.88391L420.528 -55.1084Z" stroke="url(#paint10_linear_2070_10902)" stroke-width="3"/>
<path d="M445.999 -0.932129L507.565 32.6149H568.833L616.941 5.56018L661.601 38.5191L712.319 42.9251L710.803 130.957L757.911 137.624L770.336 206.447L751.715 280.188L779.039 298.881L779.754 428.254L666.762 429.921L634.585 463.071L540.864 474.827L505.127 448.48L428.49 477.227L404.836 442.648V370.192L381.183 287.225L397.838 230.799L390.84 174.373L351.418 143.98V47.1787L445.999 -0.932129Z" stroke="url(#paint11_linear_2070_10902)" stroke-width="3"/>
<path d="M471.469 53.2451L518.692 72.4543H575.837L613.595 60.3867L649.054 88.3281L684.344 98.717L684.812 164.856L722.965 172.191L732.574 228.071L721.487 287.23L732.539 299.692L725.851 385.941L641.918 387.775L611.863 410.597L538.238 423.529L512.594 404.139L459.683 421.479L443.914 393.674V340.618L428.145 263.637L436.216 224.803L428.518 185.969L402.236 159.358V88.4745L471.469 53.2451Z" stroke="url(#paint12_linear_2070_10902)" stroke-width="3"/>
<path d="M496.939 107.424L529.818 112.295H582.84L610.248 115.215L636.507 138.139L656.369 154.51L658.821 198.757L688.018 206.759L694.813 249.697L691.259 294.275L686.039 300.506L671.949 343.63L617.075 345.63L589.14 358.125L535.611 372.233L520.06 359.8L490.875 365.733L482.991 344.702V311.046L475.106 240.05L474.593 218.808L466.195 197.566L453.055 174.737V129.772L496.939 107.424Z" stroke="url(#paint13_linear_2070_10902)" stroke-width="3"/>
</g>
</g>
<defs>
<linearGradient id="paint0_linear_2070_10902" x1="580.999" y1="965.968" x2="580.999" y2="-322.147" gradientUnits="userSpaceOnUse">
<stop stop-color="#0ECCFF"/>
<stop offset="0.505" stop-color="#1685FE"/>
<stop offset="1" stop-color="#24ADFF"/>
</linearGradient>
<linearGradient id="paint1_linear_2070_10902" x1="582.454" y1="323.044" x2="582.454" y2="185.202" gradientUnits="userSpaceOnUse">
<stop stop-color="#0ECCFF"/>
<stop offset="0.505" stop-color="#1685FE"/>
<stop offset="1" stop-color="#24ADFF"/>
</linearGradient>
<linearGradient id="paint2_linear_2070_10902" x1="579.459" y1="915.01" x2="579.459" y2="-283.34" gradientUnits="userSpaceOnUse">
<stop stop-color="#0ECCFF"/>
<stop offset="0.505" stop-color="#1685FE"/>
<stop offset="1" stop-color="#24ADFF"/>
</linearGradient>
<linearGradient id="paint3_linear_2070_10902" x1="577.919" y1="864.052" x2="577.919" y2="-244.533" gradientUnits="userSpaceOnUse">
<stop stop-color="#0ECCFF"/>
<stop offset="0.505" stop-color="#1685FE"/>
<stop offset="1" stop-color="#24ADFF"/>
</linearGradient>
<linearGradient id="paint4_linear_2070_10902" x1="576.375" y1="813.095" x2="576.375" y2="-205.725" gradientUnits="userSpaceOnUse">
<stop stop-color="#0ECCFF"/>
<stop offset="0.505" stop-color="#1685FE"/>
<stop offset="1" stop-color="#24ADFF"/>
</linearGradient>
<linearGradient id="paint5_linear_2070_10902" x1="574.835" y1="762.137" x2="574.835" y2="-166.918" gradientUnits="userSpaceOnUse">
<stop stop-color="#0ECCFF"/>
<stop offset="0.505" stop-color="#1685FE"/>
<stop offset="1" stop-color="#24ADFF"/>
</linearGradient>
<linearGradient id="paint6_linear_2070_10902" x1="573.291" y1="711.18" x2="573.291" y2="-128.11" gradientUnits="userSpaceOnUse">
<stop stop-color="#0ECCFF"/>
<stop offset="0.505" stop-color="#1685FE"/>
<stop offset="1" stop-color="#24ADFF"/>
</linearGradient>
<linearGradient id="paint7_linear_2070_10902" x1="571.754" y1="660.222" x2="571.754" y2="-89.3033" gradientUnits="userSpaceOnUse">
<stop stop-color="#0ECCFF"/>
<stop offset="0.505" stop-color="#1685FE"/>
<stop offset="1" stop-color="#24ADFF"/>
</linearGradient>
<linearGradient id="paint8_linear_2070_10902" x1="570.21" y1="609.264" x2="570.21" y2="-50.4969" gradientUnits="userSpaceOnUse">
<stop stop-color="#0ECCFF"/>
<stop offset="0.505" stop-color="#1685FE"/>
<stop offset="1" stop-color="#24ADFF"/>
</linearGradient>
<linearGradient id="paint9_linear_2070_10902" x1="568.666" y1="558.306" x2="568.666" y2="-11.6896" gradientUnits="userSpaceOnUse">
<stop stop-color="#0ECCFF"/>
<stop offset="0.505" stop-color="#1685FE"/>
<stop offset="1" stop-color="#24ADFF"/>
</linearGradient>
<linearGradient id="paint10_linear_2070_10902" x1="567.126" y1="507.349" x2="567.126" y2="27.1187" gradientUnits="userSpaceOnUse">
<stop stop-color="#0ECCFF"/>
<stop offset="0.505" stop-color="#1685FE"/>
<stop offset="1" stop-color="#24ADFF"/>
</linearGradient>
<linearGradient id="paint11_linear_2070_10902" x1="565.586" y1="456.391" x2="565.586" y2="65.925" gradientUnits="userSpaceOnUse">
<stop stop-color="#0ECCFF"/>
<stop offset="0.505" stop-color="#1685FE"/>
<stop offset="1" stop-color="#24ADFF"/>
</linearGradient>
<linearGradient id="paint12_linear_2070_10902" x1="567.405" y1="407.394" x2="567.405" y2="105.019" gradientUnits="userSpaceOnUse">
<stop stop-color="#0ECCFF"/>
<stop offset="0.505" stop-color="#1685FE"/>
<stop offset="1" stop-color="#24ADFF"/>
</linearGradient>
<linearGradient id="paint13_linear_2070_10902" x1="573.934" y1="360.693" x2="573.934" y2="144.45" gradientUnits="userSpaceOnUse">
<stop stop-color="#0ECCFF"/>
<stop offset="0.505" stop-color="#1685FE"/>
<stop offset="1" stop-color="#24ADFF"/>
</linearGradient>
<clipPath id="clip0_2070_10902">
<rect width="1114" height="685" fill="white" transform="translate(0 -1)"/>
</clipPath>
</defs>
</svg>
