<svg width="542" height="401" viewBox="0 0 542 401" fill="none" xmlns="http://www.w3.org/2000/svg">
<g clip-path="url(#clip0_569_22351)">
<path d="M274.971 254.925L217.961 226.507V103.606L274.971 132.023V254.925Z" fill="url(#paint0_linear_569_22351)"/>
<path d="M274.969 254.925L331.978 226.507V103.606L274.969 132.023V254.925Z" fill="url(#paint1_linear_569_22351)"/>
<path d="M274.969 254.925L331.978 226.507V103.606L274.969 132.023V254.925Z" fill="url(#paint2_linear_569_22351)"/>
<path d="M274.971 132.03L217.961 103.612L274.971 75.1943L331.98 103.612L274.971 132.03Z" fill="url(#paint3_linear_569_22351)"/>
<path d="M274.971 132.03L217.961 103.612L274.971 75.1943L331.98 103.612L274.971 132.03Z" fill="url(#paint4_linear_569_22351)"/>
<path d="M331.982 283.343L274.973 254.925V165.06L331.982 193.478V283.343Z" fill="url(#paint5_linear_569_22351)"/>
<path d="M331.98 283.343L388.99 254.925V165.06L331.98 193.478V283.343Z" fill="url(#paint6_linear_569_22351)"/>
<path d="M331.982 193.484L274.973 165.066L331.982 136.648L388.992 165.066L331.982 193.484Z" fill="url(#paint7_linear_569_22351)"/>
<path d="M388.99 311.761L331.98 283.343V226.514L388.99 254.932V311.761Z" fill="url(#paint8_linear_569_22351)"/>
<path d="M388.988 311.761L445.998 283.343V226.514L388.988 254.932V311.761Z" fill="url(#paint9_linear_569_22351)"/>
<path d="M388.99 254.938L331.98 226.52L388.99 198.103L446 226.52L388.99 254.938Z" fill="url(#paint10_linear_569_22351)"/>
<g style="mix-blend-mode:multiply">
<path opacity="0.05" d="M301.032 105.961L274.135 119.367C271.191 120.834 266.419 120.834 263.472 119.367L236.575 105.961C233.631 104.494 233.631 102.116 236.575 100.646L263.472 87.2395C266.415 85.7726 271.188 85.7726 274.135 87.2395L301.032 100.646C303.975 102.112 303.975 104.491 301.032 105.961Z" fill="#A7D3F2"/>
<path opacity="0.1" d="M301.395 105.779L274.498 119.186C271.555 120.652 266.782 120.652 263.835 119.186L236.938 105.779C233.995 104.313 233.995 101.934 236.938 100.464L263.835 87.0578C266.778 85.5909 271.551 85.5909 274.498 87.0578L301.395 100.464C304.338 101.931 304.338 104.309 301.395 105.779Z" fill="#A7D3F2"/>
<path opacity="0.14" d="M301.758 105.598L274.861 119.004C271.918 120.471 267.145 120.471 264.198 119.004L237.301 105.598C234.358 104.131 234.358 101.752 237.301 100.282L264.198 86.876C267.142 85.4092 271.915 85.4092 274.861 86.876L301.758 100.282C304.702 101.749 304.702 104.128 301.758 105.598Z" fill="#A7D3F2"/>
<path opacity="0.19" d="M302.122 105.416L275.225 118.822C272.281 120.289 267.508 120.289 264.562 118.822L237.664 105.416C234.721 103.949 234.721 101.571 237.664 100.1L264.562 86.6943C267.505 85.2275 272.278 85.2275 275.225 86.6943L302.122 100.1C305.065 101.567 305.065 103.946 302.122 105.416Z" fill="#A7D3F2"/>
<path opacity="0.24" d="M302.485 105.238L275.588 118.644C272.645 120.111 267.872 120.111 264.925 118.644L238.028 105.238C235.084 103.771 235.084 101.392 238.028 99.9221L264.925 86.5159C267.868 85.0491 272.641 85.0491 275.588 86.5159L302.485 99.9221C305.428 101.389 305.428 103.768 302.485 105.238Z" fill="#A7D3F2"/>
<path opacity="0.29" d="M302.844 105.056L275.947 118.462C273.004 119.929 268.231 119.929 265.284 118.462L238.387 105.056C235.444 103.589 235.444 101.21 238.387 99.7404L265.284 86.3342C268.228 84.8674 273.001 84.8674 275.947 86.3342L302.844 99.7404C305.788 101.207 305.788 103.586 302.844 105.056Z" fill="#A7D3F2"/>
<path opacity="0.33" d="M303.208 104.874L276.31 118.28C273.367 119.747 268.594 119.747 265.648 118.28L238.75 104.874C235.807 103.407 235.807 101.029 238.75 99.5587L265.648 86.1525C268.591 84.6857 273.364 84.6857 276.31 86.1525L303.208 99.5587C306.151 101.025 306.151 103.404 303.208 104.874Z" fill="#A7D3F2"/>
<path opacity="0.38" d="M303.571 104.693L276.674 118.099C273.73 119.565 268.958 119.565 266.011 118.099L239.114 104.693C236.17 103.226 236.17 100.847 239.114 99.377L266.011 85.9708C268.954 84.504 273.727 84.504 276.674 85.9708L303.571 99.377C306.514 100.844 306.514 103.222 303.571 104.693Z" fill="#A7D3F2"/>
<path opacity="0.43" d="M303.934 104.514L277.037 117.92C274.094 119.387 269.321 119.387 266.374 117.92L239.477 104.514C236.534 103.047 236.534 100.669 239.477 99.1986L266.374 85.7924C269.318 84.3256 274.09 84.3256 277.037 85.7924L303.934 99.1986C306.878 100.665 306.878 103.044 303.934 104.514Z" fill="#A7D3F2"/>
<path opacity="0.48" d="M304.298 104.332L277.4 117.739C274.457 119.205 269.684 119.205 266.738 117.739L239.84 104.332C236.897 102.866 236.897 100.487 239.84 99.0169L266.738 85.6107C269.681 84.1439 274.454 84.1439 277.4 85.6107L304.298 99.0169C307.241 100.484 307.241 102.862 304.298 104.332Z" fill="#A7D3F2"/>
<path opacity="0.52" d="M304.661 104.151L277.764 117.557C274.82 119.024 270.047 119.024 267.101 117.557L240.204 104.151C237.26 102.684 237.26 100.305 240.204 98.8352L267.101 85.429C270.044 83.9622 274.817 83.9622 277.764 85.429L304.661 98.8352C307.604 100.302 307.604 102.681 304.661 104.151Z" fill="#A7D3F2"/>
<path opacity="0.57" d="M305.024 103.969L278.127 117.375C275.184 118.842 270.411 118.842 267.464 117.375L240.567 103.969C237.624 102.502 237.624 100.124 240.567 98.6535L267.464 85.2473C270.407 83.7805 275.18 83.7805 278.127 85.2473L305.024 98.6535C307.967 100.12 307.967 102.499 305.024 103.969Z" fill="#A7D3F2"/>
<path opacity="0.62" d="M305.383 103.791L278.486 117.197C275.543 118.664 270.77 118.664 267.823 117.197L240.926 103.791C237.983 102.324 237.983 99.9452 240.926 98.4751L267.823 85.0689C270.767 83.6021 275.54 83.6021 278.486 85.0689L305.383 98.4751C308.327 99.9419 308.327 102.32 305.383 103.791Z" fill="#A7D3F2"/>
<path opacity="0.67" d="M305.751 103.609L278.853 117.015C275.91 118.482 271.137 118.482 268.191 117.015L241.293 103.609C238.35 102.142 238.35 99.7635 241.293 98.2934L268.191 84.8872C271.134 83.4204 275.907 83.4204 278.853 84.8872L305.751 98.2934C308.694 99.7602 308.694 102.139 305.751 103.609Z" fill="#A7D3F2"/>
<path opacity="0.71" d="M306.11 103.427L279.213 116.833C276.27 118.3 271.497 118.3 268.55 116.833L241.653 103.427C238.709 101.96 238.709 99.5818 241.653 98.1117L268.55 84.7055C271.493 83.2387 276.266 83.2387 279.213 84.7055L306.11 98.1117C309.053 99.5785 309.053 101.957 306.11 103.427Z" fill="#A7D3F2"/>
<path opacity="0.76" d="M306.473 103.249L279.576 116.655C276.633 118.122 271.86 118.122 268.913 116.655L242.016 103.249C239.073 101.782 239.073 99.4034 242.016 97.9333L268.913 84.5272C271.857 83.0604 276.629 83.0604 279.576 84.5272L306.473 97.9333C309.417 99.4001 309.417 101.779 306.473 103.249Z" fill="#A7D3F2"/>
<path opacity="0.81" d="M306.837 103.067L279.939 116.473C276.996 117.94 272.223 117.94 269.277 116.473L242.379 103.067C239.436 101.6 239.436 99.2217 242.379 97.7516L269.277 84.3455C272.22 82.8787 276.993 82.8787 279.939 84.3455L306.837 97.7516C309.78 99.2184 309.78 101.597 306.837 103.067Z" fill="#A7D3F2"/>
<path opacity="0.86" d="M307.2 102.885L280.303 116.292C277.359 117.758 272.586 117.758 269.64 116.292L242.743 102.885C239.799 101.419 239.799 99.04 242.743 97.5699L269.64 84.1638C272.583 82.697 277.356 82.697 280.303 84.1638L307.2 97.5699C310.143 99.0367 310.143 101.415 307.2 102.885Z" fill="#A7D3F2"/>
<path opacity="0.9" d="M307.563 102.704L280.666 116.11C277.723 117.577 272.95 117.577 270.003 116.11L243.106 102.704C240.163 101.237 240.163 98.8583 243.106 97.3882L270.003 83.9821C272.946 82.5153 277.719 82.5153 280.666 83.9821L307.563 97.3882C310.506 98.855 310.506 101.234 307.563 102.704Z" fill="#A7D3F2"/>
<path opacity="0.95" d="M307.923 102.525L281.025 115.931C278.082 117.398 273.309 117.398 270.363 115.931L243.465 102.525C240.522 101.059 240.522 98.6799 243.465 97.2098L270.363 83.8037C273.306 82.3368 278.079 82.3368 281.025 83.8037L307.923 97.2098C310.866 98.6766 310.866 101.055 307.923 102.525Z" fill="#A7D3F2"/>
<path d="M308.29 102.344L281.392 115.75C278.449 117.217 273.676 117.217 270.73 115.75L243.832 102.344C240.889 100.877 240.889 98.4982 243.832 97.0281L270.73 83.622C273.673 82.1551 278.446 82.1551 281.392 83.622L308.29 97.0281C311.233 98.4949 311.233 100.874 308.29 102.344Z" fill="#A7D3F2"/>
</g>
<path d="M304.862 18.1406L278.19 4.84353C276.195 3.84913 274.392 3.76985 273.096 4.44048C273.096 4.43718 243.09 19.4026 243.09 19.4026C242.977 19.4522 242.871 19.505 242.768 19.5645C241.565 20.2583 240.836 21.5863 240.836 23.4562V91.2632C240.836 95.1879 244.028 99.9617 247.965 101.924L274.641 115.221C276.629 116.212 278.426 116.295 279.718 115.631L309.741 100.659C309.851 100.609 309.96 100.556 310.063 100.497C311.263 99.8163 311.995 98.4816 311.995 96.6052V28.8015C311.995 24.8767 308.803 20.103 304.866 18.1406H304.862Z" fill="url(#paint11_linear_569_22351)"/>
<path d="M274.641 115.221L247.965 101.924C244.028 99.9617 240.836 95.1879 240.836 91.2632V23.4562C240.836 19.5315 244.028 17.9391 247.965 19.9048L274.641 33.2019C278.578 35.1642 281.77 39.938 281.77 43.8627V111.67C281.77 115.594 278.578 117.187 274.641 115.221Z" fill="url(#paint12_linear_569_22351)"/>
<path d="M251.409 32.6898C251.409 33.78 250.521 34.2227 249.427 33.6776C248.334 33.1325 247.445 31.8045 247.445 30.7143C247.445 29.6241 248.334 29.1814 249.427 29.7265C250.521 30.2716 251.409 31.5996 251.409 32.6898Z" fill="#5BBCE6"/>
<path d="M257.355 35.6532C257.355 36.7434 256.466 37.1861 255.373 36.641C254.279 36.0959 253.391 34.7678 253.391 33.6776C253.391 32.5874 254.279 32.1447 255.373 32.6898C256.466 33.2349 257.355 34.563 257.355 35.6532Z" fill="#42EAFF"/>
<path d="M263.3 38.6165C263.3 39.7067 262.412 40.1494 261.318 39.6043C260.224 39.0592 259.336 37.7312 259.336 36.641C259.336 35.5508 260.224 35.1081 261.318 35.6532C262.412 36.1983 263.3 37.5263 263.3 38.6165Z" fill="#42EAFF"/>
<path d="M269.249 41.5832C269.249 42.6734 268.361 43.1161 267.267 42.571C266.173 42.0259 265.285 40.6978 265.285 39.6076C265.285 38.5174 266.173 38.0748 267.267 38.6199C268.361 39.165 269.249 40.493 269.249 41.5832Z" fill="#42EAFF"/>
<path d="M275.195 44.5466C275.195 45.6368 274.306 46.0795 273.213 45.5344C272.119 44.9893 271.23 43.6612 271.23 42.571C271.23 41.4808 272.119 41.0381 273.213 41.5832C274.306 42.1283 275.195 43.4564 275.195 44.5466Z" fill="#DAFBFF"/>
<path d="M251.409 38.164C251.409 39.2542 250.521 39.6968 249.427 39.1517C248.334 38.6066 247.445 37.2786 247.445 36.1884C247.445 35.0982 248.334 34.6555 249.427 35.2006C250.521 35.7457 251.409 37.0738 251.409 38.164Z" fill="#42EAFF"/>
<path d="M257.355 41.1306C257.355 42.2208 256.466 42.6635 255.373 42.1184C254.279 41.5733 253.391 40.2453 253.391 39.1551C253.391 38.0649 254.279 37.6222 255.373 38.1673C256.466 38.7124 257.355 40.0404 257.355 41.1306Z" fill="#DAFBFF"/>
<path d="M263.3 44.094C263.3 45.1842 262.412 45.6268 261.318 45.0817C260.224 44.5366 259.336 43.2086 259.336 42.1184C259.336 41.0282 260.224 40.5855 261.318 41.1306C262.412 41.6757 263.3 43.0038 263.3 44.094Z" fill="#DAFBFF"/>
<path d="M269.249 47.0573C269.249 48.1475 268.361 48.5902 267.267 48.0451C266.173 47.5 265.285 46.172 265.285 45.0818C265.285 43.9916 266.173 43.5489 267.267 44.094C268.361 44.6391 269.249 45.9671 269.249 47.0573Z" fill="#5BBCE6"/>
<path d="M275.195 50.0207C275.195 51.1109 274.306 51.5536 273.213 51.0085C272.119 50.4634 271.23 49.1353 271.23 48.0451C271.23 46.9549 272.119 46.5123 273.213 47.0574C274.306 47.6025 275.195 48.9305 275.195 50.0207Z" fill="#5BBCE6"/>
<path d="M251.409 43.6414C251.409 44.7316 250.521 45.1743 249.427 44.6292C248.334 44.0841 247.445 42.756 247.445 41.6658C247.445 40.5756 248.334 40.1329 249.427 40.678C250.521 41.2231 251.409 42.5512 251.409 43.6414Z" fill="#42EAFF"/>
<path d="M257.355 46.6048C257.355 47.695 256.466 48.1376 255.373 47.5925C254.279 47.0474 253.391 45.7194 253.391 44.6292C253.391 43.539 254.279 43.0963 255.373 43.6414C256.466 44.1865 257.355 45.5146 257.355 46.6048Z" fill="#5BBCE6"/>
<path d="M263.3 49.5681C263.3 50.6583 262.412 51.101 261.318 50.5559C260.224 50.0108 259.336 48.6827 259.336 47.5925C259.336 46.5023 260.224 46.0596 261.318 46.6047C262.412 47.1498 263.3 48.4779 263.3 49.5681Z" fill="#5BBCE6"/>
<path d="M269.249 52.5315C269.249 53.6217 268.361 54.0643 267.267 53.5192C266.173 52.9741 265.285 51.6461 265.285 50.5559C265.285 49.4657 266.173 49.023 267.267 49.5681C268.361 50.1132 269.249 51.4413 269.249 52.5315Z" fill="#42EAFF"/>
<path d="M275.195 55.4981C275.195 56.5883 274.306 57.031 273.213 56.4859C272.119 55.9408 271.23 54.6128 271.23 53.5226C271.23 52.4324 272.119 51.9897 273.213 52.5348C274.306 53.0799 275.195 54.4079 275.195 55.4981Z" fill="#42EAFF"/>
<path d="M251.409 49.1155C251.409 50.2057 250.521 50.6484 249.427 50.1033C248.334 49.5582 247.445 48.2301 247.445 47.1399C247.445 46.0497 248.334 45.607 249.427 46.1521C250.521 46.6972 251.409 48.0253 251.409 49.1155Z" fill="#DAFBFF"/>
<path d="M257.355 52.0789C257.355 53.1691 256.466 53.6118 255.373 53.0667C254.279 52.5216 253.391 51.1935 253.391 50.1033C253.391 49.0131 254.279 48.5704 255.373 49.1155C256.466 49.6606 257.355 50.9887 257.355 52.0789Z" fill="#5BBCE6"/>
<path d="M263.3 55.0455C263.3 56.1357 262.412 56.5784 261.318 56.0333C260.224 55.4882 259.336 54.1601 259.336 53.0699C259.336 51.9797 260.224 51.537 261.318 52.0821C262.412 52.6272 263.3 53.9553 263.3 55.0455Z" fill="#5BBCE6"/>
<path d="M269.249 58.0089C269.249 59.0991 268.361 59.5418 267.267 58.9967C266.173 58.4516 265.285 57.1235 265.285 56.0333C265.285 54.9431 266.173 54.5004 267.267 55.0455C268.361 55.5906 269.249 56.9187 269.249 58.0089Z" fill="#42EAFF"/>
<path d="M275.195 60.9722C275.195 62.0624 274.306 62.5051 273.213 61.96C272.119 61.4149 271.23 60.0869 271.23 58.9967C271.23 57.9065 272.119 57.4638 273.213 58.0089C274.306 58.554 275.195 59.8821 275.195 60.9722Z" fill="#42EAFF"/>
<path d="M263.655 94.4975C263.174 94.4975 262.647 94.362 262.114 94.0977L257.914 92.0032L258.209 91.4119L262.409 93.5064C263.187 93.8962 263.917 93.9458 264.407 93.6418C264.818 93.3908 265.04 92.8952 265.04 92.251V86.5423C265.04 85.6603 265.378 84.9665 265.988 84.5899C266.678 84.1637 267.642 84.2034 268.63 84.6989L271.04 85.8981L270.745 86.4895L268.335 85.2903C267.556 84.9004 266.827 84.8509 266.336 85.1548C265.929 85.4059 265.703 85.9014 265.703 86.5456V92.2543C265.703 93.1364 265.365 93.8302 264.755 94.2068C264.437 94.4017 264.062 94.5008 263.651 94.5008L263.655 94.4975Z" fill="#74D5FF"/>
<path d="M256.346 84.874H255.684V83.6384C255.684 83.0074 255.929 82.5119 256.37 82.2377C256.864 81.9338 257.55 81.9569 258.246 82.3038C258.733 82.5449 259.18 82.5813 259.475 82.3996C259.784 82.208 259.847 81.838 259.847 81.5605V78.1577H260.51V81.5605C260.51 82.1914 260.264 82.687 259.823 82.9612C259.33 83.2651 258.643 83.242 257.947 82.8951C257.46 82.654 257.013 82.6176 256.718 82.7993C256.409 82.9909 256.346 83.3609 256.346 83.6384V84.874Z" fill="#74D5FF"/>
<path d="M255.167 84.2859H254.504V80.6321C254.504 80.3711 254.617 80.1531 254.812 80.0342C255.024 79.9053 255.303 79.9053 255.574 80.0441C255.628 80.0705 255.664 80.0771 255.684 80.0804C255.684 80.0738 255.684 80.0639 255.684 80.0474V76.083H256.347V80.0474C256.347 80.3084 256.234 80.5264 256.039 80.6453C255.826 80.7742 255.548 80.7709 255.276 80.6354C255.226 80.609 255.187 80.6024 255.167 80.6024C255.167 80.609 255.167 80.6189 255.167 80.6354V84.2892V84.2859Z" fill="#74D5FF"/>
<path d="M252.181 82.796H251.518V81.5604C251.518 80.5462 250.646 79.2545 249.619 78.7391C248.349 78.1049 247.352 76.6083 247.352 75.3298V71.9271H248.014V75.3298C248.014 76.344 248.886 77.6357 249.914 78.1511C251.183 78.7854 252.181 80.2819 252.181 81.5638V82.7993V82.796Z" fill="#74D5FF"/>
<path d="M253.358 83.3841H252.696V79.7303C252.696 79.5486 252.523 79.2611 252.288 79.1455C251.847 78.9275 251.516 78.4187 251.516 77.9694V74.0051H252.179V77.9694C252.179 78.1511 252.351 78.4385 252.586 78.5542C253.027 78.7722 253.358 79.281 253.358 79.7303V83.3841Z" fill="#74D5FF"/>
<path d="M270.895 86.1922C270.895 87.6689 272.098 89.4661 273.579 90.2061C275.061 90.9461 276.264 90.3448 276.264 88.8681C276.264 87.3914 275.061 85.5942 273.579 84.8542C272.098 84.1142 270.895 84.7154 270.895 86.1922Z" fill="#42EAFF"/>
<path d="M270.895 101.303C270.895 102.78 272.098 104.577 273.579 105.317C275.061 106.057 276.264 105.456 276.264 103.979C276.264 102.502 275.061 100.705 273.579 99.965C272.098 99.225 270.895 99.8262 270.895 101.303Z" fill="#DAFBFF"/>
<path d="M270.895 93.7476C270.895 95.2243 272.098 97.0215 273.579 97.7615C275.061 98.5015 276.264 97.9002 276.264 96.4235C276.264 94.9468 275.061 93.1496 273.579 92.4096C272.098 91.6696 270.895 92.2708 270.895 93.7476Z" fill="#5BBCE6"/>
<path d="M246.336 61.5735L251.308 64.0512V59.0991L246.336 56.6213V61.5735Z" fill="#42EAFF"/>
<path d="M253.371 65.0787L258.34 67.5564V62.6042L253.371 60.1265V65.0787Z" fill="#5BBCE6"/>
<path d="M260.406 63.6317V68.5871L265.375 71.0648V66.1094L260.406 63.6317Z" fill="#5BBCE6"/>
<path d="M259.794 98.442V86.7571L248.07 80.913V92.5979L259.794 98.442Z" fill="#DAFBFF"/>
<path d="M257.306 94.7287V87.9959L250.551 84.6262V91.3623L257.306 94.7287Z" fill="#42EAFF"/>
<path d="M254.261 87.3815H253.598V91.9207H254.261V87.3815Z" fill="#DAFBFF"/>
<path d="M251.8 88.2177L251.504 88.8087L256.057 91.0784L256.354 90.4874L251.8 88.2177Z" fill="#DAFBFF"/>
<path d="M260.181 78.1577C260.923 78.5277 261.523 78.2271 261.523 77.4904C261.523 76.7537 260.923 75.8518 260.181 75.4851C259.438 75.1151 258.838 75.4157 258.838 76.1524C258.838 76.8891 259.438 77.791 260.181 78.1577ZM256.014 76.0797C256.757 76.4498 257.357 76.1491 257.357 75.4124C257.357 74.6757 256.757 73.7738 256.014 73.4038C255.272 73.0338 254.672 73.3344 254.672 74.0711C254.672 74.8078 255.272 75.7097 256.014 76.0764V76.0797ZM251.848 74.0051C252.59 74.3751 253.19 74.0744 253.19 73.3377C253.19 72.601 252.59 71.6991 251.848 71.3291C251.106 70.9591 250.506 71.2597 250.506 71.9965C250.506 72.7332 251.106 73.6351 251.848 74.0018V74.0051ZM247.678 69.2511C246.936 68.8811 246.336 69.1818 246.336 69.9185C246.336 70.6552 246.936 71.5571 247.678 71.9238C248.421 72.2938 249.021 71.9932 249.021 71.2564C249.021 70.5197 248.421 69.6178 247.678 69.2511Z" fill="#5BBCE6"/>
<g style="mix-blend-mode:multiply">
<path opacity="0.05" d="M357.407 167.039L330.51 180.445C327.566 181.912 322.794 181.912 319.847 180.445L292.95 167.039C290.006 165.572 290.006 163.193 292.95 161.723L319.847 148.317C322.79 146.85 327.563 146.85 330.51 148.317L357.407 161.723C360.35 163.19 360.35 165.568 357.407 167.039Z" fill="#A7D3F2"/>
<path opacity="0.1" d="M357.774 166.86L330.877 180.266C327.934 181.733 323.161 181.733 320.214 180.266L293.317 166.86C290.374 165.393 290.374 163.015 293.317 161.545L320.214 148.139C323.157 146.672 327.93 146.672 330.877 148.139L357.774 161.545C360.717 163.012 360.717 165.39 357.774 166.86Z" fill="#A7D3F2"/>
<path opacity="0.14" d="M358.133 166.679L331.236 180.085C328.293 181.551 323.52 181.551 320.573 180.085L293.676 166.679C290.733 165.212 290.733 162.833 293.676 161.363L320.573 147.957C323.517 146.49 328.29 146.49 331.236 147.957L358.133 161.363C361.077 162.83 361.077 165.208 358.133 166.679Z" fill="#A7D3F2"/>
<path opacity="0.19" d="M358.497 166.497L331.6 179.903C328.656 181.37 323.883 181.37 320.937 179.903L294.039 166.497C291.096 165.03 291.096 162.651 294.039 161.181L320.937 147.775C323.88 146.308 328.653 146.308 331.6 147.775L358.497 161.181C361.44 162.648 361.44 165.027 358.497 166.497Z" fill="#A7D3F2"/>
<path opacity="0.24" d="M358.86 166.315L331.963 179.721C329.02 181.188 324.247 181.188 321.3 179.721L294.403 166.315C291.459 164.848 291.459 162.47 294.403 161L321.3 147.593C324.243 146.127 329.016 146.127 331.963 147.593L358.86 161C361.803 162.466 361.803 164.845 358.86 166.315Z" fill="#A7D3F2"/>
<path opacity="0.29" d="M359.223 166.137L332.326 179.543C329.383 181.01 324.61 181.01 321.663 179.543L294.766 166.137C291.823 164.67 291.823 162.291 294.766 160.821L321.663 147.415C324.607 145.948 329.379 145.948 332.326 147.415L359.223 160.821C362.167 162.288 362.167 164.667 359.223 166.137Z" fill="#A7D3F2"/>
<path opacity="0.33" d="M359.587 165.955L332.689 179.361C329.746 180.828 324.973 180.828 322.027 179.361L295.129 165.955C292.186 164.488 292.186 162.11 295.129 160.639L322.027 147.233C324.97 145.767 329.743 145.767 332.689 147.233L359.587 160.639C362.53 162.106 362.53 164.485 359.587 165.955Z" fill="#A7D3F2"/>
<path opacity="0.38" d="M359.946 165.773L333.049 179.179C330.105 180.646 325.333 180.646 322.386 179.179L295.489 165.773C292.545 164.307 292.545 161.928 295.489 160.458L322.386 147.052C325.329 145.585 330.102 145.585 333.049 147.052L359.946 160.458C362.889 161.925 362.889 164.303 359.946 165.773Z" fill="#A7D3F2"/>
<path opacity="0.43" d="M360.313 165.592L333.416 178.998C330.473 180.465 325.7 180.465 322.753 178.998L295.856 165.592C292.913 164.125 292.913 161.746 295.856 160.276L322.753 146.87C325.696 145.403 330.469 145.403 333.416 146.87L360.313 160.276C363.256 161.743 363.256 164.122 360.313 165.592Z" fill="#A7D3F2"/>
<path opacity="0.48" d="M360.673 165.413L333.775 178.819C330.832 180.286 326.059 180.286 323.113 178.819L296.215 165.413C293.272 163.946 293.272 161.568 296.215 160.098L323.113 146.692C326.056 145.225 330.829 145.225 333.775 146.692L360.673 160.098C363.616 161.564 363.616 163.943 360.673 165.413Z" fill="#A7D3F2"/>
<path opacity="0.52" d="M361.04 165.232L334.142 178.638C331.199 180.104 326.426 180.104 323.48 178.638L296.582 165.232C293.639 163.765 293.639 161.386 296.582 159.916L323.48 146.51C326.423 145.043 331.196 145.043 334.142 146.51L361.04 159.916C363.983 161.383 363.983 163.761 361.04 165.232Z" fill="#A7D3F2"/>
<path opacity="0.57" d="M361.399 165.05L334.502 178.456C331.559 179.923 326.786 179.923 323.839 178.456L296.942 165.05C293.999 163.583 293.999 161.204 296.942 159.734L323.839 146.328C326.782 144.861 331.555 144.861 334.502 146.328L361.399 159.734C364.342 161.201 364.342 163.58 361.399 165.05Z" fill="#A7D3F2"/>
<path opacity="0.62" d="M361.762 164.871L334.865 178.278C331.922 179.744 327.149 179.744 324.202 178.278L297.305 164.871C294.362 163.405 294.362 161.026 297.305 159.556L324.202 146.15C327.146 144.683 331.919 144.683 334.865 146.15L361.762 159.556C364.706 161.023 364.706 163.401 361.762 164.871Z" fill="#A7D3F2"/>
<path opacity="0.67" d="M362.126 164.69L335.228 178.096C332.285 179.563 327.512 179.563 324.566 178.096L297.668 164.69C294.725 163.223 294.725 160.844 297.668 159.374L324.566 145.968C327.509 144.501 332.282 144.501 335.228 145.968L362.126 159.374C365.069 160.841 365.069 163.22 362.126 164.69Z" fill="#A7D3F2"/>
<path opacity="0.71" d="M362.485 164.508L335.588 177.914C332.645 179.381 327.872 179.381 324.925 177.914L298.028 164.508C295.084 163.041 295.084 160.663 298.028 159.193L324.925 145.786C327.868 144.32 332.641 144.32 335.588 145.786L362.485 159.193C365.428 160.659 365.428 163.038 362.485 164.508Z" fill="#A7D3F2"/>
<path opacity="0.76" d="M362.852 164.326L335.955 177.732C333.012 179.199 328.239 179.199 325.292 177.732L298.395 164.326C295.452 162.859 295.452 160.481 298.395 159.011L325.292 145.605C328.235 144.138 333.008 144.138 335.955 145.605L362.852 159.011C365.796 160.478 365.796 162.856 362.852 164.326Z" fill="#A7D3F2"/>
<path opacity="0.81" d="M363.212 164.148L336.314 177.554C333.371 179.021 328.598 179.021 325.652 177.554L298.754 164.148C295.811 162.681 295.811 160.303 298.754 158.832L325.652 145.426C328.595 143.959 333.368 143.959 336.314 145.426L363.212 158.832C366.155 160.299 366.155 162.678 363.212 164.148Z" fill="#A7D3F2"/>
<path opacity="0.86" d="M363.579 163.966L336.682 177.372C333.738 178.839 328.965 178.839 326.019 177.372L299.122 163.966C296.178 162.499 296.178 160.121 299.122 158.651L326.019 145.245C328.962 143.778 333.735 143.778 336.682 145.245L363.579 158.651C366.522 160.118 366.522 162.496 363.579 163.966Z" fill="#A7D3F2"/>
<path opacity="0.9" d="M363.938 163.785L337.041 177.191C334.098 178.658 329.325 178.658 326.378 177.191L299.481 163.785C296.538 162.318 296.538 159.939 299.481 158.469L326.378 145.063C329.321 143.596 334.094 143.596 337.041 145.063L363.938 158.469C366.881 159.936 366.881 162.314 363.938 163.785Z" fill="#A7D3F2"/>
<path opacity="0.95" d="M364.301 163.603L337.404 177.009C334.461 178.476 329.688 178.476 326.741 177.009L299.844 163.603C296.901 162.136 296.901 159.757 299.844 158.287L326.741 144.881C329.685 143.414 334.458 143.414 337.404 144.881L364.301 158.287C367.245 159.754 367.245 162.133 364.301 163.603Z" fill="#A7D3F2"/>
<path d="M364.665 163.424L337.767 176.831C334.824 178.297 330.051 178.297 327.105 176.831L300.207 163.424C297.264 161.958 297.264 159.579 300.207 158.109L327.105 144.703C330.048 143.236 334.821 143.236 337.767 144.703L364.665 158.109C367.608 159.576 367.608 161.954 364.665 163.424Z" fill="#A7D3F2"/>
</g>
<path d="M361.241 79.2214L334.566 65.9243C332.571 64.9299 330.768 64.8507 329.472 65.5213C329.472 65.518 304.785 77.8306 304.785 77.8306C304.672 77.8802 304.566 77.933 304.464 77.9925C303.26 78.6863 302.531 80.0143 302.531 81.8842V149.691C302.531 153.616 305.723 158.39 309.661 160.352L336.336 173.649C338.325 174.64 340.121 174.723 341.414 174.059L366.114 161.74C366.223 161.69 366.332 161.637 366.435 161.578C367.635 160.897 368.367 159.562 368.367 157.686V89.879C368.367 85.9543 365.175 81.1805 361.238 79.2181L361.241 79.2214Z" fill="url(#paint13_linear_569_22351)"/>
<path d="M336.32 173.659L309.645 160.362C305.708 158.4 302.516 153.626 302.516 149.701V81.8941C302.516 77.9694 305.708 76.377 309.645 78.3427L336.32 91.6398C340.258 93.6022 343.45 98.3759 343.45 102.301V170.108C343.45 174.032 340.258 175.625 336.32 173.659Z" fill="url(#paint14_linear_569_22351)"/>
<path style="mix-blend-mode:hard-light" d="M336.368 91.6233L309.693 78.3262C307.697 77.3318 305.894 77.2525 304.598 77.9231C304.598 77.9198 301.506 79.4626 299.57 80.4273C300.833 79.9252 302.504 80.0672 304.34 80.979L331.015 94.2761C334.953 96.2385 338.145 101.012 338.145 104.937V172.744C338.145 174.67 337.376 176.031 336.126 176.689C337.223 176.143 341.244 174.138 341.244 174.138C341.353 174.089 341.462 174.036 341.565 173.976C342.765 173.296 343.498 171.961 343.498 170.085V102.278C343.498 98.3528 340.306 93.5791 336.368 91.6167V91.6233Z" fill="url(#paint15_linear_569_22351)"/>
<path style="mix-blend-mode:multiply" d="M331.016 176.302L304.34 163.005C300.403 161.042 297.211 156.269 297.211 152.344V84.537C297.211 80.6123 300.403 79.0199 304.34 80.9856L331.016 94.2827C334.953 96.2451 338.145 101.019 338.145 104.944V172.751C338.145 176.675 334.953 178.268 331.016 176.302Z" fill="url(#paint16_linear_569_22351)"/>
<path d="M327.629 105.839C327.629 106.929 328.517 108.257 329.611 108.802C330.705 109.347 331.593 108.905 331.593 107.814C331.593 106.724 330.705 105.396 329.611 104.851C328.517 104.306 327.629 104.749 327.629 105.839Z" fill="#91DBF2"/>
<path d="M321.684 102.875C321.684 103.966 322.572 105.294 323.666 105.839C324.759 106.384 325.648 105.941 325.648 104.851C325.648 103.761 324.759 102.433 323.666 101.888C322.572 101.343 321.684 101.785 321.684 102.875Z" fill="#42EAFF"/>
<path d="M315.734 99.9121C315.734 101.002 316.623 102.33 317.716 102.875C318.81 103.421 319.699 102.978 319.699 101.888C319.699 100.797 318.81 99.4694 317.716 98.9243C316.623 98.3792 315.734 98.8219 315.734 99.9121Z" fill="#42EAFF"/>
<path d="M309.789 96.9488C309.789 98.039 310.677 99.367 311.771 99.9121C312.865 100.457 313.753 100.015 313.753 98.9243C313.753 97.8341 312.865 96.5061 311.771 95.961C310.677 95.4159 309.789 95.8586 309.789 96.9488Z" fill="#42EAFF"/>
<path d="M303.84 93.9821C303.84 95.0723 304.728 96.4003 305.822 96.9454C306.916 97.4905 307.804 97.0479 307.804 95.9577C307.804 94.8675 306.916 93.5394 305.822 92.9943C304.728 92.4492 303.84 92.8919 303.84 93.9821Z" fill="#DAFBFF"/>
<path d="M327.629 111.316C327.629 112.406 328.517 113.735 329.611 114.28C330.705 114.825 331.593 114.382 331.593 113.292C331.593 112.202 330.705 110.874 329.611 110.328C328.517 109.783 327.629 110.226 327.629 111.316Z" fill="#42EAFF"/>
<path d="M321.684 108.353C321.684 109.443 322.572 110.771 323.666 111.316C324.759 111.861 325.648 111.419 325.648 110.328C325.648 109.238 324.759 107.91 323.666 107.365C322.572 106.82 321.684 107.263 321.684 108.353Z" fill="#DAFBFF"/>
<path d="M315.734 105.386C315.734 106.476 316.623 107.804 317.716 108.35C318.81 108.895 319.699 108.452 319.699 107.362C319.699 106.272 318.81 104.944 317.716 104.398C316.623 103.853 315.734 104.296 315.734 105.386Z" fill="#DAFBFF"/>
<path d="M309.789 102.423C309.789 103.513 310.677 104.841 311.771 105.386C312.865 105.931 313.753 105.489 313.753 104.398C313.753 103.308 312.865 101.98 311.771 101.435C310.677 100.89 309.789 101.333 309.789 102.423Z" fill="#91DBF2"/>
<path d="M303.84 99.4595C303.84 100.55 304.728 101.878 305.822 102.423C306.916 102.968 307.804 102.525 307.804 101.435C307.804 100.345 306.916 99.0168 305.822 98.4717C304.728 97.9266 303.84 98.3693 303.84 99.4595Z" fill="#91DBF2"/>
<path d="M327.629 116.79C327.629 117.881 328.517 119.209 329.611 119.754C330.705 120.299 331.593 119.856 331.593 118.766C331.593 117.676 330.705 116.348 329.611 115.803C328.517 115.257 327.629 115.7 327.629 116.79Z" fill="#42EAFF"/>
<path d="M321.684 113.827C321.684 114.917 322.572 116.245 323.666 116.79C324.759 117.335 325.648 116.893 325.648 115.803C325.648 114.712 324.759 113.384 323.666 112.839C322.572 112.294 321.684 112.737 321.684 113.827Z" fill="#91DBF2"/>
<path d="M315.734 110.864C315.734 111.954 316.623 113.282 317.716 113.827C318.81 114.372 319.699 113.929 319.699 112.839C319.699 111.749 318.81 110.421 317.716 109.876C316.623 109.331 315.734 109.773 315.734 110.864Z" fill="#91DBF2"/>
<path d="M309.789 107.9C309.789 108.99 310.677 110.319 311.771 110.864C312.865 111.409 313.753 110.966 313.753 109.876C313.753 108.786 312.865 107.458 311.771 106.913C310.677 106.367 309.789 106.81 309.789 107.9Z" fill="#42EAFF"/>
<path d="M303.84 104.934C303.84 106.024 304.728 107.352 305.822 107.897C306.916 108.442 307.804 107.999 307.804 106.909C307.804 105.819 306.916 104.491 305.822 103.946C304.728 103.401 303.84 103.843 303.84 104.934Z" fill="#42EAFF"/>
<path d="M327.629 122.268C327.629 123.358 328.517 124.686 329.611 125.231C330.705 125.776 331.593 125.334 331.593 124.243C331.593 123.153 330.705 121.825 329.611 121.28C328.517 120.735 327.629 121.178 327.629 122.268Z" fill="#DAFBFF"/>
<path d="M321.684 119.301C321.684 120.391 322.572 121.719 323.666 122.264C324.759 122.81 325.648 122.367 325.648 121.277C325.648 120.186 324.759 118.858 323.666 118.313C322.572 117.768 321.684 118.211 321.684 119.301Z" fill="#91DBF2"/>
<path d="M315.734 116.338C315.734 117.428 316.623 118.756 317.716 119.301C318.81 119.846 319.699 119.404 319.699 118.313C319.699 117.223 318.81 115.895 317.716 115.35C316.623 114.805 315.734 115.248 315.734 116.338Z" fill="#91DBF2"/>
<path d="M309.789 113.374C309.789 114.465 310.677 115.793 311.771 116.338C312.865 116.883 313.753 116.44 313.753 115.35C313.753 114.26 312.865 112.932 311.771 112.387C310.677 111.842 309.789 112.284 309.789 113.374Z" fill="#42EAFF"/>
<path d="M303.84 110.411C303.84 111.501 304.728 112.829 305.822 113.374C306.916 113.919 307.804 113.477 307.804 112.387C307.804 111.296 306.916 109.968 305.822 109.423C304.728 108.878 303.84 109.321 303.84 110.411Z" fill="#42EAFF"/>
<path d="M324.408 155.169V162.612C324.408 163.107 324.809 163.709 325.306 163.953C325.803 164.198 326.204 163.999 326.204 163.507V156.064C326.204 155.568 325.803 154.967 325.306 154.723C324.809 154.478 324.408 154.676 324.408 155.169ZM321.716 153.827V161.27C321.716 161.766 322.117 162.367 322.615 162.612C323.112 162.86 323.513 162.658 323.513 162.166V154.723C323.513 154.227 323.112 153.626 322.615 153.381C322.117 153.134 321.716 153.335 321.716 153.827ZM327.103 156.513V163.956C327.103 164.452 327.504 165.053 328.001 165.298C328.498 165.545 328.899 165.344 328.899 164.852V157.409C328.899 156.913 328.498 156.312 328.001 156.067C327.504 155.819 327.103 156.021 327.103 156.513ZM319.022 152.483V159.926C319.022 160.421 319.423 161.023 319.92 161.267C320.417 161.515 320.818 161.313 320.818 160.821V153.378C320.818 152.883 320.417 152.281 319.92 152.037C319.423 151.789 319.022 151.991 319.022 152.483ZM329.797 157.855V165.298C329.797 165.793 330.198 166.394 330.695 166.639C331.193 166.883 331.594 166.685 331.594 166.193V158.75C331.594 158.254 331.193 157.653 330.695 157.409C330.198 157.164 329.797 157.362 329.797 157.855ZM309.151 147.564V155.007C309.151 155.502 309.552 156.104 310.049 156.348C310.547 156.593 310.948 156.394 310.948 155.902V148.459C310.948 147.963 310.547 147.362 310.049 147.118C309.552 146.873 309.151 147.071 309.151 147.564ZM303.762 144.878V152.321C303.762 152.816 304.163 153.418 304.66 153.662C305.157 153.91 305.558 153.708 305.558 153.216V145.773C305.558 145.278 305.157 144.676 304.66 144.432C304.163 144.184 303.762 144.386 303.762 144.878ZM306.456 146.222V153.666C306.456 154.161 306.857 154.762 307.355 155.007C307.852 155.251 308.253 155.053 308.253 154.561V147.118C308.253 146.622 307.852 146.021 307.355 145.776C306.857 145.532 306.456 145.73 306.456 146.222ZM314.537 150.25V157.693C314.537 158.188 314.938 158.789 315.435 159.034C315.933 159.282 316.334 159.08 316.334 158.588V151.145C316.334 150.649 315.933 150.048 315.435 149.804C314.938 149.556 314.537 149.757 314.537 150.25ZM311.842 148.905V156.348C311.842 156.844 312.244 157.445 312.741 157.689C313.238 157.937 313.639 157.736 313.639 157.243V149.8C313.639 149.305 313.238 148.703 312.741 148.459C312.244 148.211 311.842 148.413 311.842 148.905Z" fill="#91DBF2"/>
<path d="M305.581 129.546L329.774 141.604C330.778 142.106 331.594 141.7 331.594 140.695C331.594 139.691 330.778 138.475 329.774 137.973L305.581 125.915C304.577 125.413 303.762 125.819 303.762 126.824C303.762 127.828 304.577 129.044 305.581 129.546Z" fill="#42EAFF"/>
<path d="M321.629 135.733C321.629 135.991 321.837 136.305 322.096 136.434L329.69 140.22C329.948 140.349 330.157 140.243 330.157 139.985C330.157 139.727 329.948 139.414 329.69 139.285L322.096 135.499C321.837 135.37 321.629 135.476 321.629 135.733ZM310.668 130.269C310.668 130.527 310.876 130.841 311.135 130.97L314.204 132.499C314.463 132.628 314.672 132.522 314.672 132.265C314.672 132.007 314.463 131.693 314.204 131.564L311.135 130.035C310.876 129.906 310.668 130.012 310.668 130.269ZM305.195 127.54C305.195 127.798 305.404 128.112 305.663 128.241L308.732 129.77C308.99 129.899 309.199 129.793 309.199 129.536C309.199 129.278 308.99 128.964 308.732 128.835L305.663 127.306C305.404 127.177 305.195 127.283 305.195 127.54Z" fill="#DAFBFF"/>
<path d="M305.581 134.729L329.774 146.787C330.778 147.29 331.594 146.883 331.594 145.879C331.594 144.875 330.778 143.659 329.774 143.157L305.581 131.098C304.577 130.596 303.762 131.003 303.762 132.007C303.762 133.011 304.577 134.227 305.581 134.729Z" fill="#42EAFF"/>
<path d="M321.629 140.914C321.629 141.171 321.837 141.485 322.096 141.614L329.69 145.4C329.948 145.529 330.157 145.423 330.157 145.165C330.157 144.908 329.948 144.594 329.69 144.465L322.096 140.679C321.837 140.55 321.629 140.656 321.629 140.914ZM310.668 135.449C310.668 135.707 310.876 136.021 311.135 136.15L314.204 137.679C314.463 137.808 314.672 137.702 314.672 137.445C314.672 137.187 314.463 136.873 314.204 136.744L311.135 135.215C310.876 135.086 310.668 135.192 310.668 135.449ZM305.195 132.724C305.195 132.981 305.404 133.295 305.663 133.424L308.732 134.954C308.99 135.083 309.199 134.977 309.199 134.719C309.199 134.462 308.99 134.148 308.732 134.019L305.663 132.489C305.404 132.36 305.195 132.466 305.195 132.724Z" fill="#DAFBFF"/>
<g style="mix-blend-mode:multiply">
<path opacity="0.05" d="M415.387 229.791L388.49 243.197C385.547 244.664 380.774 244.664 377.827 243.197L350.93 229.791C347.987 228.324 347.987 225.946 350.93 224.476L377.827 211.069C380.771 209.603 385.544 209.603 388.49 211.069L415.387 224.476C418.331 225.942 418.331 228.321 415.387 229.791Z" fill="#A7D3F2"/>
<path opacity="0.1" d="M415.751 229.609L388.853 243.016C385.91 244.482 381.137 244.482 378.191 243.016L351.293 229.609C348.35 228.143 348.35 225.764 351.293 224.294L378.191 210.888C381.134 209.421 385.907 209.421 388.853 210.888L415.751 224.294C418.694 225.761 418.694 228.139 415.751 229.609Z" fill="#A7D3F2"/>
<path opacity="0.14" d="M416.11 229.431L389.213 242.837C386.27 244.304 381.497 244.304 378.55 242.837L351.653 229.431C348.709 227.964 348.709 225.586 351.653 224.115L378.55 210.709C381.493 209.242 386.266 209.242 389.213 210.709L416.11 224.115C419.053 225.582 419.053 227.961 416.11 229.431Z" fill="#A7D3F2"/>
<path opacity="0.19" d="M416.477 229.249L389.58 242.655C386.637 244.122 381.864 244.122 378.917 242.655L352.02 229.249C349.077 227.782 349.077 225.404 352.02 223.934L378.917 210.528C381.861 209.061 386.633 209.061 389.58 210.528L416.477 223.934C419.421 225.401 419.421 227.779 416.477 229.249Z" fill="#A7D3F2"/>
<path opacity="0.24" d="M416.837 229.068L389.939 242.474C386.996 243.941 382.223 243.941 379.277 242.474L352.379 229.068C349.436 227.601 349.436 225.222 352.379 223.752L379.277 210.346C382.22 208.879 386.993 208.879 389.939 210.346L416.837 223.752C419.78 225.219 419.78 227.597 416.837 229.068Z" fill="#A7D3F2"/>
<path opacity="0.29" d="M417.2 228.886L390.303 242.292C387.359 243.759 382.586 243.759 379.64 242.292L352.743 228.886C349.799 227.419 349.799 225.04 352.743 223.57L379.64 210.164C382.583 208.697 387.356 208.697 390.303 210.164L417.2 223.57C420.143 225.037 420.143 227.416 417.2 228.886Z" fill="#A7D3F2"/>
<path opacity="0.33" d="M417.563 228.707L390.666 242.114C387.723 243.58 382.95 243.58 380.003 242.114L353.106 228.707C350.163 227.241 350.163 224.862 353.106 223.392L380.003 209.986C382.946 208.519 387.719 208.519 390.666 209.986L417.563 223.392C420.506 224.859 420.506 227.237 417.563 228.707Z" fill="#A7D3F2"/>
<path opacity="0.38" d="M417.926 228.526L391.029 241.932C388.086 243.399 383.313 243.399 380.366 241.932L353.469 228.526C350.526 227.059 350.526 224.68 353.469 223.21L380.366 209.804C383.31 208.337 388.083 208.337 391.029 209.804L417.926 223.21C420.87 224.677 420.87 227.056 417.926 228.526Z" fill="#A7D3F2"/>
<path opacity="0.43" d="M418.29 228.344L391.392 241.75C388.449 243.217 383.676 243.217 380.73 241.75L353.832 228.344C350.889 226.877 350.889 224.499 353.832 223.029L380.73 209.622C383.673 208.156 388.446 208.156 391.392 209.622L418.29 223.029C421.233 224.495 421.233 226.874 418.29 228.344Z" fill="#A7D3F2"/>
<path opacity="0.48" d="M418.653 228.162L391.756 241.569C388.812 243.035 384.04 243.035 381.093 241.569L354.196 228.162C351.252 226.696 351.252 224.317 354.196 222.847L381.093 209.441C384.036 207.974 388.809 207.974 391.756 209.441L418.653 222.847C421.596 224.314 421.596 226.692 418.653 228.162Z" fill="#A7D3F2"/>
<path opacity="0.52" d="M419.016 227.984L392.119 241.39C389.176 242.857 384.403 242.857 381.456 241.39L354.559 227.984C351.616 226.517 351.616 224.139 354.559 222.668L381.456 209.262C384.4 207.795 389.172 207.795 392.119 209.262L419.016 222.668C421.96 224.135 421.96 226.514 419.016 227.984Z" fill="#A7D3F2"/>
<path opacity="0.57" d="M419.376 227.802L392.478 241.208C389.535 242.675 384.762 242.675 381.816 241.208L354.918 227.802C351.975 226.335 351.975 223.957 354.918 222.487L381.816 209.081C384.759 207.614 389.532 207.614 392.478 209.081L419.376 222.487C422.319 223.954 422.319 226.332 419.376 227.802Z" fill="#A7D3F2"/>
<path opacity="0.62" d="M419.739 227.621L392.842 241.027C389.898 242.494 385.126 242.494 382.179 241.027L355.282 227.621C352.338 226.154 352.338 223.775 355.282 222.305L382.179 208.899C385.122 207.432 389.895 207.432 392.842 208.899L419.739 222.305C422.682 223.772 422.682 226.15 419.739 227.621Z" fill="#A7D3F2"/>
<path opacity="0.67" d="M420.102 227.442L393.205 240.848C390.262 242.315 385.489 242.315 382.542 240.848L355.645 227.442C352.702 225.975 352.702 223.597 355.645 222.127L382.542 208.72C385.486 207.254 390.258 207.254 393.205 208.72L420.102 222.127C423.046 223.593 423.046 225.972 420.102 227.442Z" fill="#A7D3F2"/>
<path opacity="0.71" d="M420.466 227.261L393.568 240.667C390.625 242.133 385.852 242.133 382.906 240.667L356.008 227.261C353.065 225.794 353.065 223.415 356.008 221.945L382.906 208.539C385.849 207.072 390.622 207.072 393.568 208.539L420.466 221.945C423.409 223.412 423.409 225.79 420.466 227.261Z" fill="#A7D3F2"/>
<path opacity="0.76" d="M420.829 227.079L393.932 240.485C390.988 241.952 386.215 241.952 383.269 240.485L356.372 227.079C353.428 225.612 353.428 223.233 356.372 221.763L383.269 208.357C386.212 206.89 390.985 206.89 393.932 208.357L420.829 221.763C423.772 223.23 423.772 225.609 420.829 227.079Z" fill="#A7D3F2"/>
<path opacity="0.81" d="M421.192 226.897L394.295 240.303C391.352 241.77 386.579 241.77 383.632 240.303L356.735 226.897C353.792 225.43 353.792 223.052 356.735 221.582L383.632 208.175C386.575 206.709 391.348 206.709 394.295 208.175L421.192 221.582C424.135 223.048 424.135 225.427 421.192 226.897Z" fill="#A7D3F2"/>
<path opacity="0.86" d="M421.555 226.719L394.658 240.125C391.715 241.592 386.942 241.592 383.995 240.125L357.098 226.719C354.155 225.252 354.155 222.873 357.098 221.403L383.995 207.997C386.939 206.53 391.712 206.53 394.658 207.997L421.555 221.403C424.499 222.87 424.499 225.249 421.555 226.719Z" fill="#A7D3F2"/>
<path opacity="0.9" d="M421.919 226.537L395.021 239.943C392.078 241.41 387.305 241.41 384.359 239.943L357.461 226.537C354.518 225.07 354.518 222.692 357.461 221.221L384.359 207.815C387.302 206.349 392.075 206.349 395.021 207.815L421.919 221.221C424.862 222.688 424.862 225.067 421.919 226.537Z" fill="#A7D3F2"/>
<path opacity="0.95" d="M422.278 226.355L395.381 239.761C392.437 241.228 387.665 241.228 384.718 239.761L357.821 226.355C354.877 224.888 354.877 222.51 357.821 221.04L384.718 207.634C387.661 206.167 392.434 206.167 395.381 207.634L422.278 221.04C425.221 222.507 425.221 224.885 422.278 226.355Z" fill="#A7D3F2"/>
<path d="M422.641 226.174L395.744 239.58C392.801 241.047 388.028 241.047 385.081 239.58L358.184 226.174C355.241 224.707 355.241 222.328 358.184 220.858L385.081 207.452C388.025 205.985 392.797 205.985 395.744 207.452L422.641 220.858C425.585 222.325 425.585 224.703 422.641 226.174Z" fill="#A7D3F2"/>
</g>
<path d="M419.217 141.971L392.542 128.674C390.547 127.679 388.744 127.6 387.448 128.27C387.448 128.267 357.441 143.233 357.441 143.233C357.329 143.282 357.223 143.335 357.12 143.395C355.917 144.088 355.188 145.416 355.188 147.286V215.093C355.188 219.018 358.379 223.792 362.317 225.754L388.992 239.051C390.981 240.042 392.777 240.125 394.07 239.461L424.093 224.489C424.202 224.439 424.308 224.386 424.414 224.327C425.614 223.646 426.347 222.312 426.347 220.435V152.628C426.347 148.703 423.155 143.93 419.217 141.967V141.971Z" fill="url(#paint17_linear_569_22351)"/>
<path d="M388.996 239.054L362.321 225.757C358.383 223.795 355.191 219.021 355.191 215.097V147.289C355.191 143.365 358.383 141.772 362.321 143.738L388.996 157.035C392.934 158.998 396.126 163.771 396.126 167.696V235.503C396.126 239.428 392.934 241.02 388.996 239.054Z" fill="url(#paint18_linear_569_22351)"/>
<path d="M390.495 220.812L360.82 206.021C359.587 205.407 358.586 203.914 358.586 202.685C358.586 201.456 359.587 200.957 360.82 201.571L390.495 216.362C391.728 216.976 392.729 218.47 392.729 219.702C392.729 220.934 391.728 221.43 390.495 220.815V220.812Z" fill="#5BBCE6"/>
<path d="M370.235 207.918L360.921 203.276C360.603 203.118 360.348 203.246 360.348 203.564C360.348 203.881 360.603 204.264 360.921 204.422L370.235 209.064C370.553 209.223 370.808 209.094 370.808 208.777C370.808 208.46 370.553 208.076 370.235 207.918ZM383.678 214.617L379.913 212.741C379.595 212.582 379.34 212.711 379.34 213.028C379.34 213.346 379.595 213.729 379.913 213.887L383.678 215.764C383.997 215.922 384.252 215.794 384.252 215.476C384.252 215.159 383.997 214.776 383.678 214.617ZM390.39 217.964L386.625 216.088C386.307 215.929 386.052 216.058 386.052 216.375C386.052 216.692 386.307 217.075 386.625 217.234L390.39 219.11C390.709 219.269 390.964 219.14 390.964 218.823C390.964 218.506 390.709 218.123 390.39 217.964Z" fill="#DAFBFF"/>
<path d="M390.495 227.168L360.82 212.378C359.587 211.763 358.586 210.27 358.586 209.038C358.586 207.805 359.587 207.31 360.82 207.924L390.495 222.715C391.728 223.329 392.729 224.822 392.729 226.055C392.729 227.287 391.728 227.782 390.495 227.168Z" fill="#5BBCE6"/>
<path d="M370.235 214.274L360.921 209.632C360.603 209.474 360.348 209.603 360.348 209.92C360.348 210.237 360.603 210.62 360.921 210.779L370.235 215.42C370.553 215.579 370.808 215.45 370.808 215.133C370.808 214.816 370.553 214.432 370.235 214.274ZM383.678 220.974L379.913 219.097C379.595 218.939 379.34 219.067 379.34 219.385C379.34 219.702 379.595 220.085 379.913 220.244L383.678 222.12C383.997 222.279 384.252 222.15 384.252 221.833C384.252 221.515 383.997 221.132 383.678 220.974ZM390.39 224.32L386.625 222.444C386.307 222.285 386.052 222.414 386.052 222.731C386.052 223.048 386.307 223.432 386.625 223.59L390.39 225.467C390.709 225.625 390.964 225.496 390.964 225.179C390.964 224.862 390.709 224.479 390.39 224.32Z" fill="#DAFBFF"/>
<path d="M390.495 197.838L360.82 183.048C359.587 182.434 358.586 180.94 358.586 179.711C358.586 178.482 359.587 177.984 360.82 178.598L390.495 193.388C391.728 194.003 392.729 195.496 392.729 196.728C392.729 197.961 391.728 198.456 390.495 197.842V197.838Z" fill="#5BBCE6"/>
<path d="M370.235 184.941L360.921 180.299C360.603 180.141 360.348 180.27 360.348 180.587C360.348 180.904 360.603 181.287 360.921 181.446L370.235 186.087C370.553 186.246 370.808 186.117 370.808 185.8C370.808 185.483 370.553 185.1 370.235 184.941ZM383.678 191.644L379.913 189.768C379.595 189.609 379.34 189.738 379.34 190.055C379.34 190.372 379.595 190.755 379.913 190.914L383.678 192.79C383.997 192.949 384.252 192.82 384.252 192.503C384.252 192.186 383.997 191.803 383.678 191.644ZM390.39 194.987L386.625 193.111C386.307 192.952 386.052 193.081 386.052 193.398C386.052 193.715 386.307 194.099 386.625 194.257L390.39 196.134C390.709 196.292 390.964 196.163 390.964 195.846C390.964 195.529 390.709 195.146 390.39 194.987Z" fill="#DAFBFF"/>
<path d="M390.495 204.195L360.82 189.404C359.587 188.79 358.586 187.296 358.586 186.068C358.586 184.839 359.587 184.34 360.82 184.954L390.495 199.745C391.728 200.359 392.729 201.852 392.729 203.085C392.729 204.317 391.728 204.812 390.495 204.198V204.195Z" fill="#5BBCE6"/>
<path d="M370.235 191.297L360.921 186.656C360.603 186.497 360.348 186.626 360.348 186.943C360.348 187.26 360.603 187.643 360.921 187.802L370.235 192.444C370.553 192.602 370.808 192.473 370.808 192.156C370.808 191.839 370.553 191.456 370.235 191.297ZM383.678 198L379.913 196.124C379.595 195.965 379.34 196.094 379.34 196.411C379.34 196.728 379.595 197.112 379.913 197.27L383.678 199.147C383.997 199.305 384.252 199.176 384.252 198.859C384.252 198.542 383.997 198.159 383.678 198ZM390.39 201.344L386.625 199.467C386.307 199.308 386.052 199.437 386.052 199.754C386.052 200.072 386.307 200.455 386.625 200.613L390.39 202.49C390.709 202.648 390.964 202.52 390.964 202.202C390.964 201.885 390.709 201.502 390.39 201.344Z" fill="#42EAFF"/>
<path d="M390.495 210.551L360.82 195.76C359.587 195.146 358.586 193.653 358.586 192.42C358.586 191.188 359.587 190.693 360.82 191.307L390.495 206.097C391.728 206.712 392.729 208.205 392.729 209.437C392.729 210.67 391.728 211.165 390.495 210.551Z" fill="#5BBCE6"/>
<path d="M370.235 197.653L360.921 193.012C360.603 192.853 360.348 192.982 360.348 193.299C360.348 193.616 360.603 194 360.921 194.158L370.235 198.8C370.553 198.958 370.808 198.829 370.808 198.512C370.808 198.195 370.553 197.812 370.235 197.653ZM383.678 204.353L379.913 202.477C379.595 202.318 379.34 202.447 379.34 202.764C379.34 203.081 379.595 203.464 379.913 203.623L383.678 205.499C383.997 205.658 384.252 205.529 384.252 205.212C384.252 204.895 383.997 204.512 383.678 204.353ZM390.39 207.7L386.625 205.823C386.307 205.665 386.052 205.794 386.052 206.111C386.052 206.428 386.307 206.811 386.625 206.97L390.39 208.846C390.709 209.005 390.964 208.876 390.964 208.559C390.964 208.242 390.709 207.858 390.39 207.7Z" fill="#42EAFF"/>
<path d="M390.495 174.862L360.82 160.071C359.587 159.457 358.586 157.964 358.586 156.731C358.586 155.499 359.587 155.003 360.82 155.618L390.495 170.408C391.728 171.023 392.729 172.516 392.729 173.745C392.729 174.974 391.728 175.473 390.495 174.858V174.862Z" fill="#5BBCE6"/>
<path d="M370.235 161.968L360.921 157.326C360.603 157.167 360.348 157.296 360.348 157.613C360.348 157.93 360.603 158.314 360.921 158.472L370.235 163.114C370.553 163.272 370.808 163.144 370.808 162.826C370.808 162.509 370.553 162.126 370.235 161.968ZM383.678 168.667L379.913 166.791C379.595 166.632 379.34 166.761 379.34 167.078C379.34 167.395 379.595 167.779 379.913 167.937L383.678 169.814C383.997 169.972 384.252 169.843 384.252 169.526C384.252 169.209 383.997 168.826 383.678 168.667ZM390.39 172.014L386.625 170.137C386.307 169.979 386.052 170.108 386.052 170.425C386.052 170.742 386.307 171.125 386.625 171.284L390.39 173.16C390.709 173.319 390.964 173.19 390.964 172.873C390.964 172.556 390.709 172.172 390.39 172.014Z" fill="#DAFBFF"/>
<path d="M390.495 181.218L360.82 166.427C359.587 165.813 358.586 164.32 358.586 163.087C358.586 161.855 359.587 161.36 360.82 161.974L390.495 176.765C391.728 177.379 392.729 178.872 392.729 180.101C392.729 181.33 391.728 181.829 390.495 181.214V181.218Z" fill="#5BBCE6"/>
<path d="M370.235 168.324L360.921 163.682C360.603 163.524 360.348 163.652 360.348 163.97C360.348 164.287 360.603 164.67 360.921 164.828L370.235 169.47C370.553 169.629 370.808 169.5 370.808 169.183C370.808 168.866 370.553 168.482 370.235 168.324ZM383.678 175.023L379.913 173.147C379.595 172.988 379.34 173.117 379.34 173.434C379.34 173.752 379.595 174.135 379.913 174.293L383.678 176.17C383.997 176.328 384.252 176.2 384.252 175.882C384.252 175.565 383.997 175.182 383.678 175.023ZM390.39 178.37L386.625 176.494C386.307 176.335 386.052 176.464 386.052 176.781C386.052 177.098 386.307 177.481 386.625 177.64L390.39 179.516C390.709 179.675 390.964 179.546 390.964 179.229C390.964 178.912 390.709 178.529 390.39 178.37Z" fill="#42EAFF"/>
<path d="M390.495 187.574L360.82 172.784C359.587 172.169 358.586 170.676 358.586 169.444C358.586 168.211 359.587 167.716 360.82 168.33L390.495 183.121C391.728 183.735 392.729 185.228 392.729 186.457C392.729 187.686 391.728 188.185 390.495 187.571V187.574Z" fill="#5BBCE6"/>
<path d="M370.235 174.677L360.921 170.035C360.603 169.876 360.348 170.005 360.348 170.322C360.348 170.64 360.603 171.023 360.921 171.181L370.235 175.823C370.553 175.982 370.808 175.853 370.808 175.536C370.808 175.218 370.553 174.835 370.235 174.677ZM383.678 181.38L379.913 179.503C379.595 179.345 379.34 179.473 379.34 179.791C379.34 180.108 379.595 180.491 379.913 180.65L383.678 182.526C383.997 182.685 384.252 182.556 384.252 182.239C384.252 181.921 383.997 181.538 383.678 181.38ZM390.39 184.726L386.625 182.85C386.307 182.691 386.052 182.82 386.052 183.137C386.052 183.454 386.307 183.838 386.625 183.996L390.39 185.873C390.709 186.031 390.964 185.902 390.964 185.585C390.964 185.268 390.709 184.885 390.39 184.726Z" fill="#DAFBFF"/>
<path d="M122.879 213.365V258.827C122.879 262.94 126.028 267.056 132.325 270.194C144.92 276.471 165.341 276.471 177.936 270.194L223.541 247.462C229.838 244.324 232.987 240.207 232.987 236.091V190.63L122.879 213.362V213.365Z" fill="url(#paint19_linear_569_22351)"/>
<path d="M223.541 202.001L177.936 224.733C165.341 231.01 144.92 231.01 132.325 224.733C119.73 218.456 119.73 208.275 132.325 201.998L177.93 179.265C190.525 172.988 210.945 172.988 223.541 179.265C236.136 185.542 236.136 195.724 223.541 202.001Z" fill="url(#paint20_linear_569_22351)"/>
<path d="M223.541 202.001L177.936 224.733C165.341 231.01 144.92 231.01 132.325 224.733C119.73 218.456 119.73 208.275 132.325 201.998L177.93 179.265C190.525 172.988 210.945 172.988 223.541 179.265C236.136 185.542 236.136 195.724 223.541 202.001Z" fill="url(#paint21_linear_569_22351)"/>
<g style="mix-blend-mode:multiply">
<path opacity="0.09" d="M149.029 203.349L169.632 213.62L149.029 223.891L128.426 213.62L149.029 203.349Z" fill="#A7D3F2"/>
<path opacity="0.18" d="M149.865 202.936L170.468 213.204L149.865 223.475L129.262 213.204L149.865 202.936Z" fill="#A7D3F2"/>
<path opacity="0.27" d="M150.697 202.52L171.3 212.791L150.697 223.058L130.094 212.791L150.697 202.52Z" fill="#A7D3F2"/>
<path opacity="0.36" d="M151.529 202.103L172.132 212.374L151.529 222.645L130.926 212.374L151.529 202.103Z" fill="#A7D3F2"/>
<path opacity="0.45" d="M152.365 201.69L172.968 211.958L152.365 222.229L131.762 211.958L152.365 201.69Z" fill="#A7D3F2"/>
<path opacity="0.55" d="M153.197 201.274L173.8 211.545L153.197 221.813L132.594 211.545L153.197 201.274Z" fill="#A7D3F2"/>
<path opacity="0.64" d="M154.029 200.858L174.632 211.129L154.029 221.4L133.426 211.129L154.029 200.858Z" fill="#A7D3F2"/>
<path opacity="0.73" d="M154.861 200.445L175.464 210.713L154.861 220.984L134.258 210.713L154.861 200.445Z" fill="#A7D3F2"/>
<path opacity="0.82" d="M155.693 200.029L176.296 210.3L155.693 220.567L135.09 210.3L155.693 200.029Z" fill="#A7D3F2"/>
<path opacity="0.91" d="M156.525 199.612L177.128 209.883L156.525 220.154L135.922 209.883L156.525 199.612Z" fill="#A7D3F2"/>
<path d="M157.357 199.199L177.963 209.467L157.357 219.738L136.754 209.467L157.357 199.199Z" fill="#A7D3F2"/>
</g>
<g style="mix-blend-mode:multiply">
<path opacity="0.09" d="M185.439 185.202L206.045 195.47L185.439 205.741L164.836 195.47L185.439 185.202Z" fill="#A7D3F2"/>
<path opacity="0.18" d="M186.486 184.68L207.089 194.951L186.486 205.222L165.883 194.951L186.486 184.68Z" fill="#A7D3F2"/>
<path opacity="0.27" d="M187.529 184.161L208.132 194.429L187.529 204.7L166.926 194.429L187.529 184.161Z" fill="#A7D3F2"/>
<path opacity="0.36" d="M188.572 183.639L209.175 193.91L188.572 204.181L167.969 193.91L188.572 183.639Z" fill="#A7D3F2"/>
<path opacity="0.45" d="M189.615 183.121L210.218 193.388L189.615 203.659L169.012 193.388L189.615 183.121Z" fill="#A7D3F2"/>
<path opacity="0.55" d="M190.662 182.599L211.265 192.87L190.662 203.141L170.059 192.87L190.662 182.599Z" fill="#A7D3F2"/>
<path opacity="0.64" d="M191.705 182.08L212.308 192.348L191.705 202.619L171.102 192.348L191.705 182.08Z" fill="#A7D3F2"/>
<path opacity="0.73" d="M192.748 181.558L213.351 191.829L192.748 202.097L172.145 191.829L192.748 181.558Z" fill="#A7D3F2"/>
<path opacity="0.82" d="M193.794 181.039L214.397 191.307L193.794 201.578L173.191 191.307L193.794 181.039Z" fill="#A7D3F2"/>
<path opacity="0.91" d="M194.837 180.517L215.44 190.788L194.837 201.056L174.234 190.788L194.837 180.517Z" fill="#A7D3F2"/>
<path d="M195.88 179.999L216.483 190.266L195.88 200.537L175.277 190.266L195.88 179.999Z" fill="#A7D3F2"/>
</g>
<path d="M142.383 181.555V212.269L165.495 200.749V170.035C165.495 165.793 168.945 160.636 173.198 158.515C177.454 156.394 180.901 158.112 180.901 162.354V193.068L204.013 181.548V150.834C204.013 133.87 190.218 126.999 173.198 135.479C156.178 143.963 142.383 164.591 142.383 181.555Z" fill="#32B4FF"/>
<path d="M195.109 133.679L195.026 133.636C195.052 133.649 195.079 133.665 195.105 133.679H195.109ZM175.407 157.739C175.616 158.334 175.729 159.014 175.729 159.781V190.494L180.899 193.071V162.357C180.899 158.882 178.583 157.105 175.407 157.739ZM137.211 178.978V209.692L142.382 212.269V181.555C142.382 164.591 156.177 143.963 173.197 135.479C181.685 131.247 189.371 130.837 194.946 133.596L189.938 131.098C184.353 128.254 176.597 128.627 168.026 132.902C151.006 141.386 137.211 162.014 137.211 178.978Z" fill="url(#paint22_linear_569_22351)"/>
<path d="M175.514 136.639C184.086 132.367 191.841 131.99 197.426 134.838L202.597 137.415L201.424 137.808C204.526 141.056 206.329 145.866 206.329 151.994V182.708L188.388 196.804L183.217 194.227V163.514C183.217 159.272 179.767 157.554 175.514 159.675C171.262 161.796 167.811 166.953 167.811 171.195V201.908L149.87 216.005L144.699 213.428V182.714C144.699 165.75 158.494 145.122 175.514 136.639Z" fill="url(#paint23_linear_569_22351)"/>
<path d="M149.871 185.291V216.005L172.983 204.485V173.771C172.983 169.53 176.434 164.373 180.686 162.252C184.942 160.131 188.389 161.849 188.389 166.09V196.804L211.501 185.285V154.571C211.501 137.607 197.706 130.735 180.686 139.215C163.666 147.699 149.871 168.327 149.871 185.291Z" fill="url(#paint24_linear_569_22351)"/>
<path d="M183.006 140.372C191.578 136.1 199.334 135.724 204.919 138.571L210.089 141.148L208.916 141.541C212.018 144.789 213.821 149.599 213.821 155.727V186.441L195.88 200.537L190.709 197.961V167.247C190.709 163.005 187.259 161.287 183.006 163.408C178.751 165.529 175.303 170.686 175.303 174.928V205.642L157.362 219.738L152.191 217.161V186.447C152.191 169.483 165.986 148.855 183.006 140.372Z" fill="url(#paint25_linear_569_22351)"/>
<path d="M157.359 189.024V219.738L180.471 208.218V177.505C180.471 173.263 183.922 168.106 188.174 165.985C192.43 163.864 195.877 165.582 195.877 169.824V200.537L218.989 189.018V158.304C218.989 141.34 205.194 134.468 188.174 142.949C171.154 151.432 157.359 172.06 157.359 189.024Z" fill="url(#paint26_linear_569_22351)"/>
<path d="M274.973 368.59L331.982 340.172V283.343L274.973 311.761V368.59Z" fill="url(#paint27_linear_569_22351)"/>
<path fill-rule="evenodd" clip-rule="evenodd" d="M217.961 283.35L274.971 311.767L331.98 283.35L274.971 254.932L217.961 283.35ZM388.99 311.767L331.98 283.35L274.971 311.767L331.98 340.182L388.99 311.767Z" fill="url(#paint28_linear_569_22351)"/>
<path fill-rule="evenodd" clip-rule="evenodd" d="M217.961 340.172L274.971 368.59V311.761L217.961 283.343V340.172ZM274.971 368.59L331.98 397.004V340.179L274.971 311.761V368.59Z" fill="url(#paint29_linear_569_22351)"/>
<path d="M331.98 397.004L388.99 368.59V311.761L331.98 340.179V397.004Z" fill="url(#paint30_linear_569_22351)"/>
<g style="mix-blend-mode:multiply">
<path opacity="0.05" d="M323.718 268.923L273.821 293.796C271.663 294.873 268.163 294.873 266.005 293.796L253.755 287.691C251.597 286.614 251.597 284.869 253.755 283.796L303.652 258.923C305.809 257.846 309.31 257.846 311.467 258.923L323.718 265.028C325.875 266.105 325.875 267.849 323.718 268.923Z" fill="#B4E4F3"/>
<path opacity="0.1" d="M323.14 268.648L273.243 293.521C271.085 294.598 267.585 294.598 265.427 293.521L253.177 287.416C251.019 286.339 251.019 284.595 253.177 283.521L303.074 258.648C305.231 257.571 308.731 257.571 310.889 258.648L323.14 264.753C325.297 265.83 325.297 267.575 323.14 268.648Z" fill="#B4E4F3"/>
<path opacity="0.14" d="M322.565 268.371L272.669 293.244C270.511 294.321 267.011 294.321 264.853 293.244L252.603 287.139C250.445 286.062 250.445 284.318 252.603 283.244L302.499 258.371C304.657 257.294 308.157 257.294 310.315 258.371L322.565 264.476C324.723 265.553 324.723 267.297 322.565 268.371Z" fill="#B4E4F3"/>
<path opacity="0.19" d="M321.983 268.097L272.087 292.97C269.929 294.047 266.429 294.047 264.271 292.97L252.021 286.865C249.863 285.788 249.863 284.043 252.021 282.97L301.917 258.097C304.075 257.02 307.575 257.02 309.733 258.097L321.983 264.202C324.141 265.279 324.141 267.023 321.983 268.097Z" fill="#B4E4F3"/>
<path opacity="0.24" d="M321.409 267.819L271.512 292.692C269.355 293.769 265.855 293.769 263.697 292.692L251.446 286.587C249.289 285.51 249.289 283.766 251.446 282.692L301.343 257.819C303.501 256.742 307.001 256.742 309.159 257.819L321.409 263.924C323.567 265.001 323.567 266.746 321.409 267.819Z" fill="#B4E4F3"/>
<path opacity="0.29" d="M320.831 267.545L270.934 292.418C268.777 293.495 265.276 293.495 263.119 292.418L250.868 286.313C248.711 285.236 248.711 283.492 250.868 282.418L300.765 257.545C302.923 256.468 306.423 256.468 308.581 257.545L320.831 263.65C322.989 264.727 322.989 266.471 320.831 267.545Z" fill="#B4E4F3"/>
<path opacity="0.33" d="M320.249 267.267L270.352 292.141C268.195 293.218 264.694 293.218 262.537 292.141L250.286 286.035C248.129 284.958 248.129 283.214 250.286 282.14L300.183 257.267C302.341 256.19 305.841 256.19 307.999 257.267L320.249 263.372C322.407 264.449 322.407 266.194 320.249 267.267Z" fill="#B4E4F3"/>
<path opacity="0.38" d="M319.675 266.993L269.778 291.866C267.62 292.943 264.12 292.943 261.962 291.866L249.712 285.761C247.554 284.684 247.554 282.94 249.712 281.866L299.609 256.993C301.766 255.916 305.267 255.916 307.424 256.993L319.675 263.098C321.832 264.175 321.832 265.92 319.675 266.993Z" fill="#B4E4F3"/>
<path opacity="0.43" d="M319.097 266.716L269.2 291.589C267.042 292.666 263.542 292.666 261.384 291.589L249.134 285.484C246.976 284.407 246.976 282.662 249.134 281.589L299.031 256.716C301.188 255.639 304.688 255.639 306.846 256.716L319.097 262.821C321.254 263.898 321.254 265.642 319.097 266.716Z" fill="#B4E4F3"/>
<path opacity="0.48" d="M318.518 266.442L268.622 291.315C266.464 292.392 262.964 292.392 260.806 291.315L248.556 285.209C246.398 284.133 246.398 282.388 248.556 281.315L298.452 256.441C300.61 255.364 304.11 255.364 306.268 256.441L318.518 262.547C320.676 263.624 320.676 265.368 318.518 266.442Z" fill="#B4E4F3"/>
<path opacity="0.52" d="M317.94 266.164L268.044 291.037C265.886 292.114 262.386 292.114 260.228 291.037L247.978 284.932C245.82 283.855 245.82 282.111 247.978 281.037L297.874 256.164C300.032 255.087 303.532 255.087 305.69 256.164L317.94 262.269C320.098 263.346 320.098 265.09 317.94 266.164Z" fill="#B4E4F3"/>
<path opacity="0.57" d="M317.362 265.89L267.466 290.763C265.308 291.84 261.808 291.84 259.65 290.763L247.4 284.658C245.242 283.581 245.242 281.836 247.4 280.763L297.296 255.89C299.454 254.813 302.954 254.813 305.112 255.89L317.362 261.995C319.52 263.072 319.52 264.816 317.362 265.89Z" fill="#B4E4F3"/>
<path opacity="0.62" d="M316.784 265.616L266.887 290.489C264.73 291.566 261.23 291.566 259.072 290.489L246.821 284.384C244.664 283.307 244.664 281.562 246.821 280.489L296.718 255.616C298.876 254.539 302.376 254.539 304.534 255.616L316.784 261.721C318.942 262.798 318.942 264.542 316.784 265.616Z" fill="#B4E4F3"/>
<path opacity="0.67" d="M316.206 265.338L266.309 290.211C264.152 291.288 260.651 291.288 258.494 290.211L246.243 284.106C244.086 283.029 244.086 281.285 246.243 280.211L296.14 255.338C298.298 254.261 301.798 254.261 303.956 255.338L316.206 261.443C318.364 262.52 318.364 264.264 316.206 265.338Z" fill="#B4E4F3"/>
<path opacity="0.71" d="M315.632 265.064L265.735 289.937C263.577 291.014 260.077 291.014 257.92 289.937L245.669 283.832C243.511 282.755 243.511 281.011 245.669 279.937L295.566 255.064C297.723 253.987 301.224 253.987 303.381 255.064L315.632 261.169C317.79 262.246 317.79 263.99 315.632 265.064Z" fill="#B4E4F3"/>
<path opacity="0.76" d="M315.05 264.786L265.153 289.66C262.995 290.736 259.495 290.736 257.337 289.66L245.087 283.554C242.929 282.477 242.929 280.733 245.087 279.659L294.984 254.786C297.141 253.709 300.642 253.709 302.799 254.786L315.05 260.892C317.207 261.968 317.207 263.713 315.05 264.786Z" fill="#B4E4F3"/>
<path opacity="0.81" d="M314.472 264.512L264.575 289.385C262.417 290.462 258.917 290.462 256.759 289.385L244.509 283.28C242.351 282.203 242.351 280.459 244.509 279.385L294.406 254.512C296.563 253.435 300.063 253.435 302.221 254.512L314.472 260.617C316.629 261.694 316.629 263.439 314.472 264.512Z" fill="#B4E4F3"/>
<path opacity="0.86" d="M313.897 264.235L264.001 289.108C261.843 290.185 258.343 290.185 256.185 289.108L243.935 283.003C241.777 281.926 241.777 280.181 243.935 279.108L293.831 254.235C295.989 253.158 299.489 253.158 301.647 254.235L313.897 260.34C316.055 261.417 316.055 263.161 313.897 264.235Z" fill="#B4E4F3"/>
<path opacity="0.9" d="M313.315 263.961L263.419 288.834C261.261 289.911 257.761 289.911 255.603 288.834L243.353 282.728C241.195 281.651 241.195 279.907 243.353 278.834L293.249 253.96C295.407 252.883 298.907 252.883 301.065 253.96L313.315 260.066C315.473 261.143 315.473 262.887 313.315 263.961Z" fill="#B4E4F3"/>
<path opacity="0.95" d="M312.741 263.683L262.845 288.556C260.687 289.633 257.187 289.633 255.029 288.556L242.778 282.451C240.621 281.374 240.621 279.63 242.778 278.556L292.675 253.683C294.833 252.606 298.333 252.606 300.491 253.683L312.741 259.788C314.899 260.865 314.899 262.609 312.741 263.683Z" fill="#B4E4F3"/>
<path d="M312.163 263.409L262.266 288.282C260.109 289.359 256.609 289.359 254.451 288.282L242.2 282.177C240.043 281.1 240.043 279.355 242.2 278.282L292.097 253.409C294.255 252.332 297.755 252.332 299.913 253.409L312.163 259.514C314.321 260.591 314.321 262.335 312.163 263.409Z" fill="#B4E4F3"/>
</g>
<path d="M245.885 168.776L287.979 147.792C289.59 146.989 291.032 146.989 292.003 147.636L298.088 150.666C298.27 150.732 298.44 150.818 298.599 150.92L298.625 150.933C299.421 151.462 299.908 152.42 299.908 153.738V248.899C299.908 251.816 297.535 255.368 294.605 256.828L252.51 277.813C250.926 278.602 249.507 278.612 248.536 277.998C248.53 278.001 242.292 274.892 242.292 274.892C242.186 274.846 242.083 274.796 241.987 274.74L241.907 274.701C241.085 274.179 240.578 273.207 240.578 271.863V176.702C240.578 173.781 242.951 170.233 245.881 168.773L245.885 168.776Z" fill="url(#paint31_linear_569_22351)"/>
<path d="M245.885 168.776L287.979 147.792C289.59 146.989 291.032 146.989 292.003 147.636L298.088 150.666C298.27 150.732 298.44 150.818 298.599 150.92L298.625 150.933C299.421 151.462 299.908 152.42 299.908 153.738V248.899C299.908 251.816 297.535 255.368 294.605 256.828L252.51 277.813C250.926 278.602 249.507 278.612 248.536 277.998C248.53 278.001 242.292 274.892 242.292 274.892C242.186 274.846 242.083 274.796 241.987 274.74L241.907 274.701C241.085 274.179 240.578 273.207 240.578 271.863V176.702C240.578 173.781 242.951 170.233 245.881 168.773L245.885 168.776Z" fill="url(#paint32_linear_569_22351)"/>
<path d="M245.885 168.776L287.979 147.792C289.59 146.989 291.032 146.989 292.003 147.636L298.088 150.666C298.27 150.732 298.44 150.818 298.599 150.92L298.625 150.933C299.421 151.462 299.908 152.42 299.908 153.738V248.899C299.908 251.816 297.535 255.368 294.605 256.828L252.51 277.813C250.926 278.602 249.507 278.612 248.536 277.998C248.53 278.001 242.292 274.892 242.292 274.892C242.186 274.846 242.083 274.796 241.987 274.74L241.907 274.701C241.085 274.179 240.578 273.207 240.578 271.863V176.702C240.578 173.781 242.951 170.233 245.881 168.773L245.885 168.776Z" fill="url(#paint33_linear_569_22351)"/>
<path d="M294.608 256.831L252.514 277.813C249.587 279.273 247.211 278.09 247.211 275.17V180.009C247.211 177.092 249.584 173.54 252.514 172.08L294.608 151.099C297.535 149.638 299.912 150.821 299.912 153.741V248.903C299.912 251.82 297.538 255.371 294.608 256.831Z" fill="url(#paint34_linear_569_22351)"/>
<path style="mix-blend-mode:hard-light" d="M301.237 260.135L259.143 281.12C256.216 282.58 253.84 281.397 253.84 278.477V183.316C253.84 180.398 256.213 176.847 259.143 175.387L301.237 154.406C304.164 152.945 306.541 154.128 306.541 157.048V252.209C306.541 255.127 304.167 258.678 301.237 260.138V260.135Z" fill="url(#paint35_linear_569_22351)"/>
<path d="M247.211 180.009V275.17C247.211 276.514 247.718 277.482 248.54 278.008L248.62 278.047C248.719 278.103 248.818 278.156 248.925 278.199C248.925 278.199 255.159 281.308 255.169 281.305C254.344 280.783 253.84 279.815 253.84 278.477V183.316C253.84 180.398 256.213 176.847 259.143 175.387L301.237 154.406C302.57 153.741 303.786 153.629 304.718 153.976C304.718 153.976 298.636 150.943 298.632 150.947C297.661 150.299 296.219 150.299 294.608 151.102L252.514 172.087C249.587 173.547 247.211 177.095 247.211 180.015V180.009Z" fill="url(#paint36_linear_569_22351)"/>
<g style="mix-blend-mode:multiply" opacity="0.3">
<path d="M323.448 155.122L264.406 184.551C262.958 185.275 261.781 187.029 261.781 188.476V205.443C261.781 206.887 262.955 207.472 264.406 206.752L323.448 177.323C324.896 176.599 326.073 174.845 326.073 173.398V156.431C326.073 154.987 324.899 154.402 323.448 155.122Z" fill="#3481F5"/>
</g>
<g style="mix-blend-mode:multiply" opacity="0.3">
<path d="M323.448 182.889L264.406 212.318C262.958 213.042 261.781 214.796 261.781 216.243V233.21C261.781 234.654 262.955 235.239 264.406 234.519L323.448 205.09C324.896 204.366 326.073 202.612 326.073 201.165V184.198C326.073 182.754 324.899 182.169 323.448 182.889Z" fill="#3481F5"/>
</g>
<g style="mix-blend-mode:multiply" opacity="0.3">
<path d="M323.448 210.653L264.406 240.082C262.958 240.805 261.781 242.56 261.781 244.007V260.974C261.781 262.418 262.955 263.003 264.406 262.282L323.448 232.854C324.896 232.13 326.073 230.376 326.073 228.929V211.961C326.073 210.518 324.899 209.933 323.448 210.653Z" fill="#3481F5"/>
</g>
<path d="M331.416 181.291L272.375 210.719C270.927 211.443 269.75 210.855 269.75 209.411V192.444C269.75 191 270.923 189.242 272.375 188.519L331.416 159.09C332.865 158.367 334.042 158.955 334.042 160.398V177.366C334.042 178.809 332.868 180.567 331.416 181.291Z" fill="#DAFBFF"/>
<path d="M280.888 202.767C276.794 204.809 273.477 203.154 273.477 199.074C273.477 194.994 276.794 190.032 280.888 187.99C284.981 185.949 288.299 187.604 288.299 191.684C288.299 195.764 284.981 200.726 280.888 202.767Z" fill="#3176FF"/>
<path d="M311.598 179.608L291.855 189.457L292.212 190.166L311.954 180.317L311.598 179.608Z" fill="#00A8FF"/>
<path d="M303.159 187.176L291.852 192.817L292.208 193.526L303.515 187.885L303.159 187.176Z" fill="#00A8FF"/>
<path d="M311.594 176.244L291.852 186.093L292.208 186.802L311.95 176.953L311.594 176.244Z" fill="#00A8FF"/>
<path d="M315.907 178.915C315.542 178.915 315.191 178.714 315.015 178.367C314.77 177.878 314.969 177.283 315.459 177.035L327.63 170.97C328.121 170.726 328.717 170.924 328.966 171.413C329.211 171.902 329.012 172.496 328.522 172.744L316.351 178.81C316.208 178.879 316.056 178.915 315.907 178.915Z" fill="#00A8FF"/>
<path d="M331.416 209.057L272.375 238.486C270.927 239.21 269.75 238.622 269.75 237.178V220.211C269.75 218.767 270.923 217.009 272.375 216.286L331.416 186.857C332.865 186.134 334.042 186.722 334.042 188.165V205.133C334.042 206.576 332.868 208.334 331.416 209.057Z" fill="#3176FF"/>
<path d="M280.888 230.534C276.794 232.576 273.477 230.921 273.477 226.841C273.477 222.761 276.794 217.799 280.888 215.757C284.981 213.716 288.299 215.371 288.299 219.451C288.299 223.531 284.981 228.493 280.888 230.534Z" fill="#DAFBFF"/>
<path d="M311.594 207.368L291.852 217.218L292.208 217.927L311.95 208.077L311.594 207.368Z" fill="#DAFBFF"/>
<path d="M303.159 214.943L291.852 220.584L292.208 221.293L303.515 215.652L303.159 214.943Z" fill="#DAFBFF"/>
<path d="M311.598 204.008L291.855 213.857L292.212 214.566L311.954 204.717L311.598 204.008Z" fill="#DAFBFF"/>
<path d="M315.907 206.679C315.542 206.679 315.191 206.477 315.015 206.13C314.77 205.642 314.969 205.047 315.459 204.799L327.63 198.734C328.121 198.489 328.717 198.687 328.966 199.176C329.211 199.665 329.012 200.26 328.522 200.508L316.351 206.573C316.208 206.642 316.056 206.679 315.907 206.679Z" fill="#DAFBFF"/>
<path d="M331.416 236.825L272.375 266.253C270.927 266.977 269.75 266.389 269.75 264.945V247.978C269.75 246.534 270.923 244.776 272.375 244.053L331.416 214.624C332.865 213.901 334.042 214.489 334.042 215.932V232.9C334.042 234.343 332.868 236.101 331.416 236.825Z" fill="#42DDFF"/>
<path d="M280.888 258.301C276.794 260.343 273.477 258.688 273.477 254.608C273.477 250.528 276.794 245.566 280.888 243.524C284.981 241.483 288.299 243.138 288.299 247.218C288.299 251.298 284.981 256.26 280.888 258.301Z" fill="#DAFBFF"/>
<path d="M311.598 235.136L291.855 244.985L292.212 245.694L311.954 235.845L311.598 235.136Z" fill="#00A8FF"/>
<path d="M303.163 242.706L291.855 248.348L292.212 249.057L303.519 243.415L303.163 242.706Z" fill="#00A8FF"/>
<path d="M311.598 231.771L291.855 241.621L292.212 242.33L311.954 232.48L311.598 231.771Z" fill="#00A8FF"/>
<path d="M315.907 234.446C315.542 234.446 315.191 234.244 315.015 233.897C314.77 233.409 314.969 232.814 315.459 232.566L327.63 226.501C328.121 226.256 328.717 226.454 328.966 226.943C329.211 227.432 329.012 228.027 328.522 228.275L316.351 234.34C316.208 234.41 316.056 234.446 315.907 234.446Z" fill="#00A8FF"/>
<g style="mix-blend-mode:multiply" opacity="0.3">
<path opacity="0.09" d="M338.538 317.641C332.644 314.721 325.691 314.721 319.801 317.641C319.771 317.654 319.741 317.671 319.715 317.684C318.153 318.461 316.732 319.283 315.442 320.135C313.821 321.209 313.821 323.584 315.442 324.658C316.732 325.514 318.153 326.333 319.715 327.109C319.744 327.123 319.771 327.139 319.801 327.152C325.694 330.073 332.648 330.073 338.538 327.152C338.567 327.139 338.594 327.123 338.624 327.109C340.185 326.333 341.607 325.51 342.896 324.658C344.517 323.584 344.517 321.209 342.896 320.135C341.607 319.28 340.185 318.461 338.624 317.684C338.594 317.671 338.564 317.654 338.538 317.641Z" fill="#A7D3F2"/>
<path opacity="0.18" d="M339.26 317.281C333.367 314.361 326.413 314.361 320.523 317.281C320.494 317.294 320.464 317.311 320.437 317.324C318.876 318.1 317.454 318.923 316.165 319.775C314.544 320.849 314.544 323.224 316.165 324.298C317.454 325.154 318.876 325.973 320.437 326.749C320.467 326.763 320.494 326.779 320.523 326.792C326.417 329.713 333.37 329.713 339.26 326.792C339.29 326.779 339.317 326.763 339.347 326.749C340.908 325.973 342.33 325.15 343.619 324.298C345.24 323.224 345.24 320.849 343.619 319.775C342.33 318.92 340.908 318.1 339.347 317.324C339.317 317.311 339.287 317.294 339.26 317.281Z" fill="#A7D3F2"/>
<path opacity="0.27" d="M339.983 316.921C334.09 314.001 327.136 314.001 321.246 316.921C321.216 316.934 321.186 316.951 321.16 316.964C319.599 317.74 318.177 318.563 316.887 319.415C315.267 320.489 315.267 322.864 316.887 323.938C318.177 324.794 319.599 325.613 321.16 326.389C321.19 326.402 321.216 326.419 321.246 326.432C327.139 329.353 334.093 329.353 339.983 326.432C340.013 326.419 340.039 326.402 340.069 326.389C341.63 325.613 343.052 324.79 344.342 323.938C345.962 322.864 345.962 320.489 344.342 319.415C343.052 318.56 341.63 317.74 340.069 316.964C340.039 316.951 340.009 316.934 339.983 316.921Z" fill="#A7D3F2"/>
<path opacity="0.36" d="M340.706 316.561C334.812 313.641 327.859 313.641 321.969 316.561C321.939 316.574 321.909 316.591 321.883 316.604C320.321 317.38 318.899 318.203 317.61 319.055C315.989 320.129 315.989 322.504 317.61 323.578C318.899 324.434 320.321 325.253 321.883 326.029C321.912 326.042 321.939 326.059 321.969 326.072C327.862 328.993 334.816 328.993 340.706 326.072C340.735 326.059 340.762 326.042 340.792 326.029C342.353 325.253 343.775 324.43 345.064 323.578C346.685 322.504 346.685 320.129 345.064 319.055C343.775 318.2 342.353 317.38 340.792 316.604C340.762 316.591 340.732 316.574 340.706 316.561Z" fill="#A7D3F2"/>
<path opacity="0.45" d="M341.428 316.201C335.535 313.28 328.581 313.28 322.691 316.201C322.662 316.214 322.632 316.231 322.605 316.244C321.044 317.02 319.622 317.843 318.333 318.695C316.712 319.769 316.712 322.144 318.333 323.218C319.622 324.073 321.044 324.893 322.605 325.669C322.635 325.682 322.662 325.699 322.691 325.712C328.585 328.632 335.538 328.632 341.428 325.712C341.458 325.699 341.485 325.682 341.514 325.669C343.076 324.893 344.498 324.07 345.787 323.218C347.408 322.144 347.408 319.769 345.787 318.695C344.498 317.839 343.076 317.02 341.514 316.244C341.485 316.231 341.455 316.214 341.428 316.201Z" fill="#A7D3F2"/>
<path opacity="0.55" d="M342.155 315.841C336.262 312.92 329.308 312.92 323.418 315.841C323.388 315.854 323.358 315.87 323.332 315.884C321.771 316.66 320.349 317.483 319.059 318.335C317.439 319.409 317.439 321.784 319.059 322.858C320.349 323.713 321.771 324.533 323.332 325.309C323.362 325.322 323.388 325.339 323.418 325.352C329.311 328.272 336.265 328.272 342.155 325.352C342.185 325.339 342.211 325.322 342.241 325.309C343.802 324.533 345.224 323.71 346.513 322.858C348.134 321.784 348.134 319.409 346.513 318.335C345.224 317.479 343.802 316.66 342.241 315.884C342.211 315.87 342.181 315.854 342.155 315.841Z" fill="#A7D3F2"/>
<path opacity="0.64" d="M342.878 315.481C336.984 312.56 330.03 312.56 324.141 315.481C324.111 315.494 324.081 315.51 324.054 315.524C322.493 316.3 321.071 317.123 319.782 317.975C318.161 319.049 318.161 321.424 319.782 322.498C321.071 323.353 322.493 324.172 324.054 324.949C324.084 324.962 324.111 324.979 324.141 324.992C330.034 327.912 336.988 327.912 342.878 324.992C342.907 324.979 342.934 324.962 342.964 324.949C344.525 324.172 345.947 323.35 347.236 322.498C348.857 321.424 348.857 319.049 347.236 317.975C345.947 317.119 344.525 316.3 342.964 315.524C342.934 315.51 342.904 315.494 342.878 315.481Z" fill="#A7D3F2"/>
<path opacity="0.73" d="M343.6 315.121C337.707 312.2 330.753 312.2 324.863 315.121C324.833 315.134 324.804 315.15 324.777 315.163C323.216 315.94 321.794 316.762 320.505 317.615C318.884 318.688 318.884 321.064 320.505 322.137C321.794 322.993 323.216 323.812 324.777 324.589C324.807 324.602 324.833 324.618 324.863 324.632C330.756 327.552 337.71 327.552 343.6 324.632C343.63 324.618 343.657 324.602 343.686 324.589C345.247 323.812 346.669 322.99 347.959 322.137C349.58 321.064 349.58 318.688 347.959 317.615C346.669 316.759 345.247 315.94 343.686 315.163C343.657 315.15 343.627 315.134 343.6 315.121Z" fill="#A7D3F2"/>
<path opacity="0.82" d="M344.319 314.757C338.426 311.837 331.472 311.837 325.582 314.757C325.552 314.77 325.522 314.787 325.496 314.8C323.935 315.577 322.513 316.399 321.223 317.251C319.603 318.325 319.603 320.7 321.223 321.774C322.513 322.63 323.935 323.449 325.496 324.225C325.526 324.239 325.552 324.255 325.582 324.268C331.475 327.189 338.429 327.189 344.319 324.268C344.349 324.255 344.375 324.239 344.405 324.225C345.966 323.449 347.388 322.626 348.677 321.774C350.298 320.7 350.298 318.325 348.677 317.251C347.388 316.396 345.966 315.577 344.405 314.8C344.375 314.787 344.345 314.77 344.319 314.757Z" fill="#A7D3F2"/>
<path opacity="0.91" d="M345.042 314.397C339.148 311.477 332.195 311.477 326.305 314.397C326.275 314.41 326.245 314.427 326.218 314.44C324.657 315.216 323.235 316.039 321.946 316.891C320.325 317.965 320.325 320.34 321.946 321.414C323.235 322.27 324.657 323.089 326.218 323.865C326.248 323.879 326.275 323.895 326.305 323.908C332.198 326.829 339.152 326.829 345.042 323.908C345.071 323.895 345.098 323.879 345.128 323.865C346.689 323.089 348.111 322.266 349.4 321.414C351.021 320.34 351.021 317.965 349.4 316.891C348.111 316.036 346.689 315.216 345.128 314.44C345.098 314.427 345.068 314.41 345.042 314.397Z" fill="#A7D3F2"/>
<path d="M345.764 314.037C339.871 311.117 332.917 311.117 327.027 314.037C326.997 314.05 326.968 314.067 326.941 314.08C325.38 314.856 323.958 315.679 322.669 316.531C321.048 317.605 321.048 319.98 322.669 321.054C323.958 321.91 325.38 322.729 326.941 323.505C326.971 323.518 326.997 323.535 327.027 323.548C332.92 326.469 339.874 326.469 345.764 323.548C345.794 323.535 345.821 323.518 345.85 323.505C347.412 322.729 348.833 321.906 350.123 321.054C351.744 319.98 351.744 317.605 350.123 316.531C348.833 315.676 347.412 314.856 345.85 314.08C345.821 314.067 345.791 314.05 345.764 314.037Z" fill="#A7D3F2"/>
</g>
<path d="M346.438 317.592C343.939 316.769 339.862 314.222 338.158 312.679C336.382 311.07 337.638 309.227 339.869 309.574L349.55 310.783V315.444C349.55 316.931 348.181 318.167 346.435 317.592H346.438Z" fill="#1E55BF"/>
<path d="M345.958 314.856C343.92 314.856 342.266 313.208 342.266 311.176V272.656C342.266 270.624 343.92 268.975 345.958 268.975C347.996 268.975 349.65 270.624 349.65 272.656V311.176C349.65 313.208 347.996 314.856 345.958 314.856Z" fill="#278FFF"/>
<path d="M339.987 319.792L339.57 315.847L327.263 318.867C325.486 319.313 325.503 322.488 327.68 322.488H337.883C339.381 322.488 340.11 320.879 339.991 319.792H339.987Z" fill="#1E55BF"/>
<path d="M336.381 319.861C334.817 319.861 333.365 318.864 332.864 317.298L327.81 301.506C326.434 297.205 326.371 292.653 327.634 288.345C329.808 280.911 332.013 274.853 334.18 270.337C335.062 268.503 337.263 267.73 339.102 268.605C340.942 269.484 341.717 271.681 340.839 273.511C338.844 277.667 336.785 283.353 334.72 290.403C333.872 293.3 333.915 296.366 334.843 299.266L339.898 315.058C340.518 316.994 339.444 319.065 337.501 319.683C337.13 319.802 336.749 319.858 336.378 319.858L336.381 319.861Z" fill="#278FFF"/>
<path d="M340.73 248.106L340.266 251.929L344.601 251.704V247.033L340.73 248.106Z" fill="white"/>
<path d="M339.175 247.231C339.169 247.829 340.004 248.734 341.134 248.298C341.515 248.149 343.975 247.033 343.975 247.033C343.975 247.033 343.908 242.936 343.424 242.573C342.752 242.067 341.078 241.955 340.402 242.457C339.417 243.187 339.185 245.9 339.172 247.234L339.175 247.231Z" fill="white"/>
<path d="M340.491 243.726C341.095 244.099 340.753 245.269 340.707 245.708C340.617 246.547 342.818 248.301 344.605 248.265C344.605 246.507 347.339 243.194 345.026 243.194C344.187 240.614 340.442 242.021 339.577 241.602C339.073 242.104 339.371 243.032 340.491 243.723V243.726Z" fill="#1E55BF"/>
<path d="M340.491 243.726C341.095 244.099 340.753 245.269 340.707 245.708C340.617 246.547 342.818 248.301 344.605 248.265C344.605 246.507 347.339 243.194 345.026 243.194C344.187 240.614 340.442 242.021 339.577 241.602C339.073 242.104 339.371 243.032 340.491 243.723V243.726Z" fill="#278FFF"/>
<path d="M340.999 244.674L340.482 245.989C340.366 246.256 340.074 246.398 339.789 246.329L339.52 246.263C339.252 246.197 338.97 246.322 338.844 246.57L338.161 247.892C338.019 248.163 338.108 248.5 338.367 248.665L338.48 248.737C338.582 248.803 338.705 248.84 338.828 248.833L340.442 248.774C340.69 248.764 340.909 248.602 340.989 248.367L341.777 246.005L340.999 244.674Z" fill="#1E55BF"/>
<path d="M340.999 244.674L340.482 245.989C340.366 246.256 340.074 246.398 339.789 246.329L339.52 246.263C339.252 246.197 338.97 246.322 338.844 246.57L338.161 247.892C338.019 248.163 338.108 248.5 338.367 248.665L338.48 248.737C338.582 248.803 338.705 248.84 338.828 248.833L340.442 248.774C340.69 248.764 340.909 248.602 340.989 248.367L341.777 246.005L340.999 244.674Z" fill="#278FFF"/>
<path d="M331.818 276.125L331.414 281.06C332.279 283.558 348.636 279.673 349.18 277.287C349.18 277.287 349.601 274.39 350.068 270.756L331.818 276.121V276.125Z" fill="#278FFF"/>
<path d="M334.669 254.4C338.172 251.651 344.251 249.854 348.411 249.388C350.724 249.131 352.537 250.845 352.382 253.128C351.954 259.392 350.201 271.47 350.201 271.47C349.627 273.99 332.329 278.097 331.414 275.457L332.882 257.601C332.982 256.379 333.641 255.199 334.669 254.397V254.4Z" fill="#DAFBFF"/>
<path d="M323.205 250.571C323.526 250.26 324.043 250.293 324.325 250.644L324.305 250.396L323.841 249.273C323.778 249.121 323.841 248.949 323.987 248.873C324.139 248.794 324.331 248.853 324.411 249.005L325.071 250.244L325.263 251.133L325.475 250.082C325.511 249.91 325.674 249.795 325.85 249.821C326.015 249.844 326.135 249.989 326.131 250.155L326.085 252.692C326.092 253.495 325.826 253.884 325.233 254.05L325.001 254.116L324.153 254.357C323.715 254.479 323.258 254.228 323.135 253.789L322.717 252.315L322.469 251.281L323.201 250.578L323.205 250.571Z" fill="white"/>
<path d="M325.788 267.588C325.456 267.588 325.125 267.542 324.793 267.449C320.587 266.26 321.883 259.458 322.656 255.394L322.758 254.849C322.944 253.851 323.908 253.194 324.909 253.372C325.914 253.557 326.573 254.515 326.391 255.516L326.285 256.081C326.046 257.33 325.688 259.213 325.582 260.934C325.456 262.933 325.735 263.673 325.854 263.888C326.103 263.828 326.882 263.518 328.502 261.869C329.967 260.379 331.601 258.348 333.431 256.038C334.064 255.242 335.224 255.103 336.023 255.734C336.822 256.365 336.961 257.522 336.328 258.318C331.843 263.977 328.751 267.588 325.794 267.588H325.788Z" fill="#DAFBFF"/>
<path d="M232.635 313.971V370.8C232.635 375.944 228.697 381.088 220.825 385.009C205.082 392.858 179.553 392.858 163.809 385.009L106.806 356.594C98.9343 352.673 95 347.526 95 342.382V285.553L232.635 313.971Z" fill="url(#paint37_linear_569_22351)"/>
<path d="M106.808 299.769L163.811 328.183C179.555 336.033 205.083 336.033 220.827 328.183C236.571 320.334 236.571 307.611 220.827 299.762L163.824 271.348C148.08 263.498 122.552 263.498 106.808 271.348C91.064 279.197 91.064 291.919 106.808 299.769Z" fill="url(#paint38_linear_569_22351)"/>
<g style="mix-blend-mode:multiply">
<path opacity="0.09" d="M165.988 302.672L197.887 318.576L165.988 334.477L134.086 318.576L165.988 302.672Z" fill="#A7D3F2"/>
<path opacity="0.18" d="M167.433 301.952L199.332 317.856L167.433 333.756L135.531 317.856L167.433 301.952Z" fill="#A7D3F2"/>
<path opacity="0.27" d="M168.879 301.235L200.778 317.136L168.879 333.036L136.977 317.136L168.879 301.235Z" fill="#A7D3F2"/>
<path opacity="0.36" d="M170.321 300.515L202.223 316.416L170.321 332.316L138.422 316.416L170.321 300.515Z" fill="#A7D3F2"/>
<path opacity="0.45" d="M171.766 299.795L203.668 315.695L171.766 331.596L139.867 315.695L171.766 299.795Z" fill="#A7D3F2"/>
<path opacity="0.55" d="M173.211 299.075L205.114 314.975L173.211 330.876L141.312 314.975L173.211 299.075Z" fill="#A7D3F2"/>
<path opacity="0.64" d="M174.656 298.355L206.555 314.255L174.656 330.155L142.754 314.255L174.656 298.355Z" fill="#A7D3F2"/>
<path opacity="0.73" d="M176.101 297.634L208 313.535L176.101 329.435L144.199 313.535L176.101 297.634Z" fill="#A7D3F2"/>
<path opacity="0.82" d="M177.547 296.914L209.446 312.815L177.547 328.715L145.645 312.815L177.547 296.914Z" fill="#A7D3F2"/>
<path opacity="0.91" d="M178.989 296.194L210.891 312.094L178.989 327.995L147.09 312.094L178.989 296.194Z" fill="#A7D3F2"/>
<path d="M180.434 295.474L212.336 311.374L180.434 327.275L148.535 311.374L180.434 295.474Z" fill="#A7D3F2"/>
</g>
<path d="M212.394 305.55L180.435 321.48L148.477 305.55L180.435 289.62L212.394 305.55Z" fill="#EDEFFC"/>
<path d="M212.392 311.344L180.434 327.275V321.48L212.392 305.55V311.344Z" fill="#E3E5F9"/>
<path d="M180.435 327.275L148.477 311.344V305.55L180.435 321.48V327.275Z" fill="#BCC9F8"/>
<path d="M212.394 296.861L180.435 312.791L148.477 296.861L180.435 280.931L212.394 296.861Z" fill="url(#paint39_linear_569_22351)"/>
<path d="M212.394 296.861L180.435 312.791L148.477 296.861L180.435 280.931L212.394 296.861Z" fill="url(#paint40_linear_569_22351)"/>
<path d="M212.392 302.659L180.434 318.589V312.792L212.392 296.861V302.659Z" fill="url(#paint41_linear_569_22351)"/>
<path d="M212.392 302.659L180.434 318.589V312.792L212.392 296.861V302.659Z" fill="url(#paint42_linear_569_22351)"/>
<path d="M180.435 318.589L148.477 302.659V296.861L180.435 312.792V318.589Z" fill="url(#paint43_linear_569_22351)"/>
<path d="M180.435 318.589L148.477 302.659V296.861L180.435 312.792V318.589Z" fill="url(#paint44_linear_569_22351)"/>
<path d="M212.394 288.176L180.435 304.106L148.477 288.176L180.435 272.246L212.394 288.176Z" fill="url(#paint45_linear_569_22351)"/>
<path d="M212.392 293.974L180.434 309.904V304.106L212.392 288.176V293.974Z" fill="url(#paint46_linear_569_22351)"/>
<path d="M212.392 293.974L180.434 309.904V304.106L212.392 288.176V293.974Z" fill="url(#paint47_linear_569_22351)"/>
<path d="M180.435 309.904L148.477 293.974V288.176L180.435 304.106V309.904Z" fill="url(#paint48_linear_569_22351)"/>
<path d="M180.435 309.904L148.477 293.974V288.176L180.435 304.106V309.904Z" fill="url(#paint49_linear_569_22351)"/>
<path d="M212.394 279.491L180.435 295.421L148.477 279.491L180.435 263.561L212.394 279.491Z" fill="#2CF0FF"/>
<path d="M212.392 285.289L180.434 301.219V295.421L212.392 279.491V285.289Z" fill="#42DDFF"/>
<path d="M180.435 301.219L148.477 285.289V279.491L180.435 295.421V301.219Z" fill="#32B4FF"/>
</g>
<defs>
<linearGradient id="paint0_linear_569_22351" x1="246.466" y1="160.425" x2="246.466" y2="238.787" gradientUnits="userSpaceOnUse">
<stop stop-color="#C2D5FF"/>
<stop offset="0.725" stop-color="white" stop-opacity="0"/>
</linearGradient>
<linearGradient id="paint1_linear_569_22351" x1="251.27" y1="231.301" x2="355.337" y2="126.888" gradientUnits="userSpaceOnUse">
<stop stop-color="#92A6F3"/>
<stop offset="1" stop-color="#AAB9F3"/>
</linearGradient>
<linearGradient id="paint2_linear_569_22351" x1="303.474" y1="160.425" x2="303.474" y2="238.787" gradientUnits="userSpaceOnUse">
<stop stop-color="#C2D5FF"/>
<stop offset="1" stop-color="white" stop-opacity="0"/>
</linearGradient>
<linearGradient id="paint3_linear_569_22351" x1="217.961" y1="103.612" x2="331.98" y2="103.612" gradientUnits="userSpaceOnUse">
<stop stop-color="#AAB9F3"/>
<stop offset="1" stop-color="#CCD6FF"/>
</linearGradient>
<linearGradient id="paint4_linear_569_22351" x1="217.962" y1="103.612" x2="331.981" y2="103.612" gradientUnits="userSpaceOnUse">
<stop stop-color="#E2E7FF"/>
<stop offset="1" stop-color="white"/>
</linearGradient>
<linearGradient id="paint5_linear_569_22351" x1="303.478" y1="209.475" x2="303.478" y2="270.728" gradientUnits="userSpaceOnUse">
<stop stop-color="#C2D5FF"/>
<stop offset="1" stop-color="white" stop-opacity="0"/>
</linearGradient>
<linearGradient id="paint6_linear_569_22351" x1="360.486" y1="209.475" x2="360.486" y2="270.728" gradientUnits="userSpaceOnUse">
<stop stop-color="#C2D5FF"/>
<stop offset="1" stop-color="white" stop-opacity="0"/>
</linearGradient>
<linearGradient id="paint7_linear_569_22351" x1="274.973" y1="165.066" x2="388.992" y2="165.066" gradientUnits="userSpaceOnUse">
<stop stop-color="#E8EAFB"/>
<stop offset="1" stop-color="white"/>
</linearGradient>
<linearGradient id="paint8_linear_569_22351" x1="360.486" y1="258.524" x2="360.486" y2="302.669" gradientUnits="userSpaceOnUse">
<stop stop-color="#C2D5FF"/>
<stop offset="1" stop-color="white" stop-opacity="0"/>
</linearGradient>
<linearGradient id="paint9_linear_569_22351" x1="417.493" y1="258.524" x2="417.493" y2="302.669" gradientUnits="userSpaceOnUse">
<stop stop-color="#C2D5FF"/>
<stop offset="1" stop-color="white" stop-opacity="0"/>
</linearGradient>
<linearGradient id="paint10_linear_569_22351" x1="331.98" y1="226.52" x2="446" y2="226.52" gradientUnits="userSpaceOnUse">
<stop stop-color="#E8EAFB"/>
<stop offset="1" stop-color="white"/>
</linearGradient>
<linearGradient id="paint11_linear_569_22351" x1="253.521" y1="15.2467" x2="299.29" y2="105.369" gradientUnits="userSpaceOnUse">
<stop stop-color="#EDEEFB"/>
<stop offset="0.06" stop-color="#FCFCFE"/>
<stop offset="0.3" stop-color="#E1E3F8"/>
<stop offset="0.37" stop-color="#C5D0F9"/>
<stop offset="1" stop-color="#DDE2FB"/>
</linearGradient>
<linearGradient id="paint12_linear_569_22351" x1="236.975" y1="91.8116" x2="285.472" y2="43.1549" gradientUnits="userSpaceOnUse">
<stop stop-color="#92A6F3"/>
<stop offset="1" stop-color="#7F93E6"/>
</linearGradient>
<linearGradient id="paint13_linear_569_22351" x1="312.568" y1="75.0192" x2="358.317" y2="165.102" gradientUnits="userSpaceOnUse">
<stop stop-color="#EDEEFB"/>
<stop offset="0.06" stop-color="#FCFCFE"/>
<stop offset="0.3" stop-color="#E1E3F8"/>
<stop offset="0.37" stop-color="#C5D0F9"/>
<stop offset="1" stop-color="#DDE2FB"/>
</linearGradient>
<linearGradient id="paint14_linear_569_22351" x1="298.658" y1="150.246" x2="347.151" y2="101.593" gradientUnits="userSpaceOnUse">
<stop stop-color="#92A6F3"/>
<stop offset="1" stop-color="#7F93E6"/>
</linearGradient>
<linearGradient id="paint15_linear_569_22351" x1="321.536" y1="163.117" x2="321.536" y2="83.2882" gradientUnits="userSpaceOnUse">
<stop stop-color="#1487FB"/>
<stop offset="1" stop-color="#22D2FD"/>
</linearGradient>
<linearGradient id="paint16_linear_569_22351" x1="297.211" y1="128.644" x2="337.714" y2="128.644" gradientUnits="userSpaceOnUse">
<stop stop-color="#1487FB"/>
<stop offset="1" stop-color="#22D2FD"/>
</linearGradient>
<linearGradient id="paint17_linear_569_22351" x1="367.875" y1="139.08" x2="413.641" y2="229.199" gradientUnits="userSpaceOnUse">
<stop stop-color="#EDEEFB"/>
<stop offset="0.06" stop-color="#FCFCFE"/>
<stop offset="0.3" stop-color="#E1E3F8"/>
<stop offset="0.37" stop-color="#C5D0F9"/>
<stop offset="1" stop-color="#DDE2FB"/>
</linearGradient>
<linearGradient id="paint18_linear_569_22351" x1="351.33" y1="215.642" x2="399.827" y2="166.985" gradientUnits="userSpaceOnUse">
<stop stop-color="#92A6F3"/>
<stop offset="1" stop-color="#7F93E6"/>
</linearGradient>
<linearGradient id="paint19_linear_569_22351" x1="177.934" y1="222.274" x2="183.983" y2="271.831" gradientUnits="userSpaceOnUse">
<stop stop-color="#C2D5FF"/>
<stop offset="0.939498" stop-color="white" stop-opacity="0"/>
</linearGradient>
<linearGradient id="paint20_linear_569_22351" x1="123.741" y1="214.545" x2="227.261" y2="190.42" gradientUnits="userSpaceOnUse">
<stop stop-color="#E8EAFB"/>
<stop offset="1" stop-color="white"/>
</linearGradient>
<linearGradient id="paint21_linear_569_22351" x1="122.88" y1="201.999" x2="232.988" y2="201.999" gradientUnits="userSpaceOnUse">
<stop stop-color="#E2E7FF"/>
<stop offset="1" stop-color="white"/>
</linearGradient>
<linearGradient id="paint22_linear_569_22351" x1="145.829" y1="204.878" x2="182.836" y2="137.246" gradientUnits="userSpaceOnUse">
<stop stop-color="#32B4FF"/>
<stop offset="0.4" stop-color="#179AE6"/>
<stop offset="0.6" stop-color="#2CF0FF"/>
<stop offset="1" stop-color="#42DDFF"/>
</linearGradient>
<linearGradient id="paint23_linear_569_22351" x1="157.225" y1="210.752" x2="194.236" y2="143.12" gradientUnits="userSpaceOnUse">
<stop stop-color="#0085FF"/>
<stop offset="0.4" stop-color="#0075FF"/>
<stop offset="0.6" stop-color="#0075FF"/>
<stop offset="1" stop-color="#168FFF"/>
</linearGradient>
<linearGradient id="paint24_linear_569_22351" x1="435.752" y1="75.1827" x2="369.366" y2="44.1845" gradientUnits="userSpaceOnUse">
<stop stop-color="#92A6F3"/>
<stop offset="1" stop-color="#7F93E6"/>
</linearGradient>
<linearGradient id="paint25_linear_569_22351" x1="200.441" y1="143.236" x2="166.248" y2="220.472" gradientUnits="userSpaceOnUse">
<stop stop-color="#EDEEFB"/>
<stop offset="0.09" stop-color="#FCFCFE"/>
<stop offset="0.28" stop-color="#E1E3F8"/>
<stop offset="0.41" stop-color="#C5D0F9"/>
<stop offset="1" stop-color="#DDE2FB"/>
</linearGradient>
<linearGradient id="paint26_linear_569_22351" x1="436.694" y1="47.1057" x2="375.039" y2="78.041" gradientUnits="userSpaceOnUse">
<stop stop-color="#CCD6FF"/>
<stop offset="1" stop-color="#AAB9F3"/>
</linearGradient>
<linearGradient id="paint27_linear_569_22351" x1="303.478" y1="315.353" x2="303.478" y2="359.499" gradientUnits="userSpaceOnUse">
<stop stop-color="#C2D5FF"/>
<stop offset="1" stop-color="white" stop-opacity="0"/>
</linearGradient>
<linearGradient id="paint28_linear_569_22351" x1="94.9992" y1="311.767" x2="95.3307" y2="311.767" gradientUnits="userSpaceOnUse">
<stop stop-color="#E8EAFB"/>
<stop offset="1" stop-color="white"/>
</linearGradient>
<linearGradient id="paint29_linear_569_22351" x1="303.476" y1="343.769" x2="303.476" y2="387.913" gradientUnits="userSpaceOnUse">
<stop stop-color="#C2D5FF"/>
<stop offset="1" stop-color="white" stop-opacity="0"/>
</linearGradient>
<linearGradient id="paint30_linear_569_22351" x1="360.486" y1="343.769" x2="360.486" y2="387.913" gradientUnits="userSpaceOnUse">
<stop stop-color="#C2D5FF"/>
<stop offset="1" stop-color="white" stop-opacity="0"/>
</linearGradient>
<linearGradient id="paint31_linear_569_22351" x1="270.246" y1="278.437" x2="270.246" y2="150.497" gradientUnits="userSpaceOnUse">
<stop stop-color="#0075FF"/>
<stop offset="0.63" stop-color="#54D6FF"/>
<stop offset="1" stop-color="#35F9FF"/>
</linearGradient>
<linearGradient id="paint32_linear_569_22351" x1="280.436" y1="149.513" x2="247.903" y2="392.824" gradientUnits="userSpaceOnUse">
<stop stop-color="#4CB6FF"/>
<stop offset="0.07" stop-color="#85E9FF"/>
<stop offset="0.29" stop-color="#35F9FF"/>
<stop offset="0.61" stop-color="#1485FF"/>
<stop offset="0.63" stop-color="#85C0FF"/>
<stop offset="0.9" stop-color="#0ECCFF"/>
<stop offset="1" stop-color="#1485FF"/>
</linearGradient>
<linearGradient id="paint33_linear_569_22351" x1="270.243" y1="272.711" x2="270.243" y2="165.525" gradientUnits="userSpaceOnUse">
<stop stop-color="#0ECCFF"/>
<stop offset="0.63" stop-color="#1685FE"/>
<stop offset="1" stop-color="#24ADFF"/>
</linearGradient>
<linearGradient id="paint34_linear_569_22351" x1="-179.215" y1="498.559" x2="-220.159" y2="416.42" gradientUnits="userSpaceOnUse">
<stop stop-color="#7023FF"/>
<stop offset="0.63" stop-color="#1E69FF"/>
<stop offset="1" stop-color="#8FB5FF"/>
</linearGradient>
<linearGradient id="paint35_linear_569_22351" x1="288.748" y1="253.759" x2="244.824" y2="235.264" gradientUnits="userSpaceOnUse">
<stop stop-color="#28E9FF"/>
<stop offset="1" stop-color="#38F3FD"/>
</linearGradient>
<linearGradient id="paint36_linear_569_22351" x1="275.964" y1="277.347" x2="275.964" y2="152.925" gradientUnits="userSpaceOnUse">
<stop stop-color="#C3CFF7"/>
<stop offset="1" stop-color="white"/>
</linearGradient>
<linearGradient id="paint37_linear_569_22351" x1="163.818" y1="325.109" x2="148.367" y2="381.601" gradientUnits="userSpaceOnUse">
<stop stop-color="#C2D5FF"/>
<stop offset="1" stop-color="white" stop-opacity="0"/>
</linearGradient>
<linearGradient id="paint38_linear_569_22351" x1="102.947" y1="316.184" x2="228.924" y2="281.978" gradientUnits="userSpaceOnUse">
<stop stop-color="#E8EAFB"/>
<stop offset="1" stop-color="white"/>
</linearGradient>
<linearGradient id="paint39_linear_569_22351" x1="148.874" y1="296.861" x2="213.106" y2="296.861" gradientUnits="userSpaceOnUse">
<stop stop-color="#646EFF"/>
<stop offset="1" stop-color="#42C0FF"/>
</linearGradient>
<linearGradient id="paint40_linear_569_22351" x1="212.394" y1="296.865" x2="148.307" y2="296.865" gradientUnits="userSpaceOnUse">
<stop stop-color="#1485FF"/>
<stop offset="1" stop-color="#27A9FF"/>
</linearGradient>
<linearGradient id="paint41_linear_569_22351" x1="208.279" y1="313.254" x2="185.998" y2="302.808" gradientUnits="userSpaceOnUse">
<stop stop-color="#23E5FF"/>
<stop offset="1" stop-color="#33F3FF"/>
</linearGradient>
<linearGradient id="paint42_linear_569_22351" x1="196.413" y1="317.642" x2="196.413" y2="299.9" gradientUnits="userSpaceOnUse">
<stop stop-color="#0ECCFF"/>
<stop offset="0.63" stop-color="#1685FE"/>
<stop offset="1" stop-color="#24ADFF"/>
</linearGradient>
<linearGradient id="paint43_linear_569_22351" x1="174.343" y1="302.752" x2="154.327" y2="312.891" gradientUnits="userSpaceOnUse">
<stop stop-color="#17B0BA"/>
<stop offset="1" stop-color="#23D7FF"/>
</linearGradient>
<linearGradient id="paint44_linear_569_22351" x1="164.456" y1="317.642" x2="164.456" y2="299.9" gradientUnits="userSpaceOnUse">
<stop stop-color="#0ECCFF"/>
<stop offset="0.63" stop-color="#1685FE"/>
<stop offset="1" stop-color="#24ADFF"/>
</linearGradient>
<linearGradient id="paint45_linear_569_22351" x1="95.0036" y1="288.176" x2="95.335" y2="288.176" gradientUnits="userSpaceOnUse">
<stop stop-color="#646EFF"/>
<stop offset="1" stop-color="#42C0FF"/>
</linearGradient>
<linearGradient id="paint46_linear_569_22351" x1="208.279" y1="304.569" x2="185.998" y2="294.123" gradientUnits="userSpaceOnUse">
<stop stop-color="#23E5FF"/>
<stop offset="1" stop-color="#33F3FF"/>
</linearGradient>
<linearGradient id="paint47_linear_569_22351" x1="196.413" y1="308.957" x2="196.413" y2="291.215" gradientUnits="userSpaceOnUse">
<stop stop-color="#0ECCFF"/>
<stop offset="0.63" stop-color="#1685FE"/>
<stop offset="1" stop-color="#24ADFF"/>
</linearGradient>
<linearGradient id="paint48_linear_569_22351" x1="174.343" y1="294.063" x2="154.327" y2="304.205" gradientUnits="userSpaceOnUse">
<stop stop-color="#00A3FF"/>
<stop offset="1" stop-color="#2388FF"/>
</linearGradient>
<linearGradient id="paint49_linear_569_22351" x1="164.456" y1="308.957" x2="164.456" y2="291.215" gradientUnits="userSpaceOnUse">
<stop stop-color="#0ECCFF"/>
<stop offset="0.63" stop-color="#1685FE"/>
<stop offset="1" stop-color="#24ADFF"/>
</linearGradient>
<clipPath id="clip0_569_22351">
<rect width="351" height="393" fill="white" transform="translate(95 4.00439)"/>
</clipPath>
</defs>
</svg>
