<svg width="24" height="24" viewBox="0 0 24 24" fill="none" xmlns="http://www.w3.org/2000/svg">
<path fill-rule="evenodd" clip-rule="evenodd" d="M16.25 6.99976C16.25 7.41376 15.914 7.74976 15.5 7.74976C15.086 7.74976 14.75 7.41376 14.75 6.99976V5.49976C14.75 3.98076 13.519 2.74976 12 2.74976C10.481 2.74976 9.25 3.98076 9.25 5.49976V6.99976C9.25 7.41376 8.914 7.74976 8.5 7.74976C8.086 7.74976 7.75 7.41376 7.75 6.99976V5.49976C7.75 3.15276 9.653 1.24976 12 1.24976C14.347 1.24976 16.25 3.15276 16.25 5.49976V6.99976Z" fill="#1EC0F2"/>
<path fill-rule="evenodd" clip-rule="evenodd" d="M19.3424 8.34976L20.1424 20.3498C20.1834 20.9718 19.9654 21.5818 19.5404 22.0368C19.1144 22.4918 18.5194 22.7498 17.8974 22.7498H6.10341C5.48141 22.7498 4.88641 22.4918 4.46041 22.0368C4.03541 21.5818 3.81741 20.9718 3.85841 20.3498L4.65841 8.34976C4.73741 7.16776 5.71941 6.24976 6.90341 6.24976H17.0974C18.2814 6.24976 19.2634 7.16776 19.3424 8.34976ZM14.4864 10.6778C14.0444 11.6068 13.0974 12.2498 12.0004 12.2498C10.9034 12.2498 9.95641 11.6068 9.51441 10.6778C9.33741 10.3038 8.88941 10.1448 8.51541 10.3228C8.14141 10.4998 7.98241 10.9478 8.15941 11.3218C8.84141 12.7578 10.3054 13.7498 12.0004 13.7498C13.6954 13.7498 15.1594 12.7578 15.8414 11.3218C16.0184 10.9478 15.8594 10.4998 15.4854 10.3228C15.1114 10.1448 14.6634 10.3038 14.4864 10.6778Z" fill="#1EC0F2"/>
</svg>
