<svg width="24" height="25" viewBox="0 0 24 25" fill="none" xmlns="http://www.w3.org/2000/svg">
<path fill-rule="evenodd" clip-rule="evenodd" d="M16.25 7.4997C16.25 7.9137 15.914 8.2497 15.5 8.2497C15.086 8.2497 14.75 7.9137 14.75 7.4997V5.9997C14.75 4.4807 13.519 3.2497 12 3.2497C10.481 3.2497 9.25 4.4807 9.25 5.9997V7.4997C9.25 7.9137 8.914 8.2497 8.5 8.2497C8.086 8.2497 7.75 7.9137 7.75 7.4997V5.9997C7.75 3.6527 9.653 1.74969 12 1.74969C14.347 1.74969 16.25 3.6527 16.25 5.9997V7.4997Z" fill="#1EC0F2"/>
<path fill-rule="evenodd" clip-rule="evenodd" d="M19.3433 8.8497L20.1433 20.8497C20.1843 21.4717 19.9663 22.0817 19.5413 22.5367C19.1153 22.9917 18.5203 23.2497 17.8983 23.2497H6.10426C5.48226 23.2497 4.88726 22.9917 4.46126 22.5367C4.03626 22.0817 3.81826 21.4717 3.85926 20.8497L4.65926 8.8497C4.73826 7.6677 5.72026 6.74969 6.90426 6.74969H17.0983C18.2823 6.74969 19.2643 7.6677 19.3433 8.8497ZM14.4873 11.1777C14.0453 12.1067 13.0983 12.7497 12.0013 12.7497C10.9043 12.7497 9.95726 12.1067 9.51526 11.1777C9.33826 10.8037 8.89026 10.6447 8.51626 10.8227C8.14226 10.9997 7.98326 11.4477 8.16026 11.8217C8.84226 13.2577 10.3063 14.2497 12.0013 14.2497C13.6963 14.2497 15.1603 13.2577 15.8423 11.8217C16.0193 11.4477 15.8603 10.9997 15.4863 10.8227C15.1123 10.6447 14.6643 10.8037 14.4873 11.1777Z" fill="#1EC0F2"/>
</svg>
